  0
SECTION
  2
HEADER
  9
$ANGBASE
  50
0.0
  9
$ANGDIR
  70
1
  9
$MEASUREMENT
  70
1
  0
ENDSEC
  0
SECTION
  2
TABLES
  0
TABLE
  2
LTYPE
  70
4
  0
LTYPE
  5
40F
  2
CONTINUOUS
  70
0
  3
Solid line
  72
65
  73
0
  40
0.0
  0
LTYPE
  5
410
  2
DASHDOT
 70
0
  3
Dash Dot ____ _ ____ _
 72
65
 73
4
 40
2.0
 49
1.25
 49
-0.25
 49
0.25
 49
-0.25
  0
LTYPE
  5
411
  2
DASHED
 70
0
  3
Dashed __ __ __ __ __
 72
65
 73
2
 40
0.75
 49
0.5
 49
-0.25
  0
LTYPE
  5
43B
  2
DOTTED
 70
0
  3
Dotted .  .  .  .
 72
65
 73
2
 40
0.2
 49
0.0
 49
-0.2
  0
ENDTAB
  0
TABLE
  2
STYLE
  70
4
  0
STYLE
  2
KICAD
  70
0
  40
0
  41
1
  42
1
  50
0
  71
0
  3
isocp.shx
  0
STYLE
  2
KICADB
  70
0
  40
0
  41
1
  42
1
  50
0
  71
0
  3
isocp.shx
  0
STYLE
  2
KICADI
  70
0
  40
0
  41
1
  42
1
  50
15
  71
0
  3
isocp.shx
  0
STYLE
  2
KICADBI
  70
0
  40
0
  41
1
  42
1
  50
15
  71
0
  3
isocp.shx
  0
ENDTAB
  0
TABLE
  2
LAYER
  70
1
  0
LAYER
  2
BLACK
  70
0
  62
7
  6
CONTINUOUS
  0
ENDTAB
  0
ENDSEC
  0
SECTION
  2
ENTITIES
0
LINE
8
BLACK
6
CONTINUOUS
10
168.421
20
-116.635
11
168.425
21
-116.635
0
LINE
8
BLACK
6
CONTINUOUS
10
168.425
20
-116.635
11
168.43
21
-116.637
0
LINE
8
BLACK
6
CONTINUOUS
10
168.43
20
-116.637
11
168.434
21
-116.639
0
LINE
8
BLACK
6
CONTINUOUS
10
168.434
20
-116.639
11
168.438
21
-116.642
0
LINE
8
BLACK
6
CONTINUOUS
10
168.438
20
-116.642
11
168.441
21
-116.646
0
LINE
8
BLACK
6
CONTINUOUS
10
168.441
20
-116.646
11
168.443
21
-116.65
0
LINE
8
BLACK
6
CONTINUOUS
10
168.443
20
-116.65
11
168.445
21
-116.655
0
LINE
8
BLACK
6
CONTINUOUS
10
168.445
20
-116.655
11
168.445
21
-116.66
0
LINE
8
BLACK
6
CONTINUOUS
10
168.445
20
-116.66
11
168.445
21
-116.661
0
LINE
8
BLACK
6
CONTINUOUS
10
168.445
20
-116.661
11
168.445
21
-132.259
0
LINE
8
BLACK
6
CONTINUOUS
10
168.445
20
-132.259
11
168.445
21
-132.26
0
LINE
8
BLACK
6
CONTINUOUS
10
168.445
20
-132.26
11
168.445
21
-132.265
0
LINE
8
BLACK
6
CONTINUOUS
10
168.445
20
-132.265
11
168.443
21
-132.27
0
LINE
8
BLACK
6
CONTINUOUS
10
168.443
20
-132.27
11
168.441
21
-132.274
0
LINE
8
BLACK
6
CONTINUOUS
10
168.441
20
-132.274
11
168.438
21
-132.278
0
LINE
8
BLACK
6
CONTINUOUS
10
168.438
20
-132.278
11
168.434
21
-132.281
0
LINE
8
BLACK
6
CONTINUOUS
10
168.434
20
-132.281
11
168.43
21
-132.283
0
LINE
8
BLACK
6
CONTINUOUS
10
168.43
20
-132.283
11
168.425
21
-132.285
0
LINE
8
BLACK
6
CONTINUOUS
10
168.425
20
-132.285
11
168.421
21
-132.285
0
LINE
8
BLACK
6
CONTINUOUS
10
168.421
20
-132.285
11
168.421
21
-132.285
0
LINE
8
BLACK
6
CONTINUOUS
10
168.421
20
-132.285
11
168.42
21
-132.285
0
LINE
8
BLACK
6
CONTINUOUS
10
168.42
20
-132.285
11
168.419
21
-132.285
0
LINE
8
BLACK
6
CONTINUOUS
10
168.419
20
-132.285
11
164.321
21
-132.285
0
LINE
8
BLACK
6
CONTINUOUS
10
164.321
20
-132.285
11
164.32
21
-132.285
0
LINE
8
BLACK
6
CONTINUOUS
10
164.32
20
-132.285
11
164.319
21
-132.285
0
LINE
8
BLACK
6
CONTINUOUS
10
164.319
20
-132.285
11
164.319
21
-132.285
0
LINE
8
BLACK
6
CONTINUOUS
10
164.319
20
-132.285
11
164.315
21
-132.285
0
LINE
8
BLACK
6
CONTINUOUS
10
164.315
20
-132.285
11
164.31
21
-132.283
0
LINE
8
BLACK
6
CONTINUOUS
10
164.31
20
-132.283
11
164.306
21
-132.281
0
LINE
8
BLACK
6
CONTINUOUS
10
164.306
20
-132.281
11
164.302
21
-132.278
0
LINE
8
BLACK
6
CONTINUOUS
10
164.302
20
-132.278
11
164.299
21
-132.274
0
LINE
8
BLACK
6
CONTINUOUS
10
164.299
20
-132.274
11
164.297
21
-132.27
0
LINE
8
BLACK
6
CONTINUOUS
10
164.297
20
-132.27
11
164.295
21
-132.265
0
LINE
8
BLACK
6
CONTINUOUS
10
164.295
20
-132.265
11
164.295
21
-132.26
0
LINE
8
BLACK
6
CONTINUOUS
10
164.295
20
-132.26
11
164.295
21
-132.259
0
LINE
8
BLACK
6
CONTINUOUS
10
164.295
20
-132.259
11
164.295
21
-116.661
0
LINE
8
BLACK
6
CONTINUOUS
10
164.295
20
-116.661
11
164.295
21
-116.66
0
LINE
8
BLACK
6
CONTINUOUS
10
164.295
20
-116.66
11
164.295
21
-116.655
0
LINE
8
BLACK
6
CONTINUOUS
10
164.295
20
-116.655
11
164.297
21
-116.65
0
LINE
8
BLACK
6
CONTINUOUS
10
164.297
20
-116.65
11
164.299
21
-116.646
0
LINE
8
BLACK
6
CONTINUOUS
10
164.299
20
-116.646
11
164.302
21
-116.642
0
LINE
8
BLACK
6
CONTINUOUS
10
164.302
20
-116.642
11
164.306
21
-116.639
0
LINE
8
BLACK
6
CONTINUOUS
10
164.306
20
-116.639
11
164.31
21
-116.637
0
LINE
8
BLACK
6
CONTINUOUS
10
164.31
20
-116.637
11
164.315
21
-116.635
0
LINE
8
BLACK
6
CONTINUOUS
10
164.315
20
-116.635
11
164.319
21
-116.635
0
LINE
8
BLACK
6
CONTINUOUS
10
164.319
20
-116.635
11
164.32
21
-116.635
0
LINE
8
BLACK
6
CONTINUOUS
10
164.32
20
-116.635
11
164.321
21
-116.635
0
LINE
8
BLACK
6
CONTINUOUS
10
164.321
20
-116.635
11
168.419
21
-116.635
0
LINE
8
BLACK
6
CONTINUOUS
10
168.419
20
-116.635
11
168.42
21
-116.635
0
LINE
8
BLACK
6
CONTINUOUS
10
168.42
20
-116.635
11
168.421
21
-116.635
0
LINE
8
BLACK
6
CONTINUOUS
10
164.345
20
-116.685
11
164.345
21
-132.235
0
LINE
8
BLACK
6
CONTINUOUS
10
164.345
20
-132.235
11
168.395
21
-132.235
0
LINE
8
BLACK
6
CONTINUOUS
10
168.395
20
-132.235
11
168.395
21
-116.685
0
LINE
8
BLACK
6
CONTINUOUS
10
168.395
20
-116.685
11
164.345
21
-116.685
0
LINE
8
BLACK
6
CONTINUOUS
10
173.551
20
-118.895
11
173.555
21
-118.895
0
LINE
8
BLACK
6
CONTINUOUS
10
173.555
20
-118.895
11
173.56
21
-118.897
0
LINE
8
BLACK
6
CONTINUOUS
10
173.56
20
-118.897
11
173.564
21
-118.899
0
LINE
8
BLACK
6
CONTINUOUS
10
173.564
20
-118.899
11
173.568
21
-118.902
0
LINE
8
BLACK
6
CONTINUOUS
10
173.568
20
-118.902
11
173.571
21
-118.906
0
LINE
8
BLACK
6
CONTINUOUS
10
173.571
20
-118.906
11
173.573
21
-118.91
0
LINE
8
BLACK
6
CONTINUOUS
10
173.573
20
-118.91
11
173.575
21
-118.915
0
LINE
8
BLACK
6
CONTINUOUS
10
173.575
20
-118.915
11
173.575
21
-118.92
0
LINE
8
BLACK
6
CONTINUOUS
10
173.575
20
-118.92
11
173.575
21
-118.921
0
LINE
8
BLACK
6
CONTINUOUS
10
173.575
20
-118.921
11
173.575
21
-129.919
0
LINE
8
BLACK
6
CONTINUOUS
10
173.575
20
-129.919
11
173.575
21
-129.92
0
LINE
8
BLACK
6
CONTINUOUS
10
173.575
20
-129.92
11
173.575
21
-129.925
0
LINE
8
BLACK
6
CONTINUOUS
10
173.575
20
-129.925
11
173.573
21
-129.93
0
LINE
8
BLACK
6
CONTINUOUS
10
173.573
20
-129.93
11
173.571
21
-129.934
0
LINE
8
BLACK
6
CONTINUOUS
10
173.571
20
-129.934
11
173.568
21
-129.938
0
LINE
8
BLACK
6
CONTINUOUS
10
173.568
20
-129.938
11
173.564
21
-129.941
0
LINE
8
BLACK
6
CONTINUOUS
10
173.564
20
-129.941
11
173.56
21
-129.943
0
LINE
8
BLACK
6
CONTINUOUS
10
173.56
20
-129.943
11
173.555
21
-129.945
0
LINE
8
BLACK
6
CONTINUOUS
10
173.555
20
-129.945
11
173.551
21
-129.945
0
LINE
8
BLACK
6
CONTINUOUS
10
173.551
20
-129.945
11
173.551
21
-129.945
0
LINE
8
BLACK
6
CONTINUOUS
10
173.551
20
-129.945
11
173.55
21
-129.945
0
LINE
8
BLACK
6
CONTINUOUS
10
173.55
20
-129.945
11
173.549
21
-129.945
0
LINE
8
BLACK
6
CONTINUOUS
10
173.549
20
-129.945
11
168.751
21
-129.945
0
LINE
8
BLACK
6
CONTINUOUS
10
168.751
20
-129.945
11
168.75
21
-129.945
0
LINE
8
BLACK
6
CONTINUOUS
10
168.75
20
-129.945
11
168.749
21
-129.945
0
LINE
8
BLACK
6
CONTINUOUS
10
168.749
20
-129.945
11
168.749
21
-129.945
0
LINE
8
BLACK
6
CONTINUOUS
10
168.749
20
-129.945
11
168.745
21
-129.945
0
LINE
8
BLACK
6
CONTINUOUS
10
168.745
20
-129.945
11
168.74
21
-129.943
0
LINE
8
BLACK
6
CONTINUOUS
10
168.74
20
-129.943
11
168.736
21
-129.941
0
LINE
8
BLACK
6
CONTINUOUS
10
168.736
20
-129.941
11
168.732
21
-129.938
0
LINE
8
BLACK
6
CONTINUOUS
10
168.732
20
-129.938
11
168.729
21
-129.934
0
LINE
8
BLACK
6
CONTINUOUS
10
168.729
20
-129.934
11
168.727
21
-129.93
0
LINE
8
BLACK
6
CONTINUOUS
10
168.727
20
-129.93
11
168.725
21
-129.925
0
LINE
8
BLACK
6
CONTINUOUS
10
168.725
20
-129.925
11
168.725
21
-129.92
0
LINE
8
BLACK
6
CONTINUOUS
10
168.725
20
-129.92
11
168.725
21
-129.919
0
LINE
8
BLACK
6
CONTINUOUS
10
168.725
20
-129.919
11
168.725
21
-118.921
0
LINE
8
BLACK
6
CONTINUOUS
10
168.725
20
-118.921
11
168.725
21
-118.92
0
LINE
8
BLACK
6
CONTINUOUS
10
168.725
20
-118.92
11
168.725
21
-118.915
0
LINE
8
BLACK
6
CONTINUOUS
10
168.725
20
-118.915
11
168.727
21
-118.91
0
LINE
8
BLACK
6
CONTINUOUS
10
168.727
20
-118.91
11
168.729
21
-118.906
0
LINE
8
BLACK
6
CONTINUOUS
10
168.729
20
-118.906
11
168.732
21
-118.902
0
LINE
8
BLACK
6
CONTINUOUS
10
168.732
20
-118.902
11
168.736
21
-118.899
0
LINE
8
BLACK
6
CONTINUOUS
10
168.736
20
-118.899
11
168.74
21
-118.897
0
LINE
8
BLACK
6
CONTINUOUS
10
168.74
20
-118.897
11
168.745
21
-118.895
0
LINE
8
BLACK
6
CONTINUOUS
10
168.745
20
-118.895
11
168.749
21
-118.895
0
LINE
8
BLACK
6
CONTINUOUS
10
168.749
20
-118.895
11
168.75
21
-118.895
0
LINE
8
BLACK
6
CONTINUOUS
10
168.75
20
-118.895
11
168.751
21
-118.895
0
LINE
8
BLACK
6
CONTINUOUS
10
168.751
20
-118.895
11
173.549
21
-118.895
0
LINE
8
BLACK
6
CONTINUOUS
10
173.549
20
-118.895
11
173.55
21
-118.895
0
LINE
8
BLACK
6
CONTINUOUS
10
173.55
20
-118.895
11
173.551
21
-118.895
0
LINE
8
BLACK
6
CONTINUOUS
10
168.775
20
-118.945
11
168.775
21
-129.895
0
LINE
8
BLACK
6
CONTINUOUS
10
168.775
20
-129.895
11
173.525
21
-129.895
0
LINE
8
BLACK
6
CONTINUOUS
10
173.525
20
-129.895
11
173.525
21
-118.945
0
LINE
8
BLACK
6
CONTINUOUS
10
173.525
20
-118.945
11
168.775
21
-118.945
0
LINE
8
BLACK
6
CONTINUOUS
10
178.631
20
-118.895
11
178.635
21
-118.895
0
LINE
8
BLACK
6
CONTINUOUS
10
178.635
20
-118.895
11
178.64
21
-118.897
0
LINE
8
BLACK
6
CONTINUOUS
10
178.64
20
-118.897
11
178.644
21
-118.899
0
LINE
8
BLACK
6
CONTINUOUS
10
178.644
20
-118.899
11
178.648
21
-118.902
0
LINE
8
BLACK
6
CONTINUOUS
10
178.648
20
-118.902
11
178.651
21
-118.906
0
LINE
8
BLACK
6
CONTINUOUS
10
178.651
20
-118.906
11
178.653
21
-118.91
0
LINE
8
BLACK
6
CONTINUOUS
10
178.653
20
-118.91
11
178.655
21
-118.915
0
LINE
8
BLACK
6
CONTINUOUS
10
178.655
20
-118.915
11
178.655
21
-118.92
0
LINE
8
BLACK
6
CONTINUOUS
10
178.655
20
-118.92
11
178.655
21
-118.921
0
LINE
8
BLACK
6
CONTINUOUS
10
178.655
20
-118.921
11
178.655
21
-129.919
0
LINE
8
BLACK
6
CONTINUOUS
10
178.655
20
-129.919
11
178.655
21
-129.92
0
LINE
8
BLACK
6
CONTINUOUS
10
178.655
20
-129.92
11
178.655
21
-129.925
0
LINE
8
BLACK
6
CONTINUOUS
10
178.655
20
-129.925
11
178.653
21
-129.93
0
LINE
8
BLACK
6
CONTINUOUS
10
178.653
20
-129.93
11
178.651
21
-129.934
0
LINE
8
BLACK
6
CONTINUOUS
10
178.651
20
-129.934
11
178.648
21
-129.938
0
LINE
8
BLACK
6
CONTINUOUS
10
178.648
20
-129.938
11
178.644
21
-129.941
0
LINE
8
BLACK
6
CONTINUOUS
10
178.644
20
-129.941
11
178.64
21
-129.943
0
LINE
8
BLACK
6
CONTINUOUS
10
178.64
20
-129.943
11
178.635
21
-129.945
0
LINE
8
BLACK
6
CONTINUOUS
10
178.635
20
-129.945
11
178.631
21
-129.945
0
LINE
8
BLACK
6
CONTINUOUS
10
178.631
20
-129.945
11
178.631
21
-129.945
0
LINE
8
BLACK
6
CONTINUOUS
10
178.631
20
-129.945
11
178.63
21
-129.945
0
LINE
8
BLACK
6
CONTINUOUS
10
178.63
20
-129.945
11
178.629
21
-129.945
0
LINE
8
BLACK
6
CONTINUOUS
10
178.629
20
-129.945
11
173.831
21
-129.945
0
LINE
8
BLACK
6
CONTINUOUS
10
173.831
20
-129.945
11
173.83
21
-129.945
0
LINE
8
BLACK
6
CONTINUOUS
10
173.83
20
-129.945
11
173.829
21
-129.945
0
LINE
8
BLACK
6
CONTINUOUS
10
173.829
20
-129.945
11
173.829
21
-129.945
0
LINE
8
BLACK
6
CONTINUOUS
10
173.829
20
-129.945
11
173.825
21
-129.945
0
LINE
8
BLACK
6
CONTINUOUS
10
173.825
20
-129.945
11
173.82
21
-129.943
0
LINE
8
BLACK
6
CONTINUOUS
10
173.82
20
-129.943
11
173.816
21
-129.941
0
LINE
8
BLACK
6
CONTINUOUS
10
173.816
20
-129.941
11
173.812
21
-129.938
0
LINE
8
BLACK
6
CONTINUOUS
10
173.812
20
-129.938
11
173.809
21
-129.934
0
LINE
8
BLACK
6
CONTINUOUS
10
173.809
20
-129.934
11
173.807
21
-129.93
0
LINE
8
BLACK
6
CONTINUOUS
10
173.807
20
-129.93
11
173.805
21
-129.925
0
LINE
8
BLACK
6
CONTINUOUS
10
173.805
20
-129.925
11
173.805
21
-129.92
0
LINE
8
BLACK
6
CONTINUOUS
10
173.805
20
-129.92
11
173.805
21
-129.919
0
LINE
8
BLACK
6
CONTINUOUS
10
173.805
20
-129.919
11
173.805
21
-118.921
0
LINE
8
BLACK
6
CONTINUOUS
10
173.805
20
-118.921
11
173.805
21
-118.92
0
LINE
8
BLACK
6
CONTINUOUS
10
173.805
20
-118.92
11
173.805
21
-118.915
0
LINE
8
BLACK
6
CONTINUOUS
10
173.805
20
-118.915
11
173.807
21
-118.91
0
LINE
8
BLACK
6
CONTINUOUS
10
173.807
20
-118.91
11
173.809
21
-118.906
0
LINE
8
BLACK
6
CONTINUOUS
10
173.809
20
-118.906
11
173.812
21
-118.902
0
LINE
8
BLACK
6
CONTINUOUS
10
173.812
20
-118.902
11
173.816
21
-118.899
0
LINE
8
BLACK
6
CONTINUOUS
10
173.816
20
-118.899
11
173.82
21
-118.897
0
LINE
8
BLACK
6
CONTINUOUS
10
173.82
20
-118.897
11
173.825
21
-118.895
0
LINE
8
BLACK
6
CONTINUOUS
10
173.825
20
-118.895
11
173.829
21
-118.895
0
LINE
8
BLACK
6
CONTINUOUS
10
173.829
20
-118.895
11
173.83
21
-118.895
0
LINE
8
BLACK
6
CONTINUOUS
10
173.83
20
-118.895
11
173.831
21
-118.895
0
LINE
8
BLACK
6
CONTINUOUS
10
173.831
20
-118.895
11
178.629
21
-118.895
0
LINE
8
BLACK
6
CONTINUOUS
10
178.629
20
-118.895
11
178.63
21
-118.895
0
LINE
8
BLACK
6
CONTINUOUS
10
178.63
20
-118.895
11
178.631
21
-118.895
0
LINE
8
BLACK
6
CONTINUOUS
10
173.855
20
-118.945
11
173.855
21
-129.895
0
LINE
8
BLACK
6
CONTINUOUS
10
173.855
20
-129.895
11
178.605
21
-129.895
0
LINE
8
BLACK
6
CONTINUOUS
10
178.605
20
-129.895
11
178.605
21
-118.945
0
LINE
8
BLACK
6
CONTINUOUS
10
178.605
20
-118.945
11
173.855
21
-118.945
0
LINE
8
BLACK
6
CONTINUOUS
10
146.211
20
-115.125
11
146.215
21
-115.125
0
LINE
8
BLACK
6
CONTINUOUS
10
146.215
20
-115.125
11
146.22
21
-115.127
0
LINE
8
BLACK
6
CONTINUOUS
10
146.22
20
-115.127
11
146.224
21
-115.129
0
LINE
8
BLACK
6
CONTINUOUS
10
146.224
20
-115.129
11
146.228
21
-115.132
0
LINE
8
BLACK
6
CONTINUOUS
10
146.228
20
-115.132
11
146.231
21
-115.136
0
LINE
8
BLACK
6
CONTINUOUS
10
146.231
20
-115.136
11
146.233
21
-115.14
0
LINE
8
BLACK
6
CONTINUOUS
10
146.233
20
-115.14
11
146.235
21
-115.145
0
LINE
8
BLACK
6
CONTINUOUS
10
146.235
20
-115.145
11
146.235
21
-115.15
0
LINE
8
BLACK
6
CONTINUOUS
10
146.235
20
-115.15
11
146.235
21
-115.151
0
LINE
8
BLACK
6
CONTINUOUS
10
146.235
20
-115.151
11
146.235
21
-123.649
0
LINE
8
BLACK
6
CONTINUOUS
10
146.235
20
-123.649
11
146.235
21
-123.65
0
LINE
8
BLACK
6
CONTINUOUS
10
146.235
20
-123.65
11
146.235
21
-123.655
0
LINE
8
BLACK
6
CONTINUOUS
10
146.235
20
-123.655
11
146.233
21
-123.66
0
LINE
8
BLACK
6
CONTINUOUS
10
146.233
20
-123.66
11
146.231
21
-123.664
0
LINE
8
BLACK
6
CONTINUOUS
10
146.231
20
-123.664
11
146.228
21
-123.668
0
LINE
8
BLACK
6
CONTINUOUS
10
146.228
20
-123.668
11
146.224
21
-123.671
0
LINE
8
BLACK
6
CONTINUOUS
10
146.224
20
-123.671
11
146.22
21
-123.673
0
LINE
8
BLACK
6
CONTINUOUS
10
146.22
20
-123.673
11
146.215
21
-123.675
0
LINE
8
BLACK
6
CONTINUOUS
10
146.215
20
-123.675
11
146.211
21
-123.675
0
LINE
8
BLACK
6
CONTINUOUS
10
146.211
20
-123.675
11
146.211
21
-123.675
0
LINE
8
BLACK
6
CONTINUOUS
10
146.211
20
-123.675
11
146.21
21
-123.675
0
LINE
8
BLACK
6
CONTINUOUS
10
146.21
20
-123.675
11
146.209
21
-123.675
0
LINE
8
BLACK
6
CONTINUOUS
10
146.209
20
-123.675
11
141.411
21
-123.675
0
LINE
8
BLACK
6
CONTINUOUS
10
141.411
20
-123.675
11
141.41
21
-123.675
0
LINE
8
BLACK
6
CONTINUOUS
10
141.41
20
-123.675
11
141.409
21
-123.675
0
LINE
8
BLACK
6
CONTINUOUS
10
141.409
20
-123.675
11
141.409
21
-123.675
0
LINE
8
BLACK
6
CONTINUOUS
10
141.409
20
-123.675
11
141.405
21
-123.675
0
LINE
8
BLACK
6
CONTINUOUS
10
141.405
20
-123.675
11
141.4
21
-123.673
0
LINE
8
BLACK
6
CONTINUOUS
10
141.4
20
-123.673
11
141.396
21
-123.671
0
LINE
8
BLACK
6
CONTINUOUS
10
141.396
20
-123.671
11
141.392
21
-123.668
0
LINE
8
BLACK
6
CONTINUOUS
10
141.392
20
-123.668
11
141.389
21
-123.664
0
LINE
8
BLACK
6
CONTINUOUS
10
141.389
20
-123.664
11
141.387
21
-123.66
0
LINE
8
BLACK
6
CONTINUOUS
10
141.387
20
-123.66
11
141.385
21
-123.655
0
LINE
8
BLACK
6
CONTINUOUS
10
141.385
20
-123.655
11
141.385
21
-123.65
0
LINE
8
BLACK
6
CONTINUOUS
10
141.385
20
-123.65
11
141.385
21
-123.649
0
LINE
8
BLACK
6
CONTINUOUS
10
141.385
20
-123.649
11
141.385
21
-115.151
0
LINE
8
BLACK
6
CONTINUOUS
10
141.385
20
-115.151
11
141.385
21
-115.15
0
LINE
8
BLACK
6
CONTINUOUS
10
141.385
20
-115.15
11
141.385
21
-115.145
0
LINE
8
BLACK
6
CONTINUOUS
10
141.385
20
-115.145
11
141.387
21
-115.14
0
LINE
8
BLACK
6
CONTINUOUS
10
141.387
20
-115.14
11
141.389
21
-115.136
0
LINE
8
BLACK
6
CONTINUOUS
10
141.389
20
-115.136
11
141.392
21
-115.132
0
LINE
8
BLACK
6
CONTINUOUS
10
141.392
20
-115.132
11
141.396
21
-115.129
0
LINE
8
BLACK
6
CONTINUOUS
10
141.396
20
-115.129
11
141.4
21
-115.127
0
LINE
8
BLACK
6
CONTINUOUS
10
141.4
20
-115.127
11
141.405
21
-115.125
0
LINE
8
BLACK
6
CONTINUOUS
10
141.405
20
-115.125
11
141.409
21
-115.125
0
LINE
8
BLACK
6
CONTINUOUS
10
141.409
20
-115.125
11
141.41
21
-115.125
0
LINE
8
BLACK
6
CONTINUOUS
10
141.41
20
-115.125
11
141.411
21
-115.125
0
LINE
8
BLACK
6
CONTINUOUS
10
141.411
20
-115.125
11
146.209
21
-115.125
0
LINE
8
BLACK
6
CONTINUOUS
10
146.209
20
-115.125
11
146.21
21
-115.125
0
LINE
8
BLACK
6
CONTINUOUS
10
146.21
20
-115.125
11
146.211
21
-115.125
0
LINE
8
BLACK
6
CONTINUOUS
10
141.435
20
-115.175
11
141.435
21
-123.625
0
LINE
8
BLACK
6
CONTINUOUS
10
141.435
20
-123.625
11
146.185
21
-123.625
0
LINE
8
BLACK
6
CONTINUOUS
10
146.185
20
-123.625
11
146.185
21
-115.175
0
LINE
8
BLACK
6
CONTINUOUS
10
146.185
20
-115.175
11
141.435
21
-115.175
0
LINE
8
BLACK
6
CONTINUOUS
10
171.611
20
-92.305
11
171.615
21
-92.3054
0
LINE
8
BLACK
6
CONTINUOUS
10
171.615
20
-92.3054
11
171.62
21
-92.3068
0
LINE
8
BLACK
6
CONTINUOUS
10
171.62
20
-92.3068
11
171.624
21
-92.3091
0
LINE
8
BLACK
6
CONTINUOUS
10
171.624
20
-92.3091
11
171.628
21
-92.3122
0
LINE
8
BLACK
6
CONTINUOUS
10
171.628
20
-92.3122
11
171.631
21
-92.316
0
LINE
8
BLACK
6
CONTINUOUS
10
171.631
20
-92.316
11
171.633
21
-92.3204
0
LINE
8
BLACK
6
CONTINUOUS
10
171.633
20
-92.3204
11
171.635
21
-92.3251
0
LINE
8
BLACK
6
CONTINUOUS
10
171.635
20
-92.3251
11
171.635
21
-92.33
0
LINE
8
BLACK
6
CONTINUOUS
10
171.635
20
-92.33
11
171.635
21
-92.3312
0
LINE
8
BLACK
6
CONTINUOUS
10
171.635
20
-92.3312
11
171.635
21
-103.329
0
LINE
8
BLACK
6
CONTINUOUS
10
171.635
20
-103.329
11
171.635
21
-103.33
0
LINE
8
BLACK
6
CONTINUOUS
10
171.635
20
-103.33
11
171.635
21
-103.335
0
LINE
8
BLACK
6
CONTINUOUS
10
171.635
20
-103.335
11
171.633
21
-103.34
0
LINE
8
BLACK
6
CONTINUOUS
10
171.633
20
-103.34
11
171.631
21
-103.344
0
LINE
8
BLACK
6
CONTINUOUS
10
171.631
20
-103.344
11
171.628
21
-103.348
0
LINE
8
BLACK
6
CONTINUOUS
10
171.628
20
-103.348
11
171.624
21
-103.351
0
LINE
8
BLACK
6
CONTINUOUS
10
171.624
20
-103.351
11
171.62
21
-103.353
0
LINE
8
BLACK
6
CONTINUOUS
10
171.62
20
-103.353
11
171.615
21
-103.355
0
LINE
8
BLACK
6
CONTINUOUS
10
171.615
20
-103.355
11
171.611
21
-103.355
0
LINE
8
BLACK
6
CONTINUOUS
10
171.611
20
-103.355
11
171.611
21
-103.355
0
LINE
8
BLACK
6
CONTINUOUS
10
171.611
20
-103.355
11
171.61
21
-103.355
0
LINE
8
BLACK
6
CONTINUOUS
10
171.61
20
-103.355
11
171.609
21
-103.355
0
LINE
8
BLACK
6
CONTINUOUS
10
171.609
20
-103.355
11
166.811
21
-103.355
0
LINE
8
BLACK
6
CONTINUOUS
10
166.811
20
-103.355
11
166.81
21
-103.355
0
LINE
8
BLACK
6
CONTINUOUS
10
166.81
20
-103.355
11
166.809
21
-103.355
0
LINE
8
BLACK
6
CONTINUOUS
10
166.809
20
-103.355
11
166.809
21
-103.355
0
LINE
8
BLACK
6
CONTINUOUS
10
166.809
20
-103.355
11
166.805
21
-103.355
0
LINE
8
BLACK
6
CONTINUOUS
10
166.805
20
-103.355
11
166.8
21
-103.353
0
LINE
8
BLACK
6
CONTINUOUS
10
166.8
20
-103.353
11
166.796
21
-103.351
0
LINE
8
BLACK
6
CONTINUOUS
10
166.796
20
-103.351
11
166.792
21
-103.348
0
LINE
8
BLACK
6
CONTINUOUS
10
166.792
20
-103.348
11
166.789
21
-103.344
0
LINE
8
BLACK
6
CONTINUOUS
10
166.789
20
-103.344
11
166.787
21
-103.34
0
LINE
8
BLACK
6
CONTINUOUS
10
166.787
20
-103.34
11
166.785
21
-103.335
0
LINE
8
BLACK
6
CONTINUOUS
10
166.785
20
-103.335
11
166.785
21
-103.33
0
LINE
8
BLACK
6
CONTINUOUS
10
166.785
20
-103.33
11
166.785
21
-103.329
0
LINE
8
BLACK
6
CONTINUOUS
10
166.785
20
-103.329
11
166.785
21
-92.3312
0
LINE
8
BLACK
6
CONTINUOUS
10
166.785
20
-92.3312
11
166.785
21
-92.33
0
LINE
8
BLACK
6
CONTINUOUS
10
166.785
20
-92.33
11
166.785
21
-92.3251
0
LINE
8
BLACK
6
CONTINUOUS
10
166.785
20
-92.3251
11
166.787
21
-92.3204
0
LINE
8
BLACK
6
CONTINUOUS
10
166.787
20
-92.3204
11
166.789
21
-92.316
0
LINE
8
BLACK
6
CONTINUOUS
10
166.789
20
-92.316
11
166.792
21
-92.3122
0
LINE
8
BLACK
6
CONTINUOUS
10
166.792
20
-92.3122
11
166.796
21
-92.3091
0
LINE
8
BLACK
6
CONTINUOUS
10
166.796
20
-92.3091
11
166.8
21
-92.3068
0
LINE
8
BLACK
6
CONTINUOUS
10
166.8
20
-92.3068
11
166.805
21
-92.3054
0
LINE
8
BLACK
6
CONTINUOUS
10
166.805
20
-92.3054
11
166.809
21
-92.305
0
LINE
8
BLACK
6
CONTINUOUS
10
166.809
20
-92.305
11
166.81
21
-92.3049
0
LINE
8
BLACK
6
CONTINUOUS
10
166.81
20
-92.3049
11
166.811
21
-92.305
0
LINE
8
BLACK
6
CONTINUOUS
10
166.811
20
-92.305
11
171.609
21
-92.305
0
LINE
8
BLACK
6
CONTINUOUS
10
171.609
20
-92.305
11
171.61
21
-92.3049
0
LINE
8
BLACK
6
CONTINUOUS
10
171.61
20
-92.3049
11
171.611
21
-92.305
0
LINE
8
BLACK
6
CONTINUOUS
10
166.835
20
-92.355
11
166.835
21
-103.305
0
LINE
8
BLACK
6
CONTINUOUS
10
166.835
20
-103.305
11
171.585
21
-103.305
0
LINE
8
BLACK
6
CONTINUOUS
10
171.585
20
-103.305
11
171.585
21
-92.355
0
LINE
8
BLACK
6
CONTINUOUS
10
171.585
20
-92.355
11
166.835
21
-92.355
0
LINE
8
BLACK
6
CONTINUOUS
10
185.611
20
-92.515
11
185.611
21
-92.515
0
LINE
8
BLACK
6
CONTINUOUS
10
185.611
20
-92.515
11
185.615
21
-92.5154
0
LINE
8
BLACK
6
CONTINUOUS
10
185.615
20
-92.5154
11
185.62
21
-92.5168
0
LINE
8
BLACK
6
CONTINUOUS
10
185.62
20
-92.5168
11
185.624
21
-92.5191
0
LINE
8
BLACK
6
CONTINUOUS
10
185.624
20
-92.5191
11
185.628
21
-92.5222
0
LINE
8
BLACK
6
CONTINUOUS
10
185.628
20
-92.5222
11
185.631
21
-92.526
0
LINE
8
BLACK
6
CONTINUOUS
10
185.631
20
-92.526
11
185.633
21
-92.5304
0
LINE
8
BLACK
6
CONTINUOUS
10
185.633
20
-92.5304
11
185.635
21
-92.5351
0
LINE
8
BLACK
6
CONTINUOUS
10
185.635
20
-92.5351
11
185.635
21
-92.54
0
LINE
8
BLACK
6
CONTINUOUS
10
185.635
20
-92.54
11
185.635
21
-92.5412
0
LINE
8
BLACK
6
CONTINUOUS
10
185.635
20
-92.5412
11
185.635
21
-103.039
0
LINE
8
BLACK
6
CONTINUOUS
10
185.635
20
-103.039
11
185.635
21
-103.04
0
LINE
8
BLACK
6
CONTINUOUS
10
185.635
20
-103.04
11
185.635
21
-103.041
0
LINE
8
BLACK
6
CONTINUOUS
10
185.635
20
-103.041
11
185.635
21
-103.041
0
LINE
8
BLACK
6
CONTINUOUS
10
185.635
20
-103.041
11
185.635
21
-103.045
0
LINE
8
BLACK
6
CONTINUOUS
10
185.635
20
-103.045
11
185.633
21
-103.05
0
LINE
8
BLACK
6
CONTINUOUS
10
185.633
20
-103.05
11
185.631
21
-103.054
0
LINE
8
BLACK
6
CONTINUOUS
10
185.631
20
-103.054
11
185.628
21
-103.058
0
LINE
8
BLACK
6
CONTINUOUS
10
185.628
20
-103.058
11
185.624
21
-103.061
0
LINE
8
BLACK
6
CONTINUOUS
10
185.624
20
-103.061
11
185.62
21
-103.063
0
LINE
8
BLACK
6
CONTINUOUS
10
185.62
20
-103.063
11
185.615
21
-103.065
0
LINE
8
BLACK
6
CONTINUOUS
10
185.615
20
-103.065
11
185.61
21
-103.065
0
LINE
8
BLACK
6
CONTINUOUS
10
185.61
20
-103.065
11
185.609
21
-103.065
0
LINE
8
BLACK
6
CONTINUOUS
10
185.609
20
-103.065
11
177.611
21
-103.065
0
LINE
8
BLACK
6
CONTINUOUS
10
177.611
20
-103.065
11
177.61
21
-103.065
0
LINE
8
BLACK
6
CONTINUOUS
10
177.61
20
-103.065
11
177.605
21
-103.065
0
LINE
8
BLACK
6
CONTINUOUS
10
177.605
20
-103.065
11
177.6
21
-103.063
0
LINE
8
BLACK
6
CONTINUOUS
10
177.6
20
-103.063
11
177.596
21
-103.061
0
LINE
8
BLACK
6
CONTINUOUS
10
177.596
20
-103.061
11
177.592
21
-103.058
0
LINE
8
BLACK
6
CONTINUOUS
10
177.592
20
-103.058
11
177.589
21
-103.054
0
LINE
8
BLACK
6
CONTINUOUS
10
177.589
20
-103.054
11
177.587
21
-103.05
0
LINE
8
BLACK
6
CONTINUOUS
10
177.587
20
-103.05
11
177.585
21
-103.045
0
LINE
8
BLACK
6
CONTINUOUS
10
177.585
20
-103.045
11
177.585
21
-103.04
0
LINE
8
BLACK
6
CONTINUOUS
10
177.585
20
-103.04
11
177.585
21
-103.039
0
LINE
8
BLACK
6
CONTINUOUS
10
177.585
20
-103.039
11
177.585
21
-92.5412
0
LINE
8
BLACK
6
CONTINUOUS
10
177.585
20
-92.5412
11
177.585
21
-92.54
0
LINE
8
BLACK
6
CONTINUOUS
10
177.585
20
-92.54
11
177.585
21
-92.5351
0
LINE
8
BLACK
6
CONTINUOUS
10
177.585
20
-92.5351
11
177.587
21
-92.5304
0
LINE
8
BLACK
6
CONTINUOUS
10
177.587
20
-92.5304
11
177.589
21
-92.526
0
LINE
8
BLACK
6
CONTINUOUS
10
177.589
20
-92.526
11
177.592
21
-92.5222
0
LINE
8
BLACK
6
CONTINUOUS
10
177.592
20
-92.5222
11
177.596
21
-92.5191
0
LINE
8
BLACK
6
CONTINUOUS
10
177.596
20
-92.5191
11
177.6
21
-92.5168
0
LINE
8
BLACK
6
CONTINUOUS
10
177.6
20
-92.5168
11
177.605
21
-92.5154
0
LINE
8
BLACK
6
CONTINUOUS
10
177.605
20
-92.5154
11
177.609
21
-92.515
0
LINE
8
BLACK
6
CONTINUOUS
10
177.609
20
-92.515
11
177.609
21
-92.515
0
LINE
8
BLACK
6
CONTINUOUS
10
177.609
20
-92.515
11
177.61
21
-92.5149
0
LINE
8
BLACK
6
CONTINUOUS
10
177.61
20
-92.5149
11
177.611
21
-92.515
0
LINE
8
BLACK
6
CONTINUOUS
10
177.611
20
-92.515
11
185.609
21
-92.515
0
LINE
8
BLACK
6
CONTINUOUS
10
185.609
20
-92.515
11
185.61
21
-92.5149
0
LINE
8
BLACK
6
CONTINUOUS
10
185.61
20
-92.5149
11
185.611
21
-92.515
0
LINE
8
BLACK
6
CONTINUOUS
10
177.635
20
-92.565
11
177.635
21
-103.015
0
LINE
8
BLACK
6
CONTINUOUS
10
177.635
20
-103.015
11
185.585
21
-103.015
0
LINE
8
BLACK
6
CONTINUOUS
10
185.585
20
-103.015
11
185.585
21
-92.565
0
LINE
8
BLACK
6
CONTINUOUS
10
185.585
20
-92.565
11
177.635
21
-92.565
0
LINE
8
BLACK
6
CONTINUOUS
10
163.091
20
-75.645
11
163.095
21
-75.6454
0
LINE
8
BLACK
6
CONTINUOUS
10
163.095
20
-75.6454
11
163.1
21
-75.6468
0
LINE
8
BLACK
6
CONTINUOUS
10
163.1
20
-75.6468
11
163.104
21
-75.6491
0
LINE
8
BLACK
6
CONTINUOUS
10
163.104
20
-75.6491
11
163.108
21
-75.6522
0
LINE
8
BLACK
6
CONTINUOUS
10
163.108
20
-75.6522
11
163.111
21
-75.656
0
LINE
8
BLACK
6
CONTINUOUS
10
163.111
20
-75.656
11
163.113
21
-75.6604
0
LINE
8
BLACK
6
CONTINUOUS
10
163.113
20
-75.6604
11
163.115
21
-75.6651
0
LINE
8
BLACK
6
CONTINUOUS
10
163.115
20
-75.6651
11
163.115
21
-75.67
0
LINE
8
BLACK
6
CONTINUOUS
10
163.115
20
-75.67
11
163.115
21
-75.6712
0
LINE
8
BLACK
6
CONTINUOUS
10
163.115
20
-75.6712
11
163.115
21
-88.0188
0
LINE
8
BLACK
6
CONTINUOUS
10
163.115
20
-88.0188
11
163.115
21
-88.02
0
LINE
8
BLACK
6
CONTINUOUS
10
163.115
20
-88.02
11
163.115
21
-88.0249
0
LINE
8
BLACK
6
CONTINUOUS
10
163.115
20
-88.0249
11
163.113
21
-88.0296
0
LINE
8
BLACK
6
CONTINUOUS
10
163.113
20
-88.0296
11
163.111
21
-88.034
0
LINE
8
BLACK
6
CONTINUOUS
10
163.111
20
-88.034
11
163.108
21
-88.0378
0
LINE
8
BLACK
6
CONTINUOUS
10
163.108
20
-88.0378
11
163.104
21
-88.0409
0
LINE
8
BLACK
6
CONTINUOUS
10
163.104
20
-88.0409
11
163.1
21
-88.0432
0
LINE
8
BLACK
6
CONTINUOUS
10
163.1
20
-88.0432
11
163.095
21
-88.0446
0
LINE
8
BLACK
6
CONTINUOUS
10
163.095
20
-88.0446
11
163.091
21
-88.045
0
LINE
8
BLACK
6
CONTINUOUS
10
163.091
20
-88.045
11
163.091
21
-88.045
0
LINE
8
BLACK
6
CONTINUOUS
10
163.091
20
-88.045
11
163.09
21
-88.0451
0
LINE
8
BLACK
6
CONTINUOUS
10
163.09
20
-88.0451
11
163.089
21
-88.045
0
LINE
8
BLACK
6
CONTINUOUS
10
163.089
20
-88.045
11
151.891
21
-88.045
0
LINE
8
BLACK
6
CONTINUOUS
10
151.891
20
-88.045
11
151.89
21
-88.0451
0
LINE
8
BLACK
6
CONTINUOUS
10
151.89
20
-88.0451
11
151.889
21
-88.045
0
LINE
8
BLACK
6
CONTINUOUS
10
151.889
20
-88.045
11
151.889
21
-88.045
0
LINE
8
BLACK
6
CONTINUOUS
10
151.889
20
-88.045
11
151.885
21
-88.0446
0
LINE
8
BLACK
6
CONTINUOUS
10
151.885
20
-88.0446
11
151.88
21
-88.0432
0
LINE
8
BLACK
6
CONTINUOUS
10
151.88
20
-88.0432
11
151.876
21
-88.0409
0
LINE
8
BLACK
6
CONTINUOUS
10
151.876
20
-88.0409
11
151.872
21
-88.0378
0
LINE
8
BLACK
6
CONTINUOUS
10
151.872
20
-88.0378
11
151.869
21
-88.034
0
LINE
8
BLACK
6
CONTINUOUS
10
151.869
20
-88.034
11
151.867
21
-88.0296
0
LINE
8
BLACK
6
CONTINUOUS
10
151.867
20
-88.0296
11
151.865
21
-88.0249
0
LINE
8
BLACK
6
CONTINUOUS
10
151.865
20
-88.0249
11
151.865
21
-88.02
0
LINE
8
BLACK
6
CONTINUOUS
10
151.865
20
-88.02
11
151.865
21
-88.0188
0
LINE
8
BLACK
6
CONTINUOUS
10
151.865
20
-88.0188
11
151.865
21
-75.6712
0
LINE
8
BLACK
6
CONTINUOUS
10
151.865
20
-75.6712
11
151.865
21
-75.67
0
LINE
8
BLACK
6
CONTINUOUS
10
151.865
20
-75.67
11
151.865
21
-75.6651
0
LINE
8
BLACK
6
CONTINUOUS
10
151.865
20
-75.6651
11
151.867
21
-75.6604
0
LINE
8
BLACK
6
CONTINUOUS
10
151.867
20
-75.6604
11
151.869
21
-75.656
0
LINE
8
BLACK
6
CONTINUOUS
10
151.869
20
-75.656
11
151.872
21
-75.6522
0
LINE
8
BLACK
6
CONTINUOUS
10
151.872
20
-75.6522
11
151.876
21
-75.6491
0
LINE
8
BLACK
6
CONTINUOUS
10
151.876
20
-75.6491
11
151.88
21
-75.6468
0
LINE
8
BLACK
6
CONTINUOUS
10
151.88
20
-75.6468
11
151.885
21
-75.6454
0
LINE
8
BLACK
6
CONTINUOUS
10
151.885
20
-75.6454
11
151.889
21
-75.645
0
LINE
8
BLACK
6
CONTINUOUS
10
151.889
20
-75.645
11
151.89
21
-75.6449
0
LINE
8
BLACK
6
CONTINUOUS
10
151.89
20
-75.6449
11
151.891
21
-75.645
0
LINE
8
BLACK
6
CONTINUOUS
10
151.891
20
-75.645
11
163.089
21
-75.645
0
LINE
8
BLACK
6
CONTINUOUS
10
163.089
20
-75.645
11
163.09
21
-75.6449
0
LINE
8
BLACK
6
CONTINUOUS
10
163.09
20
-75.6449
11
163.091
21
-75.645
0
LINE
8
BLACK
6
CONTINUOUS
10
151.915
20
-75.695
11
151.915
21
-87.995
0
LINE
8
BLACK
6
CONTINUOUS
10
151.915
20
-87.995
11
163.065
21
-87.995
0
LINE
8
BLACK
6
CONTINUOUS
10
163.065
20
-87.995
11
163.065
21
-75.695
0
LINE
8
BLACK
6
CONTINUOUS
10
163.065
20
-75.695
11
151.915
21
-75.695
0
LINE
8
BLACK
6
CONTINUOUS
10
168.471
20
-66.865
11
168.475
21
-66.8654
0
LINE
8
BLACK
6
CONTINUOUS
10
168.475
20
-66.8654
11
168.48
21
-66.8668
0
LINE
8
BLACK
6
CONTINUOUS
10
168.48
20
-66.8668
11
168.484
21
-66.8691
0
LINE
8
BLACK
6
CONTINUOUS
10
168.484
20
-66.8691
11
168.488
21
-66.8722
0
LINE
8
BLACK
6
CONTINUOUS
10
168.488
20
-66.8722
11
168.491
21
-66.876
0
LINE
8
BLACK
6
CONTINUOUS
10
168.491
20
-66.876
11
168.493
21
-66.8804
0
LINE
8
BLACK
6
CONTINUOUS
10
168.493
20
-66.8804
11
168.495
21
-66.8851
0
LINE
8
BLACK
6
CONTINUOUS
10
168.495
20
-66.8851
11
168.495
21
-66.89
0
LINE
8
BLACK
6
CONTINUOUS
10
168.495
20
-66.89
11
168.495
21
-66.8912
0
LINE
8
BLACK
6
CONTINUOUS
10
168.495
20
-66.8912
11
168.495
21
-75.3888
0
LINE
8
BLACK
6
CONTINUOUS
10
168.495
20
-75.3888
11
168.495
21
-75.39
0
LINE
8
BLACK
6
CONTINUOUS
10
168.495
20
-75.39
11
168.495
21
-75.3949
0
LINE
8
BLACK
6
CONTINUOUS
10
168.495
20
-75.3949
11
168.493
21
-75.3996
0
LINE
8
BLACK
6
CONTINUOUS
10
168.493
20
-75.3996
11
168.491
21
-75.404
0
LINE
8
BLACK
6
CONTINUOUS
10
168.491
20
-75.404
11
168.488
21
-75.4078
0
LINE
8
BLACK
6
CONTINUOUS
10
168.488
20
-75.4078
11
168.484
21
-75.4109
0
LINE
8
BLACK
6
CONTINUOUS
10
168.484
20
-75.4109
11
168.48
21
-75.4132
0
LINE
8
BLACK
6
CONTINUOUS
10
168.48
20
-75.4132
11
168.475
21
-75.4146
0
LINE
8
BLACK
6
CONTINUOUS
10
168.475
20
-75.4146
11
168.471
21
-75.415
0
LINE
8
BLACK
6
CONTINUOUS
10
168.471
20
-75.415
11
168.471
21
-75.415
0
LINE
8
BLACK
6
CONTINUOUS
10
168.471
20
-75.415
11
168.47
21
-75.4151
0
LINE
8
BLACK
6
CONTINUOUS
10
168.47
20
-75.4151
11
168.469
21
-75.415
0
LINE
8
BLACK
6
CONTINUOUS
10
168.469
20
-75.415
11
163.671
21
-75.415
0
LINE
8
BLACK
6
CONTINUOUS
10
163.671
20
-75.415
11
163.67
21
-75.4151
0
LINE
8
BLACK
6
CONTINUOUS
10
163.67
20
-75.4151
11
163.669
21
-75.415
0
LINE
8
BLACK
6
CONTINUOUS
10
163.669
20
-75.415
11
163.669
21
-75.415
0
LINE
8
BLACK
6
CONTINUOUS
10
163.669
20
-75.415
11
163.665
21
-75.4146
0
LINE
8
BLACK
6
CONTINUOUS
10
163.665
20
-75.4146
11
163.66
21
-75.4132
0
LINE
8
BLACK
6
CONTINUOUS
10
163.66
20
-75.4132
11
163.656
21
-75.4109
0
LINE
8
BLACK
6
CONTINUOUS
10
163.656
20
-75.4109
11
163.652
21
-75.4078
0
LINE
8
BLACK
6
CONTINUOUS
10
163.652
20
-75.4078
11
163.649
21
-75.404
0
LINE
8
BLACK
6
CONTINUOUS
10
163.649
20
-75.404
11
163.647
21
-75.3996
0
LINE
8
BLACK
6
CONTINUOUS
10
163.647
20
-75.3996
11
163.645
21
-75.3949
0
LINE
8
BLACK
6
CONTINUOUS
10
163.645
20
-75.3949
11
163.645
21
-75.39
0
LINE
8
BLACK
6
CONTINUOUS
10
163.645
20
-75.39
11
163.645
21
-75.3888
0
LINE
8
BLACK
6
CONTINUOUS
10
163.645
20
-75.3888
11
163.645
21
-66.8912
0
LINE
8
BLACK
6
CONTINUOUS
10
163.645
20
-66.8912
11
163.645
21
-66.89
0
LINE
8
BLACK
6
CONTINUOUS
10
163.645
20
-66.89
11
163.645
21
-66.8851
0
LINE
8
BLACK
6
CONTINUOUS
10
163.645
20
-66.8851
11
163.647
21
-66.8804
0
LINE
8
BLACK
6
CONTINUOUS
10
163.647
20
-66.8804
11
163.649
21
-66.876
0
LINE
8
BLACK
6
CONTINUOUS
10
163.649
20
-66.876
11
163.652
21
-66.8722
0
LINE
8
BLACK
6
CONTINUOUS
10
163.652
20
-66.8722
11
163.656
21
-66.8691
0
LINE
8
BLACK
6
CONTINUOUS
10
163.656
20
-66.8691
11
163.66
21
-66.8668
0
LINE
8
BLACK
6
CONTINUOUS
10
163.66
20
-66.8668
11
163.665
21
-66.8654
0
LINE
8
BLACK
6
CONTINUOUS
10
163.665
20
-66.8654
11
163.669
21
-66.865
0
LINE
8
BLACK
6
CONTINUOUS
10
163.669
20
-66.865
11
163.67
21
-66.8649
0
LINE
8
BLACK
6
CONTINUOUS
10
163.67
20
-66.8649
11
163.671
21
-66.865
0
LINE
8
BLACK
6
CONTINUOUS
10
163.671
20
-66.865
11
168.469
21
-66.865
0
LINE
8
BLACK
6
CONTINUOUS
10
168.469
20
-66.865
11
168.47
21
-66.8649
0
LINE
8
BLACK
6
CONTINUOUS
10
168.47
20
-66.8649
11
168.471
21
-66.865
0
LINE
8
BLACK
6
CONTINUOUS
10
163.695
20
-66.915
11
163.695
21
-75.365
0
LINE
8
BLACK
6
CONTINUOUS
10
163.695
20
-75.365
11
168.445
21
-75.365
0
LINE
8
BLACK
6
CONTINUOUS
10
168.445
20
-75.365
11
168.445
21
-66.915
0
LINE
8
BLACK
6
CONTINUOUS
10
168.445
20
-66.915
11
163.695
21
-66.915
0
LINE
8
BLACK
6
CONTINUOUS
10
183.041
20
-66.865
11
183.045
21
-66.8654
0
LINE
8
BLACK
6
CONTINUOUS
10
183.045
20
-66.8654
11
183.05
21
-66.8668
0
LINE
8
BLACK
6
CONTINUOUS
10
183.05
20
-66.8668
11
183.054
21
-66.8691
0
LINE
8
BLACK
6
CONTINUOUS
10
183.054
20
-66.8691
11
183.058
21
-66.8722
0
LINE
8
BLACK
6
CONTINUOUS
10
183.058
20
-66.8722
11
183.061
21
-66.876
0
LINE
8
BLACK
6
CONTINUOUS
10
183.061
20
-66.876
11
183.063
21
-66.8804
0
LINE
8
BLACK
6
CONTINUOUS
10
183.063
20
-66.8804
11
183.065
21
-66.8851
0
LINE
8
BLACK
6
CONTINUOUS
10
183.065
20
-66.8851
11
183.065
21
-66.89
0
LINE
8
BLACK
6
CONTINUOUS
10
183.065
20
-66.89
11
183.065
21
-66.8912
0
LINE
8
BLACK
6
CONTINUOUS
10
183.065
20
-66.8912
11
183.065
21
-75.3888
0
LINE
8
BLACK
6
CONTINUOUS
10
183.065
20
-75.3888
11
183.065
21
-75.39
0
LINE
8
BLACK
6
CONTINUOUS
10
183.065
20
-75.39
11
183.065
21
-75.3949
0
LINE
8
BLACK
6
CONTINUOUS
10
183.065
20
-75.3949
11
183.063
21
-75.3996
0
LINE
8
BLACK
6
CONTINUOUS
10
183.063
20
-75.3996
11
183.061
21
-75.404
0
LINE
8
BLACK
6
CONTINUOUS
10
183.061
20
-75.404
11
183.058
21
-75.4078
0
LINE
8
BLACK
6
CONTINUOUS
10
183.058
20
-75.4078
11
183.054
21
-75.4109
0
LINE
8
BLACK
6
CONTINUOUS
10
183.054
20
-75.4109
11
183.05
21
-75.4132
0
LINE
8
BLACK
6
CONTINUOUS
10
183.05
20
-75.4132
11
183.045
21
-75.4146
0
LINE
8
BLACK
6
CONTINUOUS
10
183.045
20
-75.4146
11
183.041
21
-75.415
0
LINE
8
BLACK
6
CONTINUOUS
10
183.041
20
-75.415
11
183.041
21
-75.415
0
LINE
8
BLACK
6
CONTINUOUS
10
183.041
20
-75.415
11
183.04
21
-75.4151
0
LINE
8
BLACK
6
CONTINUOUS
10
183.04
20
-75.4151
11
183.039
21
-75.415
0
LINE
8
BLACK
6
CONTINUOUS
10
183.039
20
-75.415
11
178.241
21
-75.415
0
LINE
8
BLACK
6
CONTINUOUS
10
178.241
20
-75.415
11
178.24
21
-75.4151
0
LINE
8
BLACK
6
CONTINUOUS
10
178.24
20
-75.4151
11
178.239
21
-75.415
0
LINE
8
BLACK
6
CONTINUOUS
10
178.239
20
-75.415
11
178.239
21
-75.415
0
LINE
8
BLACK
6
CONTINUOUS
10
178.239
20
-75.415
11
178.235
21
-75.4146
0
LINE
8
BLACK
6
CONTINUOUS
10
178.235
20
-75.4146
11
178.23
21
-75.4132
0
LINE
8
BLACK
6
CONTINUOUS
10
178.23
20
-75.4132
11
178.226
21
-75.4109
0
LINE
8
BLACK
6
CONTINUOUS
10
178.226
20
-75.4109
11
178.222
21
-75.4078
0
LINE
8
BLACK
6
CONTINUOUS
10
178.222
20
-75.4078
11
178.219
21
-75.404
0
LINE
8
BLACK
6
CONTINUOUS
10
178.219
20
-75.404
11
178.217
21
-75.3996
0
LINE
8
BLACK
6
CONTINUOUS
10
178.217
20
-75.3996
11
178.215
21
-75.3949
0
LINE
8
BLACK
6
CONTINUOUS
10
178.215
20
-75.3949
11
178.215
21
-75.39
0
LINE
8
BLACK
6
CONTINUOUS
10
178.215
20
-75.39
11
178.215
21
-75.3888
0
LINE
8
BLACK
6
CONTINUOUS
10
178.215
20
-75.3888
11
178.215
21
-66.8912
0
LINE
8
BLACK
6
CONTINUOUS
10
178.215
20
-66.8912
11
178.215
21
-66.89
0
LINE
8
BLACK
6
CONTINUOUS
10
178.215
20
-66.89
11
178.215
21
-66.8851
0
LINE
8
BLACK
6
CONTINUOUS
10
178.215
20
-66.8851
11
178.217
21
-66.8804
0
LINE
8
BLACK
6
CONTINUOUS
10
178.217
20
-66.8804
11
178.219
21
-66.876
0
LINE
8
BLACK
6
CONTINUOUS
10
178.219
20
-66.876
11
178.222
21
-66.8722
0
LINE
8
BLACK
6
CONTINUOUS
10
178.222
20
-66.8722
11
178.226
21
-66.8691
0
LINE
8
BLACK
6
CONTINUOUS
10
178.226
20
-66.8691
11
178.23
21
-66.8668
0
LINE
8
BLACK
6
CONTINUOUS
10
178.23
20
-66.8668
11
178.235
21
-66.8654
0
LINE
8
BLACK
6
CONTINUOUS
10
178.235
20
-66.8654
11
178.239
21
-66.865
0
LINE
8
BLACK
6
CONTINUOUS
10
178.239
20
-66.865
11
178.24
21
-66.8649
0
LINE
8
BLACK
6
CONTINUOUS
10
178.24
20
-66.8649
11
178.241
21
-66.865
0
LINE
8
BLACK
6
CONTINUOUS
10
178.241
20
-66.865
11
183.039
21
-66.865
0
LINE
8
BLACK
6
CONTINUOUS
10
183.039
20
-66.865
11
183.04
21
-66.8649
0
LINE
8
BLACK
6
CONTINUOUS
10
183.04
20
-66.8649
11
183.041
21
-66.865
0
LINE
8
BLACK
6
CONTINUOUS
10
178.265
20
-66.915
11
178.265
21
-75.365
0
LINE
8
BLACK
6
CONTINUOUS
10
178.265
20
-75.365
11
183.015
21
-75.365
0
LINE
8
BLACK
6
CONTINUOUS
10
183.015
20
-75.365
11
183.015
21
-66.915
0
LINE
8
BLACK
6
CONTINUOUS
10
183.015
20
-66.915
11
178.265
21
-66.915
0
LINE
8
BLACK
6
CONTINUOUS
10
175.421
20
-66.865
11
175.425
21
-66.8654
0
LINE
8
BLACK
6
CONTINUOUS
10
175.425
20
-66.8654
11
175.43
21
-66.8668
0
LINE
8
BLACK
6
CONTINUOUS
10
175.43
20
-66.8668
11
175.434
21
-66.8691
0
LINE
8
BLACK
6
CONTINUOUS
10
175.434
20
-66.8691
11
175.438
21
-66.8722
0
LINE
8
BLACK
6
CONTINUOUS
10
175.438
20
-66.8722
11
175.441
21
-66.876
0
LINE
8
BLACK
6
CONTINUOUS
10
175.441
20
-66.876
11
175.443
21
-66.8804
0
LINE
8
BLACK
6
CONTINUOUS
10
175.443
20
-66.8804
11
175.445
21
-66.8851
0
LINE
8
BLACK
6
CONTINUOUS
10
175.445
20
-66.8851
11
175.445
21
-66.89
0
LINE
8
BLACK
6
CONTINUOUS
10
175.445
20
-66.89
11
175.445
21
-66.8912
0
LINE
8
BLACK
6
CONTINUOUS
10
175.445
20
-66.8912
11
175.445
21
-75.3888
0
LINE
8
BLACK
6
CONTINUOUS
10
175.445
20
-75.3888
11
175.445
21
-75.39
0
LINE
8
BLACK
6
CONTINUOUS
10
175.445
20
-75.39
11
175.445
21
-75.3949
0
LINE
8
BLACK
6
CONTINUOUS
10
175.445
20
-75.3949
11
175.443
21
-75.3996
0
LINE
8
BLACK
6
CONTINUOUS
10
175.443
20
-75.3996
11
175.441
21
-75.404
0
LINE
8
BLACK
6
CONTINUOUS
10
175.441
20
-75.404
11
175.438
21
-75.4078
0
LINE
8
BLACK
6
CONTINUOUS
10
175.438
20
-75.4078
11
175.434
21
-75.4109
0
LINE
8
BLACK
6
CONTINUOUS
10
175.434
20
-75.4109
11
175.43
21
-75.4132
0
LINE
8
BLACK
6
CONTINUOUS
10
175.43
20
-75.4132
11
175.425
21
-75.4146
0
LINE
8
BLACK
6
CONTINUOUS
10
175.425
20
-75.4146
11
175.421
21
-75.415
0
LINE
8
BLACK
6
CONTINUOUS
10
175.421
20
-75.415
11
175.421
21
-75.415
0
LINE
8
BLACK
6
CONTINUOUS
10
175.421
20
-75.415
11
175.42
21
-75.4151
0
LINE
8
BLACK
6
CONTINUOUS
10
175.42
20
-75.4151
11
175.419
21
-75.415
0
LINE
8
BLACK
6
CONTINUOUS
10
175.419
20
-75.415
11
170.621
21
-75.415
0
LINE
8
BLACK
6
CONTINUOUS
10
170.621
20
-75.415
11
170.62
21
-75.4151
0
LINE
8
BLACK
6
CONTINUOUS
10
170.62
20
-75.4151
11
170.619
21
-75.415
0
LINE
8
BLACK
6
CONTINUOUS
10
170.619
20
-75.415
11
170.619
21
-75.415
0
LINE
8
BLACK
6
CONTINUOUS
10
170.619
20
-75.415
11
170.615
21
-75.4146
0
LINE
8
BLACK
6
CONTINUOUS
10
170.615
20
-75.4146
11
170.61
21
-75.4132
0
LINE
8
BLACK
6
CONTINUOUS
10
170.61
20
-75.4132
11
170.606
21
-75.4109
0
LINE
8
BLACK
6
CONTINUOUS
10
170.606
20
-75.4109
11
170.602
21
-75.4078
0
LINE
8
BLACK
6
CONTINUOUS
10
170.602
20
-75.4078
11
170.599
21
-75.404
0
LINE
8
BLACK
6
CONTINUOUS
10
170.599
20
-75.404
11
170.597
21
-75.3996
0
LINE
8
BLACK
6
CONTINUOUS
10
170.597
20
-75.3996
11
170.595
21
-75.3949
0
LINE
8
BLACK
6
CONTINUOUS
10
170.595
20
-75.3949
11
170.595
21
-75.39
0
LINE
8
BLACK
6
CONTINUOUS
10
170.595
20
-75.39
11
170.595
21
-75.3888
0
LINE
8
BLACK
6
CONTINUOUS
10
170.595
20
-75.3888
11
170.595
21
-66.8912
0
LINE
8
BLACK
6
CONTINUOUS
10
170.595
20
-66.8912
11
170.595
21
-66.89
0
LINE
8
BLACK
6
CONTINUOUS
10
170.595
20
-66.89
11
170.595
21
-66.8851
0
LINE
8
BLACK
6
CONTINUOUS
10
170.595
20
-66.8851
11
170.597
21
-66.8804
0
LINE
8
BLACK
6
CONTINUOUS
10
170.597
20
-66.8804
11
170.599
21
-66.876
0
LINE
8
BLACK
6
CONTINUOUS
10
170.599
20
-66.876
11
170.602
21
-66.8722
0
LINE
8
BLACK
6
CONTINUOUS
10
170.602
20
-66.8722
11
170.606
21
-66.8691
0
LINE
8
BLACK
6
CONTINUOUS
10
170.606
20
-66.8691
11
170.61
21
-66.8668
0
LINE
8
BLACK
6
CONTINUOUS
10
170.61
20
-66.8668
11
170.615
21
-66.8654
0
LINE
8
BLACK
6
CONTINUOUS
10
170.615
20
-66.8654
11
170.619
21
-66.865
0
LINE
8
BLACK
6
CONTINUOUS
10
170.619
20
-66.865
11
170.62
21
-66.8649
0
LINE
8
BLACK
6
CONTINUOUS
10
170.62
20
-66.8649
11
170.621
21
-66.865
0
LINE
8
BLACK
6
CONTINUOUS
10
170.621
20
-66.865
11
175.419
21
-66.865
0
LINE
8
BLACK
6
CONTINUOUS
10
175.419
20
-66.865
11
175.42
21
-66.8649
0
LINE
8
BLACK
6
CONTINUOUS
10
175.42
20
-66.8649
11
175.421
21
-66.865
0
LINE
8
BLACK
6
CONTINUOUS
10
170.645
20
-66.915
11
170.645
21
-75.365
0
LINE
8
BLACK
6
CONTINUOUS
10
170.645
20
-75.365
11
175.395
21
-75.365
0
LINE
8
BLACK
6
CONTINUOUS
10
175.395
20
-75.365
11
175.395
21
-66.915
0
LINE
8
BLACK
6
CONTINUOUS
10
175.395
20
-66.915
11
170.645
21
-66.915
0
LINE
8
BLACK
6
CONTINUOUS
10
132.471
20
-61.645
11
132.475
21
-61.6454
0
LINE
8
BLACK
6
CONTINUOUS
10
132.475
20
-61.6454
11
132.48
21
-61.6468
0
LINE
8
BLACK
6
CONTINUOUS
10
132.48
20
-61.6468
11
132.484
21
-61.6491
0
LINE
8
BLACK
6
CONTINUOUS
10
132.484
20
-61.6491
11
132.488
21
-61.6522
0
LINE
8
BLACK
6
CONTINUOUS
10
132.488
20
-61.6522
11
132.491
21
-61.656
0
LINE
8
BLACK
6
CONTINUOUS
10
132.491
20
-61.656
11
132.493
21
-61.6604
0
LINE
8
BLACK
6
CONTINUOUS
10
132.493
20
-61.6604
11
132.495
21
-61.6651
0
LINE
8
BLACK
6
CONTINUOUS
10
132.495
20
-61.6651
11
132.495
21
-61.67
0
LINE
8
BLACK
6
CONTINUOUS
10
132.495
20
-61.67
11
132.495
21
-61.6712
0
LINE
8
BLACK
6
CONTINUOUS
10
132.495
20
-61.6712
11
132.495
21
-72.8688
0
LINE
8
BLACK
6
CONTINUOUS
10
132.495
20
-72.8688
11
132.495
21
-72.87
0
LINE
8
BLACK
6
CONTINUOUS
10
132.495
20
-72.87
11
132.495
21
-72.8749
0
LINE
8
BLACK
6
CONTINUOUS
10
132.495
20
-72.8749
11
132.493
21
-72.8796
0
LINE
8
BLACK
6
CONTINUOUS
10
132.493
20
-72.8796
11
132.491
21
-72.884
0
LINE
8
BLACK
6
CONTINUOUS
10
132.491
20
-72.884
11
132.488
21
-72.8878
0
LINE
8
BLACK
6
CONTINUOUS
10
132.488
20
-72.8878
11
132.484
21
-72.8909
0
LINE
8
BLACK
6
CONTINUOUS
10
132.484
20
-72.8909
11
132.48
21
-72.8932
0
LINE
8
BLACK
6
CONTINUOUS
10
132.48
20
-72.8932
11
132.475
21
-72.8946
0
LINE
8
BLACK
6
CONTINUOUS
10
132.475
20
-72.8946
11
132.471
21
-72.895
0
LINE
8
BLACK
6
CONTINUOUS
10
132.471
20
-72.895
11
132.471
21
-72.895
0
LINE
8
BLACK
6
CONTINUOUS
10
132.471
20
-72.895
11
132.47
21
-72.8951
0
LINE
8
BLACK
6
CONTINUOUS
10
132.47
20
-72.8951
11
132.469
21
-72.895
0
LINE
8
BLACK
6
CONTINUOUS
10
132.469
20
-72.895
11
120.171
21
-72.895
0
LINE
8
BLACK
6
CONTINUOUS
10
120.171
20
-72.895
11
120.17
21
-72.8951
0
LINE
8
BLACK
6
CONTINUOUS
10
120.17
20
-72.8951
11
120.169
21
-72.895
0
LINE
8
BLACK
6
CONTINUOUS
10
120.169
20
-72.895
11
120.169
21
-72.895
0
LINE
8
BLACK
6
CONTINUOUS
10
120.169
20
-72.895
11
120.165
21
-72.8946
0
LINE
8
BLACK
6
CONTINUOUS
10
120.165
20
-72.8946
11
120.16
21
-72.8932
0
LINE
8
BLACK
6
CONTINUOUS
10
120.16
20
-72.8932
11
120.156
21
-72.8909
0
LINE
8
BLACK
6
CONTINUOUS
10
120.156
20
-72.8909
11
120.152
21
-72.8878
0
LINE
8
BLACK
6
CONTINUOUS
10
120.152
20
-72.8878
11
120.149
21
-72.884
0
LINE
8
BLACK
6
CONTINUOUS
10
120.149
20
-72.884
11
120.147
21
-72.8796
0
LINE
8
BLACK
6
CONTINUOUS
10
120.147
20
-72.8796
11
120.145
21
-72.8749
0
LINE
8
BLACK
6
CONTINUOUS
10
120.145
20
-72.8749
11
120.145
21
-72.87
0
LINE
8
BLACK
6
CONTINUOUS
10
120.145
20
-72.87
11
120.145
21
-72.8688
0
LINE
8
BLACK
6
CONTINUOUS
10
120.145
20
-72.8688
11
120.145
21
-61.6712
0
LINE
8
BLACK
6
CONTINUOUS
10
120.145
20
-61.6712
11
120.145
21
-61.67
0
LINE
8
BLACK
6
CONTINUOUS
10
120.145
20
-61.67
11
120.145
21
-61.6651
0
LINE
8
BLACK
6
CONTINUOUS
10
120.145
20
-61.6651
11
120.147
21
-61.6604
0
LINE
8
BLACK
6
CONTINUOUS
10
120.147
20
-61.6604
11
120.149
21
-61.656
0
LINE
8
BLACK
6
CONTINUOUS
10
120.149
20
-61.656
11
120.152
21
-61.6522
0
LINE
8
BLACK
6
CONTINUOUS
10
120.152
20
-61.6522
11
120.156
21
-61.6491
0
LINE
8
BLACK
6
CONTINUOUS
10
120.156
20
-61.6491
11
120.16
21
-61.6468
0
LINE
8
BLACK
6
CONTINUOUS
10
120.16
20
-61.6468
11
120.165
21
-61.6454
0
LINE
8
BLACK
6
CONTINUOUS
10
120.165
20
-61.6454
11
120.169
21
-61.645
0
LINE
8
BLACK
6
CONTINUOUS
10
120.169
20
-61.645
11
120.17
21
-61.6449
0
LINE
8
BLACK
6
CONTINUOUS
10
120.17
20
-61.6449
11
120.171
21
-61.645
0
LINE
8
BLACK
6
CONTINUOUS
10
120.171
20
-61.645
11
132.469
21
-61.645
0
LINE
8
BLACK
6
CONTINUOUS
10
132.469
20
-61.645
11
132.47
21
-61.6449
0
LINE
8
BLACK
6
CONTINUOUS
10
132.47
20
-61.6449
11
132.471
21
-61.645
0
LINE
8
BLACK
6
CONTINUOUS
10
120.195
20
-61.695
11
120.195
21
-72.845
0
LINE
8
BLACK
6
CONTINUOUS
10
120.195
20
-72.845
11
132.445
21
-72.845
0
LINE
8
BLACK
6
CONTINUOUS
10
132.445
20
-72.845
11
132.445
21
-61.695
0
LINE
8
BLACK
6
CONTINUOUS
10
132.445
20
-61.695
11
120.195
21
-61.695
0
LINE
8
BLACK
6
CONTINUOUS
10
184.341
20
-49.335
11
184.341
21
-49.335
0
LINE
8
BLACK
6
CONTINUOUS
10
184.341
20
-49.335
11
184.345
21
-49.3354
0
LINE
8
BLACK
6
CONTINUOUS
10
184.345
20
-49.3354
11
184.35
21
-49.3368
0
LINE
8
BLACK
6
CONTINUOUS
10
184.35
20
-49.3368
11
184.354
21
-49.3391
0
LINE
8
BLACK
6
CONTINUOUS
10
184.354
20
-49.3391
11
184.358
21
-49.3422
0
LINE
8
BLACK
6
CONTINUOUS
10
184.358
20
-49.3422
11
184.361
21
-49.346
0
LINE
8
BLACK
6
CONTINUOUS
10
184.361
20
-49.346
11
184.363
21
-49.3504
0
LINE
8
BLACK
6
CONTINUOUS
10
184.363
20
-49.3504
11
184.365
21
-49.3551
0
LINE
8
BLACK
6
CONTINUOUS
10
184.365
20
-49.3551
11
184.365
21
-49.36
0
LINE
8
BLACK
6
CONTINUOUS
10
184.365
20
-49.36
11
184.365
21
-49.3612
0
LINE
8
BLACK
6
CONTINUOUS
10
184.365
20
-49.3612
11
184.365
21
-59.8588
0
LINE
8
BLACK
6
CONTINUOUS
10
184.365
20
-59.8588
11
184.365
21
-59.86
0
LINE
8
BLACK
6
CONTINUOUS
10
184.365
20
-59.86
11
184.365
21
-59.8612
0
LINE
8
BLACK
6
CONTINUOUS
10
184.365
20
-59.8612
11
184.365
21
-59.8612
0
LINE
8
BLACK
6
CONTINUOUS
10
184.365
20
-59.8612
11
184.365
21
-59.8649
0
LINE
8
BLACK
6
CONTINUOUS
10
184.365
20
-59.8649
11
184.363
21
-59.8696
0
LINE
8
BLACK
6
CONTINUOUS
10
184.363
20
-59.8696
11
184.361
21
-59.874
0
LINE
8
BLACK
6
CONTINUOUS
10
184.361
20
-59.874
11
184.358
21
-59.8778
0
LINE
8
BLACK
6
CONTINUOUS
10
184.358
20
-59.8778
11
184.354
21
-59.8809
0
LINE
8
BLACK
6
CONTINUOUS
10
184.354
20
-59.8809
11
184.35
21
-59.8832
0
LINE
8
BLACK
6
CONTINUOUS
10
184.35
20
-59.8832
11
184.345
21
-59.8846
0
LINE
8
BLACK
6
CONTINUOUS
10
184.345
20
-59.8846
11
184.34
21
-59.8851
0
LINE
8
BLACK
6
CONTINUOUS
10
184.34
20
-59.8851
11
184.339
21
-59.885
0
LINE
8
BLACK
6
CONTINUOUS
10
184.339
20
-59.885
11
176.341
21
-59.885
0
LINE
8
BLACK
6
CONTINUOUS
10
176.341
20
-59.885
11
176.34
21
-59.8851
0
LINE
8
BLACK
6
CONTINUOUS
10
176.34
20
-59.8851
11
176.335
21
-59.8846
0
LINE
8
BLACK
6
CONTINUOUS
10
176.335
20
-59.8846
11
176.33
21
-59.8832
0
LINE
8
BLACK
6
CONTINUOUS
10
176.33
20
-59.8832
11
176.326
21
-59.8809
0
LINE
8
BLACK
6
CONTINUOUS
10
176.326
20
-59.8809
11
176.322
21
-59.8778
0
LINE
8
BLACK
6
CONTINUOUS
10
176.322
20
-59.8778
11
176.319
21
-59.874
0
LINE
8
BLACK
6
CONTINUOUS
10
176.319
20
-59.874
11
176.317
21
-59.8696
0
LINE
8
BLACK
6
CONTINUOUS
10
176.317
20
-59.8696
11
176.315
21
-59.8649
0
LINE
8
BLACK
6
CONTINUOUS
10
176.315
20
-59.8649
11
176.315
21
-59.86
0
LINE
8
BLACK
6
CONTINUOUS
10
176.315
20
-59.86
11
176.315
21
-59.8588
0
LINE
8
BLACK
6
CONTINUOUS
10
176.315
20
-59.8588
11
176.315
21
-49.3612
0
LINE
8
BLACK
6
CONTINUOUS
10
176.315
20
-49.3612
11
176.315
21
-49.36
0
LINE
8
BLACK
6
CONTINUOUS
10
176.315
20
-49.36
11
176.315
21
-49.3551
0
LINE
8
BLACK
6
CONTINUOUS
10
176.315
20
-49.3551
11
176.317
21
-49.3504
0
LINE
8
BLACK
6
CONTINUOUS
10
176.317
20
-49.3504
11
176.319
21
-49.346
0
LINE
8
BLACK
6
CONTINUOUS
10
176.319
20
-49.346
11
176.322
21
-49.3422
0
LINE
8
BLACK
6
CONTINUOUS
10
176.322
20
-49.3422
11
176.326
21
-49.3391
0
LINE
8
BLACK
6
CONTINUOUS
10
176.326
20
-49.3391
11
176.33
21
-49.3368
0
LINE
8
BLACK
6
CONTINUOUS
10
176.33
20
-49.3368
11
176.335
21
-49.3354
0
LINE
8
BLACK
6
CONTINUOUS
10
176.335
20
-49.3354
11
176.339
21
-49.335
0
LINE
8
BLACK
6
CONTINUOUS
10
176.339
20
-49.335
11
176.339
21
-49.335
0
LINE
8
BLACK
6
CONTINUOUS
10
176.339
20
-49.335
11
176.34
21
-49.3349
0
LINE
8
BLACK
6
CONTINUOUS
10
176.34
20
-49.3349
11
176.341
21
-49.335
0
LINE
8
BLACK
6
CONTINUOUS
10
176.341
20
-49.335
11
184.339
21
-49.335
0
LINE
8
BLACK
6
CONTINUOUS
10
184.339
20
-49.335
11
184.34
21
-49.3349
0
LINE
8
BLACK
6
CONTINUOUS
10
184.34
20
-49.3349
11
184.341
21
-49.335
0
LINE
8
BLACK
6
CONTINUOUS
10
176.365
20
-49.385
11
176.365
21
-59.835
0
LINE
8
BLACK
6
CONTINUOUS
10
176.365
20
-59.835
11
184.315
21
-59.835
0
LINE
8
BLACK
6
CONTINUOUS
10
184.315
20
-59.835
11
184.315
21
-49.385
0
LINE
8
BLACK
6
CONTINUOUS
10
184.315
20
-49.385
11
176.365
21
-49.385
0
LINE
8
BLACK
6
CONTINUOUS
10
159.171
20
-51.885
11
159.175
21
-51.8854
0
LINE
8
BLACK
6
CONTINUOUS
10
159.175
20
-51.8854
11
159.18
21
-51.8868
0
LINE
8
BLACK
6
CONTINUOUS
10
159.18
20
-51.8868
11
159.184
21
-51.8891
0
LINE
8
BLACK
6
CONTINUOUS
10
159.184
20
-51.8891
11
159.188
21
-51.8922
0
LINE
8
BLACK
6
CONTINUOUS
10
159.188
20
-51.8922
11
159.191
21
-51.896
0
LINE
8
BLACK
6
CONTINUOUS
10
159.191
20
-51.896
11
159.193
21
-51.9004
0
LINE
8
BLACK
6
CONTINUOUS
10
159.193
20
-51.9004
11
159.195
21
-51.9051
0
LINE
8
BLACK
6
CONTINUOUS
10
159.195
20
-51.9051
11
159.195
21
-51.91
0
LINE
8
BLACK
6
CONTINUOUS
10
159.195
20
-51.91
11
159.195
21
-51.9112
0
LINE
8
BLACK
6
CONTINUOUS
10
159.195
20
-51.9112
11
159.195
21
-56.7088
0
LINE
8
BLACK
6
CONTINUOUS
10
159.195
20
-56.7088
11
159.195
21
-56.71
0
LINE
8
BLACK
6
CONTINUOUS
10
159.195
20
-56.71
11
159.195
21
-56.7149
0
LINE
8
BLACK
6
CONTINUOUS
10
159.195
20
-56.7149
11
159.193
21
-56.7196
0
LINE
8
BLACK
6
CONTINUOUS
10
159.193
20
-56.7196
11
159.191
21
-56.724
0
LINE
8
BLACK
6
CONTINUOUS
10
159.191
20
-56.724
11
159.188
21
-56.7278
0
LINE
8
BLACK
6
CONTINUOUS
10
159.188
20
-56.7278
11
159.184
21
-56.7309
0
LINE
8
BLACK
6
CONTINUOUS
10
159.184
20
-56.7309
11
159.18
21
-56.7332
0
LINE
8
BLACK
6
CONTINUOUS
10
159.18
20
-56.7332
11
159.175
21
-56.7346
0
LINE
8
BLACK
6
CONTINUOUS
10
159.175
20
-56.7346
11
159.171
21
-56.735
0
LINE
8
BLACK
6
CONTINUOUS
10
159.171
20
-56.735
11
159.171
21
-56.735
0
LINE
8
BLACK
6
CONTINUOUS
10
159.171
20
-56.735
11
159.17
21
-56.7351
0
LINE
8
BLACK
6
CONTINUOUS
10
159.17
20
-56.7351
11
159.169
21
-56.735
0
LINE
8
BLACK
6
CONTINUOUS
10
159.169
20
-56.735
11
150.671
21
-56.735
0
LINE
8
BLACK
6
CONTINUOUS
10
150.671
20
-56.735
11
150.67
21
-56.7351
0
LINE
8
BLACK
6
CONTINUOUS
10
150.67
20
-56.7351
11
150.669
21
-56.735
0
LINE
8
BLACK
6
CONTINUOUS
10
150.669
20
-56.735
11
150.669
21
-56.735
0
LINE
8
BLACK
6
CONTINUOUS
10
150.669
20
-56.735
11
150.665
21
-56.7346
0
LINE
8
BLACK
6
CONTINUOUS
10
150.665
20
-56.7346
11
150.66
21
-56.7332
0
LINE
8
BLACK
6
CONTINUOUS
10
150.66
20
-56.7332
11
150.656
21
-56.7309
0
LINE
8
BLACK
6
CONTINUOUS
10
150.656
20
-56.7309
11
150.652
21
-56.7278
0
LINE
8
BLACK
6
CONTINUOUS
10
150.652
20
-56.7278
11
150.649
21
-56.724
0
LINE
8
BLACK
6
CONTINUOUS
10
150.649
20
-56.724
11
150.647
21
-56.7196
0
LINE
8
BLACK
6
CONTINUOUS
10
150.647
20
-56.7196
11
150.645
21
-56.7149
0
LINE
8
BLACK
6
CONTINUOUS
10
150.645
20
-56.7149
11
150.645
21
-56.71
0
LINE
8
BLACK
6
CONTINUOUS
10
150.645
20
-56.71
11
150.645
21
-56.7088
0
LINE
8
BLACK
6
CONTINUOUS
10
150.645
20
-56.7088
11
150.645
21
-51.9112
0
LINE
8
BLACK
6
CONTINUOUS
10
150.645
20
-51.9112
11
150.645
21
-51.91
0
LINE
8
BLACK
6
CONTINUOUS
10
150.645
20
-51.91
11
150.645
21
-51.9051
0
LINE
8
BLACK
6
CONTINUOUS
10
150.645
20
-51.9051
11
150.647
21
-51.9004
0
LINE
8
BLACK
6
CONTINUOUS
10
150.647
20
-51.9004
11
150.649
21
-51.896
0
LINE
8
BLACK
6
CONTINUOUS
10
150.649
20
-51.896
11
150.652
21
-51.8922
0
LINE
8
BLACK
6
CONTINUOUS
10
150.652
20
-51.8922
11
150.656
21
-51.8891
0
LINE
8
BLACK
6
CONTINUOUS
10
150.656
20
-51.8891
11
150.66
21
-51.8868
0
LINE
8
BLACK
6
CONTINUOUS
10
150.66
20
-51.8868
11
150.665
21
-51.8854
0
LINE
8
BLACK
6
CONTINUOUS
10
150.665
20
-51.8854
11
150.669
21
-51.885
0
LINE
8
BLACK
6
CONTINUOUS
10
150.669
20
-51.885
11
150.67
21
-51.8849
0
LINE
8
BLACK
6
CONTINUOUS
10
150.67
20
-51.8849
11
150.671
21
-51.885
0
LINE
8
BLACK
6
CONTINUOUS
10
150.671
20
-51.885
11
159.169
21
-51.885
0
LINE
8
BLACK
6
CONTINUOUS
10
159.169
20
-51.885
11
159.17
21
-51.8849
0
LINE
8
BLACK
6
CONTINUOUS
10
159.17
20
-51.8849
11
159.171
21
-51.885
0
LINE
8
BLACK
6
CONTINUOUS
10
150.695
20
-51.935
11
150.695
21
-56.685
0
LINE
8
BLACK
6
CONTINUOUS
10
150.695
20
-56.685
11
159.145
21
-56.685
0
LINE
8
BLACK
6
CONTINUOUS
10
159.145
20
-56.685
11
159.145
21
-51.935
0
LINE
8
BLACK
6
CONTINUOUS
10
159.145
20
-51.935
11
150.695
21
-51.935
0
LINE
8
BLACK
6
CONTINUOUS
10
168.42
20
-56.0851
11
168.419
21
-56.085
0
LINE
8
BLACK
6
CONTINUOUS
10
168.419
20
-56.085
11
168.131
21
-56.085
0
LINE
8
BLACK
6
CONTINUOUS
10
168.131
20
-56.085
11
168.13
21
-56.0851
0
LINE
8
BLACK
6
CONTINUOUS
10
168.13
20
-56.0851
11
168.129
21
-56.085
0
LINE
8
BLACK
6
CONTINUOUS
10
168.129
20
-56.085
11
164.611
21
-56.085
0
LINE
8
BLACK
6
CONTINUOUS
10
164.611
20
-56.085
11
164.61
21
-56.0851
0
LINE
8
BLACK
6
CONTINUOUS
10
164.61
20
-56.0851
11
164.609
21
-56.085
0
LINE
8
BLACK
6
CONTINUOUS
10
164.609
20
-56.085
11
164.321
21
-56.085
0
LINE
8
BLACK
6
CONTINUOUS
10
164.321
20
-56.085
11
164.32
21
-56.0851
0
LINE
8
BLACK
6
CONTINUOUS
10
164.32
20
-56.0851
11
164.319
21
-56.085
0
LINE
8
BLACK
6
CONTINUOUS
10
164.319
20
-56.085
11
160.511
21
-56.085
0
LINE
8
BLACK
6
CONTINUOUS
10
160.511
20
-56.085
11
160.51
21
-56.0851
0
LINE
8
BLACK
6
CONTINUOUS
10
160.51
20
-56.0851
11
160.509
21
-56.085
0
LINE
8
BLACK
6
CONTINUOUS
10
160.509
20
-56.085
11
160.509
21
-56.085
0
LINE
8
BLACK
6
CONTINUOUS
10
160.509
20
-56.085
11
160.505
21
-56.0846
0
LINE
8
BLACK
6
CONTINUOUS
10
160.505
20
-56.0846
11
160.5
21
-56.0832
0
LINE
8
BLACK
6
CONTINUOUS
10
160.5
20
-56.0832
11
160.496
21
-56.0809
0
LINE
8
BLACK
6
CONTINUOUS
10
160.496
20
-56.0809
11
160.492
21
-56.0778
0
LINE
8
BLACK
6
CONTINUOUS
10
160.492
20
-56.0778
11
160.489
21
-56.074
0
LINE
8
BLACK
6
CONTINUOUS
10
160.489
20
-56.074
11
160.487
21
-56.0696
0
LINE
8
BLACK
6
CONTINUOUS
10
160.487
20
-56.0696
11
160.485
21
-56.0649
0
LINE
8
BLACK
6
CONTINUOUS
10
160.485
20
-56.0649
11
160.485
21
-56.06
0
LINE
8
BLACK
6
CONTINUOUS
10
160.485
20
-56.06
11
160.485
21
-56.0588
0
LINE
8
BLACK
6
CONTINUOUS
10
160.485
20
-56.0588
11
160.485
21
-40.4612
0
LINE
8
BLACK
6
CONTINUOUS
10
160.485
20
-40.4612
11
160.485
21
-40.46
0
LINE
8
BLACK
6
CONTINUOUS
10
160.485
20
-40.46
11
160.485
21
-40.4551
0
LINE
8
BLACK
6
CONTINUOUS
10
160.485
20
-40.4551
11
160.487
21
-40.4504
0
LINE
8
BLACK
6
CONTINUOUS
10
160.487
20
-40.4504
11
160.489
21
-40.446
0
LINE
8
BLACK
6
CONTINUOUS
10
160.489
20
-40.446
11
160.492
21
-40.4422
0
LINE
8
BLACK
6
CONTINUOUS
10
160.492
20
-40.4422
11
160.496
21
-40.4391
0
LINE
8
BLACK
6
CONTINUOUS
10
160.496
20
-40.4391
11
160.5
21
-40.4368
0
LINE
8
BLACK
6
CONTINUOUS
10
160.5
20
-40.4368
11
160.505
21
-40.4354
0
LINE
8
BLACK
6
CONTINUOUS
10
160.505
20
-40.4354
11
160.509
21
-40.435
0
LINE
8
BLACK
6
CONTINUOUS
10
160.509
20
-40.435
11
160.51
21
-40.4349
0
LINE
8
BLACK
6
CONTINUOUS
10
160.51
20
-40.4349
11
160.511
21
-40.435
0
LINE
8
BLACK
6
CONTINUOUS
10
160.511
20
-40.435
11
164.319
21
-40.435
0
LINE
8
BLACK
6
CONTINUOUS
10
164.319
20
-40.435
11
164.32
21
-40.4349
0
LINE
8
BLACK
6
CONTINUOUS
10
164.32
20
-40.4349
11
164.321
21
-40.435
0
LINE
8
BLACK
6
CONTINUOUS
10
164.321
20
-40.435
11
164.609
21
-40.435
0
LINE
8
BLACK
6
CONTINUOUS
10
164.609
20
-40.435
11
164.61
21
-40.4349
0
LINE
8
BLACK
6
CONTINUOUS
10
164.61
20
-40.4349
11
164.611
21
-40.435
0
LINE
8
BLACK
6
CONTINUOUS
10
164.611
20
-40.435
11
168.129
21
-40.435
0
LINE
8
BLACK
6
CONTINUOUS
10
168.129
20
-40.435
11
168.13
21
-40.4349
0
LINE
8
BLACK
6
CONTINUOUS
10
168.13
20
-40.4349
11
168.131
21
-40.435
0
LINE
8
BLACK
6
CONTINUOUS
10
168.131
20
-40.435
11
168.419
21
-40.435
0
LINE
8
BLACK
6
CONTINUOUS
10
168.419
20
-40.435
11
168.42
21
-40.4349
0
LINE
8
BLACK
6
CONTINUOUS
10
168.42
20
-40.4349
11
168.421
21
-40.435
0
LINE
8
BLACK
6
CONTINUOUS
10
168.421
20
-40.435
11
172.229
21
-40.435
0
LINE
8
BLACK
6
CONTINUOUS
10
172.229
20
-40.435
11
172.23
21
-40.4349
0
LINE
8
BLACK
6
CONTINUOUS
10
172.23
20
-40.4349
11
172.231
21
-40.435
0
LINE
8
BLACK
6
CONTINUOUS
10
172.231
20
-40.435
11
172.235
21
-40.4354
0
LINE
8
BLACK
6
CONTINUOUS
10
172.235
20
-40.4354
11
172.24
21
-40.4368
0
LINE
8
BLACK
6
CONTINUOUS
10
172.24
20
-40.4368
11
172.244
21
-40.4391
0
LINE
8
BLACK
6
CONTINUOUS
10
172.244
20
-40.4391
11
172.248
21
-40.4422
0
LINE
8
BLACK
6
CONTINUOUS
10
172.248
20
-40.4422
11
172.251
21
-40.446
0
LINE
8
BLACK
6
CONTINUOUS
10
172.251
20
-40.446
11
172.253
21
-40.4504
0
LINE
8
BLACK
6
CONTINUOUS
10
172.253
20
-40.4504
11
172.255
21
-40.4551
0
LINE
8
BLACK
6
CONTINUOUS
10
172.255
20
-40.4551
11
172.255
21
-40.46
0
LINE
8
BLACK
6
CONTINUOUS
10
172.255
20
-40.46
11
172.255
21
-40.4612
0
LINE
8
BLACK
6
CONTINUOUS
10
172.255
20
-40.4612
11
172.255
21
-56.0588
0
LINE
8
BLACK
6
CONTINUOUS
10
172.255
20
-56.0588
11
172.255
21
-56.06
0
LINE
8
BLACK
6
CONTINUOUS
10
172.255
20
-56.06
11
172.255
21
-56.0649
0
LINE
8
BLACK
6
CONTINUOUS
10
172.255
20
-56.0649
11
172.253
21
-56.0696
0
LINE
8
BLACK
6
CONTINUOUS
10
172.253
20
-56.0696
11
172.251
21
-56.074
0
LINE
8
BLACK
6
CONTINUOUS
10
172.251
20
-56.074
11
172.248
21
-56.0778
0
LINE
8
BLACK
6
CONTINUOUS
10
172.248
20
-56.0778
11
172.244
21
-56.0809
0
LINE
8
BLACK
6
CONTINUOUS
10
172.244
20
-56.0809
11
172.24
21
-56.0832
0
LINE
8
BLACK
6
CONTINUOUS
10
172.24
20
-56.0832
11
172.235
21
-56.0846
0
LINE
8
BLACK
6
CONTINUOUS
10
172.235
20
-56.0846
11
172.231
21
-56.085
0
LINE
8
BLACK
6
CONTINUOUS
10
172.231
20
-56.085
11
172.231
21
-56.085
0
LINE
8
BLACK
6
CONTINUOUS
10
172.231
20
-56.085
11
172.23
21
-56.0851
0
LINE
8
BLACK
6
CONTINUOUS
10
172.23
20
-56.0851
11
172.229
21
-56.085
0
LINE
8
BLACK
6
CONTINUOUS
10
172.229
20
-56.085
11
168.421
21
-56.085
0
LINE
8
BLACK
6
CONTINUOUS
10
168.421
20
-56.085
11
168.42
21
-56.0851
0
LINE
8
BLACK
6
CONTINUOUS
10
168.445
20
-40.485
11
168.445
21
-56.035
0
LINE
8
BLACK
6
CONTINUOUS
10
168.445
20
-56.035
11
172.205
21
-56.035
0
LINE
8
BLACK
6
CONTINUOUS
10
172.205
20
-56.035
11
172.205
21
-40.485
0
LINE
8
BLACK
6
CONTINUOUS
10
172.205
20
-40.485
11
168.445
21
-40.485
0
LINE
8
BLACK
6
CONTINUOUS
10
164.635
20
-40.485
11
164.635
21
-56.035
0
LINE
8
BLACK
6
CONTINUOUS
10
164.635
20
-56.035
11
168.105
21
-56.035
0
LINE
8
BLACK
6
CONTINUOUS
10
168.105
20
-56.035
11
168.105
21
-40.485
0
LINE
8
BLACK
6
CONTINUOUS
10
168.105
20
-40.485
11
164.635
21
-40.485
0
LINE
8
BLACK
6
CONTINUOUS
10
168.155
20
-40.485
11
168.155
21
-56.035
0
LINE
8
BLACK
6
CONTINUOUS
10
168.155
20
-56.035
11
168.395
21
-56.035
0
LINE
8
BLACK
6
CONTINUOUS
10
168.395
20
-56.035
11
168.395
21
-40.485
0
LINE
8
BLACK
6
CONTINUOUS
10
168.395
20
-40.485
11
168.155
21
-40.485
0
LINE
8
BLACK
6
CONTINUOUS
10
160.535
20
-40.485
11
160.535
21
-56.035
0
LINE
8
BLACK
6
CONTINUOUS
10
160.535
20
-56.035
11
164.295
21
-56.035
0
LINE
8
BLACK
6
CONTINUOUS
10
164.295
20
-56.035
11
164.295
21
-40.485
0
LINE
8
BLACK
6
CONTINUOUS
10
164.295
20
-40.485
11
160.535
21
-40.485
0
LINE
8
BLACK
6
CONTINUOUS
10
164.345
20
-40.485
11
164.345
21
-56.035
0
LINE
8
BLACK
6
CONTINUOUS
10
164.345
20
-56.035
11
164.585
21
-56.035
0
LINE
8
BLACK
6
CONTINUOUS
10
164.585
20
-56.035
11
164.585
21
-40.485
0
LINE
8
BLACK
6
CONTINUOUS
10
164.585
20
-40.485
11
164.345
21
-40.485
0
LINE
8
BLACK
6
CONTINUOUS
10
146.831
20
-40.435
11
146.835
21
-40.4354
0
LINE
8
BLACK
6
CONTINUOUS
10
146.835
20
-40.4354
11
146.84
21
-40.4368
0
LINE
8
BLACK
6
CONTINUOUS
10
146.84
20
-40.4368
11
146.844
21
-40.4391
0
LINE
8
BLACK
6
CONTINUOUS
10
146.844
20
-40.4391
11
146.848
21
-40.4422
0
LINE
8
BLACK
6
CONTINUOUS
10
146.848
20
-40.4422
11
146.851
21
-40.446
0
LINE
8
BLACK
6
CONTINUOUS
10
146.851
20
-40.446
11
146.853
21
-40.4504
0
LINE
8
BLACK
6
CONTINUOUS
10
146.853
20
-40.4504
11
146.855
21
-40.4551
0
LINE
8
BLACK
6
CONTINUOUS
10
146.855
20
-40.4551
11
146.855
21
-40.46
0
LINE
8
BLACK
6
CONTINUOUS
10
146.855
20
-40.46
11
146.855
21
-40.4612
0
LINE
8
BLACK
6
CONTINUOUS
10
146.855
20
-40.4612
11
146.855
21
-56.0588
0
LINE
8
BLACK
6
CONTINUOUS
10
146.855
20
-56.0588
11
146.855
21
-56.06
0
LINE
8
BLACK
6
CONTINUOUS
10
146.855
20
-56.06
11
146.855
21
-56.0649
0
LINE
8
BLACK
6
CONTINUOUS
10
146.855
20
-56.0649
11
146.853
21
-56.0696
0
LINE
8
BLACK
6
CONTINUOUS
10
146.853
20
-56.0696
11
146.851
21
-56.074
0
LINE
8
BLACK
6
CONTINUOUS
10
146.851
20
-56.074
11
146.848
21
-56.0778
0
LINE
8
BLACK
6
CONTINUOUS
10
146.848
20
-56.0778
11
146.844
21
-56.0809
0
LINE
8
BLACK
6
CONTINUOUS
10
146.844
20
-56.0809
11
146.84
21
-56.0832
0
LINE
8
BLACK
6
CONTINUOUS
10
146.84
20
-56.0832
11
146.835
21
-56.0846
0
LINE
8
BLACK
6
CONTINUOUS
10
146.835
20
-56.0846
11
146.831
21
-56.085
0
LINE
8
BLACK
6
CONTINUOUS
10
146.831
20
-56.085
11
146.831
21
-56.085
0
LINE
8
BLACK
6
CONTINUOUS
10
146.831
20
-56.085
11
146.83
21
-56.0851
0
LINE
8
BLACK
6
CONTINUOUS
10
146.83
20
-56.0851
11
146.829
21
-56.085
0
LINE
8
BLACK
6
CONTINUOUS
10
146.829
20
-56.085
11
142.731
21
-56.085
0
LINE
8
BLACK
6
CONTINUOUS
10
142.731
20
-56.085
11
142.73
21
-56.0851
0
LINE
8
BLACK
6
CONTINUOUS
10
142.73
20
-56.0851
11
142.729
21
-56.085
0
LINE
8
BLACK
6
CONTINUOUS
10
142.729
20
-56.085
11
142.729
21
-56.085
0
LINE
8
BLACK
6
CONTINUOUS
10
142.729
20
-56.085
11
142.725
21
-56.0846
0
LINE
8
BLACK
6
CONTINUOUS
10
142.725
20
-56.0846
11
142.72
21
-56.0832
0
LINE
8
BLACK
6
CONTINUOUS
10
142.72
20
-56.0832
11
142.716
21
-56.0809
0
LINE
8
BLACK
6
CONTINUOUS
10
142.716
20
-56.0809
11
142.712
21
-56.0778
0
LINE
8
BLACK
6
CONTINUOUS
10
142.712
20
-56.0778
11
142.709
21
-56.074
0
LINE
8
BLACK
6
CONTINUOUS
10
142.709
20
-56.074
11
142.707
21
-56.0696
0
LINE
8
BLACK
6
CONTINUOUS
10
142.707
20
-56.0696
11
142.705
21
-56.0649
0
LINE
8
BLACK
6
CONTINUOUS
10
142.705
20
-56.0649
11
142.705
21
-56.06
0
LINE
8
BLACK
6
CONTINUOUS
10
142.705
20
-56.06
11
142.705
21
-56.0588
0
LINE
8
BLACK
6
CONTINUOUS
10
142.705
20
-56.0588
11
142.705
21
-40.4612
0
LINE
8
BLACK
6
CONTINUOUS
10
142.705
20
-40.4612
11
142.705
21
-40.46
0
LINE
8
BLACK
6
CONTINUOUS
10
142.705
20
-40.46
11
142.705
21
-40.4551
0
LINE
8
BLACK
6
CONTINUOUS
10
142.705
20
-40.4551
11
142.707
21
-40.4504
0
LINE
8
BLACK
6
CONTINUOUS
10
142.707
20
-40.4504
11
142.709
21
-40.446
0
LINE
8
BLACK
6
CONTINUOUS
10
142.709
20
-40.446
11
142.712
21
-40.4422
0
LINE
8
BLACK
6
CONTINUOUS
10
142.712
20
-40.4422
11
142.716
21
-40.4391
0
LINE
8
BLACK
6
CONTINUOUS
10
142.716
20
-40.4391
11
142.72
21
-40.4368
0
LINE
8
BLACK
6
CONTINUOUS
10
142.72
20
-40.4368
11
142.725
21
-40.4354
0
LINE
8
BLACK
6
CONTINUOUS
10
142.725
20
-40.4354
11
142.729
21
-40.435
0
LINE
8
BLACK
6
CONTINUOUS
10
142.729
20
-40.435
11
142.73
21
-40.4349
0
LINE
8
BLACK
6
CONTINUOUS
10
142.73
20
-40.4349
11
142.731
21
-40.435
0
LINE
8
BLACK
6
CONTINUOUS
10
142.731
20
-40.435
11
146.829
21
-40.435
0
LINE
8
BLACK
6
CONTINUOUS
10
146.829
20
-40.435
11
146.83
21
-40.4349
0
LINE
8
BLACK
6
CONTINUOUS
10
146.83
20
-40.4349
11
146.831
21
-40.435
0
LINE
8
BLACK
6
CONTINUOUS
10
142.755
20
-40.485
11
142.755
21
-56.035
0
LINE
8
BLACK
6
CONTINUOUS
10
142.755
20
-56.035
11
146.805
21
-56.035
0
LINE
8
BLACK
6
CONTINUOUS
10
146.805
20
-56.035
11
146.805
21
-40.485
0
LINE
8
BLACK
6
CONTINUOUS
10
146.805
20
-40.485
11
142.755
21
-40.485
0
LINE
8
BLACK
6
CONTINUOUS
10
159.171
20
-43.595
11
159.175
21
-43.5954
0
LINE
8
BLACK
6
CONTINUOUS
10
159.175
20
-43.5954
11
159.18
21
-43.5968
0
LINE
8
BLACK
6
CONTINUOUS
10
159.18
20
-43.5968
11
159.184
21
-43.5991
0
LINE
8
BLACK
6
CONTINUOUS
10
159.184
20
-43.5991
11
159.188
21
-43.6022
0
LINE
8
BLACK
6
CONTINUOUS
10
159.188
20
-43.6022
11
159.191
21
-43.606
0
LINE
8
BLACK
6
CONTINUOUS
10
159.191
20
-43.606
11
159.193
21
-43.6104
0
LINE
8
BLACK
6
CONTINUOUS
10
159.193
20
-43.6104
11
159.195
21
-43.6151
0
LINE
8
BLACK
6
CONTINUOUS
10
159.195
20
-43.6151
11
159.195
21
-43.62
0
LINE
8
BLACK
6
CONTINUOUS
10
159.195
20
-43.62
11
159.195
21
-43.6212
0
LINE
8
BLACK
6
CONTINUOUS
10
159.195
20
-43.6212
11
159.195
21
-48.4188
0
LINE
8
BLACK
6
CONTINUOUS
10
159.195
20
-48.4188
11
159.195
21
-48.42
0
LINE
8
BLACK
6
CONTINUOUS
10
159.195
20
-48.42
11
159.195
21
-48.4249
0
LINE
8
BLACK
6
CONTINUOUS
10
159.195
20
-48.4249
11
159.193
21
-48.4296
0
LINE
8
BLACK
6
CONTINUOUS
10
159.193
20
-48.4296
11
159.191
21
-48.434
0
LINE
8
BLACK
6
CONTINUOUS
10
159.191
20
-48.434
11
159.188
21
-48.4378
0
LINE
8
BLACK
6
CONTINUOUS
10
159.188
20
-48.4378
11
159.184
21
-48.4409
0
LINE
8
BLACK
6
CONTINUOUS
10
159.184
20
-48.4409
11
159.18
21
-48.4432
0
LINE
8
BLACK
6
CONTINUOUS
10
159.18
20
-48.4432
11
159.175
21
-48.4446
0
LINE
8
BLACK
6
CONTINUOUS
10
159.175
20
-48.4446
11
159.171
21
-48.445
0
LINE
8
BLACK
6
CONTINUOUS
10
159.171
20
-48.445
11
159.171
21
-48.445
0
LINE
8
BLACK
6
CONTINUOUS
10
159.171
20
-48.445
11
159.17
21
-48.4451
0
LINE
8
BLACK
6
CONTINUOUS
10
159.17
20
-48.4451
11
159.169
21
-48.445
0
LINE
8
BLACK
6
CONTINUOUS
10
159.169
20
-48.445
11
150.671
21
-48.445
0
LINE
8
BLACK
6
CONTINUOUS
10
150.671
20
-48.445
11
150.67
21
-48.4451
0
LINE
8
BLACK
6
CONTINUOUS
10
150.67
20
-48.4451
11
150.669
21
-48.445
0
LINE
8
BLACK
6
CONTINUOUS
10
150.669
20
-48.445
11
150.669
21
-48.445
0
LINE
8
BLACK
6
CONTINUOUS
10
150.669
20
-48.445
11
150.665
21
-48.4446
0
LINE
8
BLACK
6
CONTINUOUS
10
150.665
20
-48.4446
11
150.66
21
-48.4432
0
LINE
8
BLACK
6
CONTINUOUS
10
150.66
20
-48.4432
11
150.656
21
-48.4409
0
LINE
8
BLACK
6
CONTINUOUS
10
150.656
20
-48.4409
11
150.652
21
-48.4378
0
LINE
8
BLACK
6
CONTINUOUS
10
150.652
20
-48.4378
11
150.649
21
-48.434
0
LINE
8
BLACK
6
CONTINUOUS
10
150.649
20
-48.434
11
150.647
21
-48.4296
0
LINE
8
BLACK
6
CONTINUOUS
10
150.647
20
-48.4296
11
150.645
21
-48.4249
0
LINE
8
BLACK
6
CONTINUOUS
10
150.645
20
-48.4249
11
150.645
21
-48.42
0
LINE
8
BLACK
6
CONTINUOUS
10
150.645
20
-48.42
11
150.645
21
-48.4188
0
LINE
8
BLACK
6
CONTINUOUS
10
150.645
20
-48.4188
11
150.645
21
-43.6212
0
LINE
8
BLACK
6
CONTINUOUS
10
150.645
20
-43.6212
11
150.645
21
-43.62
0
LINE
8
BLACK
6
CONTINUOUS
10
150.645
20
-43.62
11
150.645
21
-43.6151
0
LINE
8
BLACK
6
CONTINUOUS
10
150.645
20
-43.6151
11
150.647
21
-43.6104
0
LINE
8
BLACK
6
CONTINUOUS
10
150.647
20
-43.6104
11
150.649
21
-43.606
0
LINE
8
BLACK
6
CONTINUOUS
10
150.649
20
-43.606
11
150.652
21
-43.6022
0
LINE
8
BLACK
6
CONTINUOUS
10
150.652
20
-43.6022
11
150.656
21
-43.5991
0
LINE
8
BLACK
6
CONTINUOUS
10
150.656
20
-43.5991
11
150.66
21
-43.5968
0
LINE
8
BLACK
6
CONTINUOUS
10
150.66
20
-43.5968
11
150.665
21
-43.5954
0
LINE
8
BLACK
6
CONTINUOUS
10
150.665
20
-43.5954
11
150.669
21
-43.595
0
LINE
8
BLACK
6
CONTINUOUS
10
150.669
20
-43.595
11
150.67
21
-43.5949
0
LINE
8
BLACK
6
CONTINUOUS
10
150.67
20
-43.5949
11
150.671
21
-43.595
0
LINE
8
BLACK
6
CONTINUOUS
10
150.671
20
-43.595
11
159.169
21
-43.595
0
LINE
8
BLACK
6
CONTINUOUS
10
159.169
20
-43.595
11
159.17
21
-43.5949
0
LINE
8
BLACK
6
CONTINUOUS
10
159.17
20
-43.5949
11
159.171
21
-43.595
0
LINE
8
BLACK
6
CONTINUOUS
10
150.695
20
-43.645
11
150.695
21
-48.395
0
LINE
8
BLACK
6
CONTINUOUS
10
150.695
20
-48.395
11
159.145
21
-48.395
0
LINE
8
BLACK
6
CONTINUOUS
10
159.145
20
-48.395
11
159.145
21
-43.645
0
LINE
8
BLACK
6
CONTINUOUS
10
159.145
20
-43.645
11
150.695
21
-43.645
0
LINE
8
BLACK
6
CONTINUOUS
10
129.545
20
-96.4196
11
129.861
21
-95.5522
0
LINE
8
BLACK
6
CONTINUOUS
10
129.861
20
-95.5522
11
130.323
21
-94.7529
0
LINE
8
BLACK
6
CONTINUOUS
10
130.323
20
-94.7529
11
130.916
21
-94.0459
0
LINE
8
BLACK
6
CONTINUOUS
10
130.916
20
-94.0459
11
131.623
21
-93.4526
0
LINE
8
BLACK
6
CONTINUOUS
10
131.623
20
-93.4526
11
132.422
21
-92.9911
0
LINE
8
BLACK
6
CONTINUOUS
10
132.422
20
-92.9911
11
132.631
21
-92.915
0
LINE
8
BLACK
6
CONTINUOUS
10
132.631
20
-92.915
11
126.951
21
-92.915
0
LINE
8
BLACK
6
CONTINUOUS
10
126.951
20
-92.915
11
126.95
21
-92.9151
0
LINE
8
BLACK
6
CONTINUOUS
10
126.95
20
-92.9151
11
126.949
21
-92.915
0
LINE
8
BLACK
6
CONTINUOUS
10
126.949
20
-92.915
11
126.949
21
-92.915
0
LINE
8
BLACK
6
CONTINUOUS
10
126.949
20
-92.915
11
126.945
21
-92.9146
0
LINE
8
BLACK
6
CONTINUOUS
10
126.945
20
-92.9146
11
126.94
21
-92.9132
0
LINE
8
BLACK
6
CONTINUOUS
10
126.94
20
-92.9132
11
126.936
21
-92.9109
0
LINE
8
BLACK
6
CONTINUOUS
10
126.936
20
-92.9109
11
126.932
21
-92.9078
0
LINE
8
BLACK
6
CONTINUOUS
10
126.932
20
-92.9078
11
126.929
21
-92.904
0
LINE
8
BLACK
6
CONTINUOUS
10
126.929
20
-92.904
11
126.927
21
-92.8996
0
LINE
8
BLACK
6
CONTINUOUS
10
126.927
20
-92.8996
11
126.925
21
-92.8949
0
LINE
8
BLACK
6
CONTINUOUS
10
126.925
20
-92.8949
11
126.925
21
-92.89
0
LINE
8
BLACK
6
CONTINUOUS
10
126.925
20
-92.89
11
126.925
21
-92.8888
0
LINE
8
BLACK
6
CONTINUOUS
10
126.925
20
-92.8888
11
126.925
21
-85.645
0
LINE
8
BLACK
6
CONTINUOUS
10
126.925
20
-85.645
11
118.991
21
-85.645
0
LINE
8
BLACK
6
CONTINUOUS
10
118.991
20
-85.645
11
118.99
21
-85.6451
0
LINE
8
BLACK
6
CONTINUOUS
10
118.99
20
-85.6451
11
118.989
21
-85.645
0
LINE
8
BLACK
6
CONTINUOUS
10
118.989
20
-85.645
11
118.989
21
-85.645
0
LINE
8
BLACK
6
CONTINUOUS
10
118.989
20
-85.645
11
118.985
21
-85.6446
0
LINE
8
BLACK
6
CONTINUOUS
10
118.985
20
-85.6446
11
118.98
21
-85.6432
0
LINE
8
BLACK
6
CONTINUOUS
10
118.98
20
-85.6432
11
118.976
21
-85.6409
0
LINE
8
BLACK
6
CONTINUOUS
10
118.976
20
-85.6409
11
118.972
21
-85.6378
0
LINE
8
BLACK
6
CONTINUOUS
10
118.972
20
-85.6378
11
118.969
21
-85.634
0
LINE
8
BLACK
6
CONTINUOUS
10
118.969
20
-85.634
11
118.967
21
-85.6296
0
LINE
8
BLACK
6
CONTINUOUS
10
118.967
20
-85.6296
11
118.965
21
-85.6249
0
LINE
8
BLACK
6
CONTINUOUS
10
118.965
20
-85.6249
11
118.965
21
-85.62
0
LINE
8
BLACK
6
CONTINUOUS
10
118.965
20
-85.62
11
118.965
21
-85.6188
0
LINE
8
BLACK
6
CONTINUOUS
10
118.965
20
-85.6188
11
118.965
21
-74.4212
0
LINE
8
BLACK
6
CONTINUOUS
10
118.965
20
-74.4212
11
118.965
21
-74.42
0
LINE
8
BLACK
6
CONTINUOUS
10
118.965
20
-74.42
11
118.965
21
-74.4151
0
LINE
8
BLACK
6
CONTINUOUS
10
118.965
20
-74.4151
11
118.967
21
-74.4104
0
LINE
8
BLACK
6
CONTINUOUS
10
118.967
20
-74.4104
11
118.969
21
-74.406
0
LINE
8
BLACK
6
CONTINUOUS
10
118.969
20
-74.406
11
118.972
21
-74.4022
0
LINE
8
BLACK
6
CONTINUOUS
10
118.972
20
-74.4022
11
118.976
21
-74.3991
0
LINE
8
BLACK
6
CONTINUOUS
10
118.976
20
-74.3991
11
118.98
21
-74.3968
0
LINE
8
BLACK
6
CONTINUOUS
10
118.98
20
-74.3968
11
118.985
21
-74.3954
0
LINE
8
BLACK
6
CONTINUOUS
10
118.985
20
-74.3954
11
118.989
21
-74.395
0
LINE
8
BLACK
6
CONTINUOUS
10
118.989
20
-74.395
11
118.99
21
-74.3949
0
LINE
8
BLACK
6
CONTINUOUS
10
118.99
20
-74.3949
11
118.991
21
-74.395
0
LINE
8
BLACK
6
CONTINUOUS
10
118.991
20
-74.395
11
131.339
21
-74.395
0
LINE
8
BLACK
6
CONTINUOUS
10
131.339
20
-74.395
11
131.34
21
-74.3949
0
LINE
8
BLACK
6
CONTINUOUS
10
131.34
20
-74.3949
11
131.341
21
-74.395
0
LINE
8
BLACK
6
CONTINUOUS
10
131.341
20
-74.395
11
131.345
21
-74.3954
0
LINE
8
BLACK
6
CONTINUOUS
10
131.345
20
-74.3954
11
131.35
21
-74.3968
0
LINE
8
BLACK
6
CONTINUOUS
10
131.35
20
-74.3968
11
131.354
21
-74.3991
0
LINE
8
BLACK
6
CONTINUOUS
10
131.354
20
-74.3991
11
131.358
21
-74.4022
0
LINE
8
BLACK
6
CONTINUOUS
10
131.358
20
-74.4022
11
131.361
21
-74.406
0
LINE
8
BLACK
6
CONTINUOUS
10
131.361
20
-74.406
11
131.363
21
-74.4104
0
LINE
8
BLACK
6
CONTINUOUS
10
131.363
20
-74.4104
11
131.365
21
-74.4151
0
LINE
8
BLACK
6
CONTINUOUS
10
131.365
20
-74.4151
11
131.365
21
-74.42
0
LINE
8
BLACK
6
CONTINUOUS
10
131.365
20
-74.42
11
131.365
21
-74.4212
0
LINE
8
BLACK
6
CONTINUOUS
10
131.365
20
-74.4212
11
131.365
21
-76.665
0
LINE
8
BLACK
6
CONTINUOUS
10
131.365
20
-76.665
11
140.385
21
-76.665
0
LINE
8
BLACK
6
CONTINUOUS
10
140.385
20
-76.665
11
140.385
21
-66.9212
0
LINE
8
BLACK
6
CONTINUOUS
10
140.385
20
-66.9212
11
140.385
21
-66.92
0
LINE
8
BLACK
6
CONTINUOUS
10
140.385
20
-66.92
11
140.385
21
-66.9151
0
LINE
8
BLACK
6
CONTINUOUS
10
140.385
20
-66.9151
11
140.387
21
-66.9104
0
LINE
8
BLACK
6
CONTINUOUS
10
140.387
20
-66.9104
11
140.389
21
-66.906
0
LINE
8
BLACK
6
CONTINUOUS
10
140.389
20
-66.906
11
140.392
21
-66.9022
0
LINE
8
BLACK
6
CONTINUOUS
10
140.392
20
-66.9022
11
140.396
21
-66.8991
0
LINE
8
BLACK
6
CONTINUOUS
10
140.396
20
-66.8991
11
140.4
21
-66.8968
0
LINE
8
BLACK
6
CONTINUOUS
10
140.4
20
-66.8968
11
140.405
21
-66.8954
0
LINE
8
BLACK
6
CONTINUOUS
10
140.405
20
-66.8954
11
140.409
21
-66.895
0
LINE
8
BLACK
6
CONTINUOUS
10
140.409
20
-66.895
11
140.41
21
-66.8949
0
LINE
8
BLACK
6
CONTINUOUS
10
140.41
20
-66.8949
11
140.411
21
-66.895
0
LINE
8
BLACK
6
CONTINUOUS
10
140.411
20
-66.895
11
151.609
21
-66.895
0
LINE
8
BLACK
6
CONTINUOUS
10
151.609
20
-66.895
11
151.61
21
-66.8949
0
LINE
8
BLACK
6
CONTINUOUS
10
151.61
20
-66.8949
11
151.611
21
-66.895
0
LINE
8
BLACK
6
CONTINUOUS
10
151.611
20
-66.895
11
151.615
21
-66.8954
0
LINE
8
BLACK
6
CONTINUOUS
10
151.615
20
-66.8954
11
151.62
21
-66.8968
0
LINE
8
BLACK
6
CONTINUOUS
10
151.62
20
-66.8968
11
151.624
21
-66.8991
0
LINE
8
BLACK
6
CONTINUOUS
10
151.624
20
-66.8991
11
151.628
21
-66.9022
0
LINE
8
BLACK
6
CONTINUOUS
10
151.628
20
-66.9022
11
151.631
21
-66.906
0
LINE
8
BLACK
6
CONTINUOUS
10
151.631
20
-66.906
11
151.633
21
-66.9104
0
LINE
8
BLACK
6
CONTINUOUS
10
151.633
20
-66.9104
11
151.635
21
-66.9151
0
LINE
8
BLACK
6
CONTINUOUS
10
151.635
20
-66.9151
11
151.635
21
-66.92
0
LINE
8
BLACK
6
CONTINUOUS
10
151.635
20
-66.92
11
151.635
21
-66.9212
0
LINE
8
BLACK
6
CONTINUOUS
10
151.635
20
-66.9212
11
151.635
21
-79.2188
0
LINE
8
BLACK
6
CONTINUOUS
10
151.635
20
-79.2188
11
151.635
21
-79.22
0
LINE
8
BLACK
6
CONTINUOUS
10
151.635
20
-79.22
11
151.635
21
-79.2249
0
LINE
8
BLACK
6
CONTINUOUS
10
151.635
20
-79.2249
11
151.633
21
-79.2296
0
LINE
8
BLACK
6
CONTINUOUS
10
151.633
20
-79.2296
11
151.631
21
-79.234
0
LINE
8
BLACK
6
CONTINUOUS
10
151.631
20
-79.234
11
151.628
21
-79.2378
0
LINE
8
BLACK
6
CONTINUOUS
10
151.628
20
-79.2378
11
151.624
21
-79.2409
0
LINE
8
BLACK
6
CONTINUOUS
10
151.624
20
-79.2409
11
151.62
21
-79.2432
0
LINE
8
BLACK
6
CONTINUOUS
10
151.62
20
-79.2432
11
151.615
21
-79.2446
0
LINE
8
BLACK
6
CONTINUOUS
10
151.615
20
-79.2446
11
151.611
21
-79.245
0
LINE
8
BLACK
6
CONTINUOUS
10
151.611
20
-79.245
11
151.611
21
-79.245
0
LINE
8
BLACK
6
CONTINUOUS
10
151.611
20
-79.245
11
151.61
21
-79.2451
0
LINE
8
BLACK
6
CONTINUOUS
10
151.61
20
-79.2451
11
151.609
21
-79.245
0
LINE
8
BLACK
6
CONTINUOUS
10
151.609
20
-79.245
11
141.975
21
-79.245
0
LINE
8
BLACK
6
CONTINUOUS
10
141.975
20
-79.245
11
141.975
21
-92.8888
0
LINE
8
BLACK
6
CONTINUOUS
10
141.975
20
-92.8888
11
141.975
21
-92.89
0
LINE
8
BLACK
6
CONTINUOUS
10
141.975
20
-92.89
11
141.975
21
-92.8949
0
LINE
8
BLACK
6
CONTINUOUS
10
141.975
20
-92.8949
11
141.973
21
-92.8996
0
LINE
8
BLACK
6
CONTINUOUS
10
141.973
20
-92.8996
11
141.971
21
-92.904
0
LINE
8
BLACK
6
CONTINUOUS
10
141.971
20
-92.904
11
141.968
21
-92.9078
0
LINE
8
BLACK
6
CONTINUOUS
10
141.968
20
-92.9078
11
141.964
21
-92.9109
0
LINE
8
BLACK
6
CONTINUOUS
10
141.964
20
-92.9109
11
141.96
21
-92.9132
0
LINE
8
BLACK
6
CONTINUOUS
10
141.96
20
-92.9132
11
141.955
21
-92.9146
0
LINE
8
BLACK
6
CONTINUOUS
10
141.955
20
-92.9146
11
141.951
21
-92.915
0
LINE
8
BLACK
6
CONTINUOUS
10
141.951
20
-92.915
11
141.951
21
-92.915
0
LINE
8
BLACK
6
CONTINUOUS
10
141.951
20
-92.915
11
141.95
21
-92.9151
0
LINE
8
BLACK
6
CONTINUOUS
10
141.95
20
-92.9151
11
141.949
21
-92.915
0
LINE
8
BLACK
6
CONTINUOUS
10
141.949
20
-92.915
11
136.689
21
-92.915
0
LINE
8
BLACK
6
CONTINUOUS
10
136.689
20
-92.915
11
136.898
21
-92.9911
0
LINE
8
BLACK
6
CONTINUOUS
10
136.898
20
-92.9911
11
137.697
21
-93.4526
0
LINE
8
BLACK
6
CONTINUOUS
10
137.697
20
-93.4526
11
138.404
21
-94.0459
0
LINE
8
BLACK
6
CONTINUOUS
10
138.404
20
-94.0459
11
138.997
21
-94.7529
0
LINE
8
BLACK
6
CONTINUOUS
10
138.997
20
-94.7529
11
139.459
21
-95.5522
0
LINE
8
BLACK
6
CONTINUOUS
10
139.459
20
-95.5522
11
139.775
21
-96.4196
0
LINE
8
BLACK
6
CONTINUOUS
10
139.775
20
-96.4196
11
139.935
21
-97.3285
0
LINE
8
BLACK
6
CONTINUOUS
10
139.935
20
-97.3285
11
139.935
21
-98.2515
0
LINE
8
BLACK
6
CONTINUOUS
10
139.935
20
-98.2515
11
139.775
21
-99.1604
0
LINE
8
BLACK
6
CONTINUOUS
10
139.775
20
-99.1604
11
139.459
21
-100.028
0
LINE
8
BLACK
6
CONTINUOUS
10
139.459
20
-100.028
11
138.997
21
-100.827
0
LINE
8
BLACK
6
CONTINUOUS
10
138.997
20
-100.827
11
138.404
21
-101.534
0
LINE
8
BLACK
6
CONTINUOUS
10
138.404
20
-101.534
11
137.697
21
-102.127
0
LINE
8
BLACK
6
CONTINUOUS
10
137.697
20
-102.127
11
136.898
21
-102.589
0
LINE
8
BLACK
6
CONTINUOUS
10
136.898
20
-102.589
11
136.03
21
-102.905
0
LINE
8
BLACK
6
CONTINUOUS
10
136.03
20
-102.905
11
135.121
21
-103.065
0
LINE
8
BLACK
6
CONTINUOUS
10
135.121
20
-103.065
11
134.199
21
-103.065
0
LINE
8
BLACK
6
CONTINUOUS
10
134.199
20
-103.065
11
133.29
21
-102.905
0
LINE
8
BLACK
6
CONTINUOUS
10
133.29
20
-102.905
11
132.422
21
-102.589
0
LINE
8
BLACK
6
CONTINUOUS
10
132.422
20
-102.589
11
131.623
21
-102.127
0
LINE
8
BLACK
6
CONTINUOUS
10
131.623
20
-102.127
11
130.916
21
-101.534
0
LINE
8
BLACK
6
CONTINUOUS
10
130.916
20
-101.534
11
130.323
21
-100.827
0
LINE
8
BLACK
6
CONTINUOUS
10
130.323
20
-100.827
11
129.861
21
-100.028
0
LINE
8
BLACK
6
CONTINUOUS
10
129.861
20
-100.028
11
129.545
21
-99.1604
0
LINE
8
BLACK
6
CONTINUOUS
10
129.545
20
-99.1604
11
129.385
21
-98.2515
0
LINE
8
BLACK
6
CONTINUOUS
10
129.385
20
-98.2515
11
129.385
21
-97.3285
0
LINE
8
BLACK
6
CONTINUOUS
10
129.385
20
-97.3285
11
129.545
21
-96.4196
0
LINE
8
BLACK
6
CONTINUOUS
10
129.613
20
-99.1423
11
129.925
21
-99.9982
0
LINE
8
BLACK
6
CONTINUOUS
10
129.925
20
-99.9982
11
130.38
21
-100.787
0
LINE
8
BLACK
6
CONTINUOUS
10
130.38
20
-100.787
11
130.965
21
-101.485
0
LINE
8
BLACK
6
CONTINUOUS
10
130.965
20
-101.485
11
131.663
21
-102.07
0
LINE
8
BLACK
6
CONTINUOUS
10
131.663
20
-102.07
11
132.452
21
-102.525
0
LINE
8
BLACK
6
CONTINUOUS
10
132.452
20
-102.525
11
133.308
21
-102.837
0
LINE
8
BLACK
6
CONTINUOUS
10
133.308
20
-102.837
11
134.205
21
-102.995
0
LINE
8
BLACK
6
CONTINUOUS
10
134.205
20
-102.995
11
135.115
21
-102.995
0
LINE
8
BLACK
6
CONTINUOUS
10
135.115
20
-102.995
11
136.012
21
-102.837
0
LINE
8
BLACK
6
CONTINUOUS
10
136.012
20
-102.837
11
136.868
21
-102.525
0
LINE
8
BLACK
6
CONTINUOUS
10
136.868
20
-102.525
11
137.657
21
-102.07
0
LINE
8
BLACK
6
CONTINUOUS
10
137.657
20
-102.07
11
138.355
21
-101.485
0
LINE
8
BLACK
6
CONTINUOUS
10
138.355
20
-101.485
11
138.94
21
-100.787
0
LINE
8
BLACK
6
CONTINUOUS
10
138.94
20
-100.787
11
139.395
21
-99.9982
0
LINE
8
BLACK
6
CONTINUOUS
10
139.395
20
-99.9982
11
139.707
21
-99.1423
0
LINE
8
BLACK
6
CONTINUOUS
10
139.707
20
-99.1423
11
139.865
21
-98.2454
0
LINE
8
BLACK
6
CONTINUOUS
10
139.865
20
-98.2454
11
139.865
21
-97.3346
0
LINE
8
BLACK
6
CONTINUOUS
10
139.865
20
-97.3346
11
139.707
21
-96.4377
0
LINE
8
BLACK
6
CONTINUOUS
10
139.707
20
-96.4377
11
139.395
21
-95.5818
0
LINE
8
BLACK
6
CONTINUOUS
10
139.395
20
-95.5818
11
138.94
21
-94.7931
0
LINE
8
BLACK
6
CONTINUOUS
10
138.94
20
-94.7931
11
138.355
21
-94.0954
0
LINE
8
BLACK
6
CONTINUOUS
10
138.355
20
-94.0954
11
137.657
21
-93.5099
0
LINE
8
BLACK
6
CONTINUOUS
10
137.657
20
-93.5099
11
136.868
21
-93.0545
0
LINE
8
BLACK
6
CONTINUOUS
10
136.868
20
-93.0545
11
136.485
21
-92.915
0
LINE
8
BLACK
6
CONTINUOUS
10
136.485
20
-92.915
11
132.835
21
-92.915
0
LINE
8
BLACK
6
CONTINUOUS
10
132.835
20
-92.915
11
132.452
21
-93.0545
0
LINE
8
BLACK
6
CONTINUOUS
10
132.452
20
-93.0545
11
131.663
21
-93.5099
0
LINE
8
BLACK
6
CONTINUOUS
10
131.663
20
-93.5099
11
130.965
21
-94.0954
0
LINE
8
BLACK
6
CONTINUOUS
10
130.965
20
-94.0954
11
130.38
21
-94.7931
0
LINE
8
BLACK
6
CONTINUOUS
10
130.38
20
-94.7931
11
129.925
21
-95.5818
0
LINE
8
BLACK
6
CONTINUOUS
10
129.925
20
-95.5818
11
129.613
21
-96.4377
0
LINE
8
BLACK
6
CONTINUOUS
10
129.613
20
-96.4377
11
129.455
21
-97.3346
0
LINE
8
BLACK
6
CONTINUOUS
10
129.455
20
-97.3346
11
129.455
21
-98.2454
0
LINE
8
BLACK
6
CONTINUOUS
10
129.455
20
-98.2454
11
129.613
21
-99.1423
0
LINE
8
BLACK
6
CONTINUOUS
10
131.365
20
-76.715
11
131.365
21
-85.6188
0
LINE
8
BLACK
6
CONTINUOUS
10
131.365
20
-85.6188
11
131.365
21
-85.62
0
LINE
8
BLACK
6
CONTINUOUS
10
131.365
20
-85.62
11
131.365
21
-85.6249
0
LINE
8
BLACK
6
CONTINUOUS
10
131.365
20
-85.6249
11
131.363
21
-85.6296
0
LINE
8
BLACK
6
CONTINUOUS
10
131.363
20
-85.6296
11
131.361
21
-85.634
0
LINE
8
BLACK
6
CONTINUOUS
10
131.361
20
-85.634
11
131.358
21
-85.6378
0
LINE
8
BLACK
6
CONTINUOUS
10
131.358
20
-85.6378
11
131.354
21
-85.6409
0
LINE
8
BLACK
6
CONTINUOUS
10
131.354
20
-85.6409
11
131.35
21
-85.6432
0
LINE
8
BLACK
6
CONTINUOUS
10
131.35
20
-85.6432
11
131.345
21
-85.6446
0
LINE
8
BLACK
6
CONTINUOUS
10
131.345
20
-85.6446
11
131.341
21
-85.645
0
LINE
8
BLACK
6
CONTINUOUS
10
131.341
20
-85.645
11
131.341
21
-85.645
0
LINE
8
BLACK
6
CONTINUOUS
10
131.341
20
-85.645
11
131.34
21
-85.6451
0
LINE
8
BLACK
6
CONTINUOUS
10
131.34
20
-85.6451
11
131.339
21
-85.645
0
LINE
8
BLACK
6
CONTINUOUS
10
131.339
20
-85.645
11
126.975
21
-85.645
0
LINE
8
BLACK
6
CONTINUOUS
10
126.975
20
-85.645
11
126.975
21
-92.865
0
LINE
8
BLACK
6
CONTINUOUS
10
126.975
20
-92.865
11
132.769
21
-92.865
0
LINE
8
BLACK
6
CONTINUOUS
10
132.769
20
-92.865
11
133.29
21
-92.6754
0
LINE
8
BLACK
6
CONTINUOUS
10
133.29
20
-92.6754
11
134.199
21
-92.5151
0
LINE
8
BLACK
6
CONTINUOUS
10
134.199
20
-92.5151
11
135.121
21
-92.5151
0
LINE
8
BLACK
6
CONTINUOUS
10
135.121
20
-92.5151
11
136.03
21
-92.6754
0
LINE
8
BLACK
6
CONTINUOUS
10
136.03
20
-92.6754
11
136.551
21
-92.865
0
LINE
8
BLACK
6
CONTINUOUS
10
136.551
20
-92.865
11
141.925
21
-92.865
0
LINE
8
BLACK
6
CONTINUOUS
10
141.925
20
-92.865
11
141.925
21
-79.245
0
LINE
8
BLACK
6
CONTINUOUS
10
141.925
20
-79.245
11
140.411
21
-79.245
0
LINE
8
BLACK
6
CONTINUOUS
10
140.411
20
-79.245
11
140.41
21
-79.2451
0
LINE
8
BLACK
6
CONTINUOUS
10
140.41
20
-79.2451
11
140.409
21
-79.245
0
LINE
8
BLACK
6
CONTINUOUS
10
140.409
20
-79.245
11
140.409
21
-79.245
0
LINE
8
BLACK
6
CONTINUOUS
10
140.409
20
-79.245
11
140.405
21
-79.2446
0
LINE
8
BLACK
6
CONTINUOUS
10
140.405
20
-79.2446
11
140.4
21
-79.2432
0
LINE
8
BLACK
6
CONTINUOUS
10
140.4
20
-79.2432
11
140.396
21
-79.2409
0
LINE
8
BLACK
6
CONTINUOUS
10
140.396
20
-79.2409
11
140.392
21
-79.2378
0
LINE
8
BLACK
6
CONTINUOUS
10
140.392
20
-79.2378
11
140.389
21
-79.234
0
LINE
8
BLACK
6
CONTINUOUS
10
140.389
20
-79.234
11
140.387
21
-79.2296
0
LINE
8
BLACK
6
CONTINUOUS
10
140.387
20
-79.2296
11
140.385
21
-79.2249
0
LINE
8
BLACK
6
CONTINUOUS
10
140.385
20
-79.2249
11
140.385
21
-79.22
0
LINE
8
BLACK
6
CONTINUOUS
10
140.385
20
-79.22
11
140.385
21
-79.2188
0
LINE
8
BLACK
6
CONTINUOUS
10
140.385
20
-79.2188
11
140.385
21
-76.715
0
LINE
8
BLACK
6
CONTINUOUS
10
140.385
20
-76.715
11
131.365
21
-76.715
0
LINE
8
BLACK
6
CONTINUOUS
10
134.205
20
-92.5849
11
133.308
21
-92.743
0
LINE
8
BLACK
6
CONTINUOUS
10
133.308
20
-92.743
11
132.973
21
-92.865
0
LINE
8
BLACK
6
CONTINUOUS
10
132.973
20
-92.865
11
136.347
21
-92.865
0
LINE
8
BLACK
6
CONTINUOUS
10
136.347
20
-92.865
11
136.012
21
-92.743
0
LINE
8
BLACK
6
CONTINUOUS
10
136.012
20
-92.743
11
135.115
21
-92.5849
0
LINE
8
BLACK
6
CONTINUOUS
10
135.115
20
-92.5849
11
134.205
21
-92.5849
0
LINE
8
BLACK
6
CONTINUOUS
10
119.015
20
-74.445
11
119.015
21
-85.595
0
LINE
8
BLACK
6
CONTINUOUS
10
119.015
20
-85.595
11
126.925
21
-85.595
0
LINE
8
BLACK
6
CONTINUOUS
10
126.925
20
-85.595
11
126.925
21
-76.6912
0
LINE
8
BLACK
6
CONTINUOUS
10
126.925
20
-76.6912
11
126.925
21
-76.69
0
LINE
8
BLACK
6
CONTINUOUS
10
126.925
20
-76.69
11
126.925
21
-76.6851
0
LINE
8
BLACK
6
CONTINUOUS
10
126.925
20
-76.6851
11
126.927
21
-76.6804
0
LINE
8
BLACK
6
CONTINUOUS
10
126.927
20
-76.6804
11
126.929
21
-76.676
0
LINE
8
BLACK
6
CONTINUOUS
10
126.929
20
-76.676
11
126.932
21
-76.6722
0
LINE
8
BLACK
6
CONTINUOUS
10
126.932
20
-76.6722
11
126.936
21
-76.6691
0
LINE
8
BLACK
6
CONTINUOUS
10
126.936
20
-76.6691
11
126.94
21
-76.6668
0
LINE
8
BLACK
6
CONTINUOUS
10
126.94
20
-76.6668
11
126.945
21
-76.6654
0
LINE
8
BLACK
6
CONTINUOUS
10
126.945
20
-76.6654
11
126.949
21
-76.665
0
LINE
8
BLACK
6
CONTINUOUS
10
126.949
20
-76.665
11
126.95
21
-76.6649
0
LINE
8
BLACK
6
CONTINUOUS
10
126.95
20
-76.6649
11
126.951
21
-76.665
0
LINE
8
BLACK
6
CONTINUOUS
10
126.951
20
-76.665
11
131.315
21
-76.665
0
LINE
8
BLACK
6
CONTINUOUS
10
131.315
20
-76.665
11
131.315
21
-74.445
0
LINE
8
BLACK
6
CONTINUOUS
10
131.315
20
-74.445
11
119.015
21
-74.445
0
LINE
8
BLACK
6
CONTINUOUS
10
126.975
20
-76.715
11
126.975
21
-85.595
0
LINE
8
BLACK
6
CONTINUOUS
10
126.975
20
-85.595
11
131.315
21
-85.595
0
LINE
8
BLACK
6
CONTINUOUS
10
131.315
20
-85.595
11
131.315
21
-76.715
0
LINE
8
BLACK
6
CONTINUOUS
10
131.315
20
-76.715
11
126.975
21
-76.715
0
LINE
8
BLACK
6
CONTINUOUS
10
140.435
20
-76.715
11
140.435
21
-79.195
0
LINE
8
BLACK
6
CONTINUOUS
10
140.435
20
-79.195
11
141.925
21
-79.195
0
LINE
8
BLACK
6
CONTINUOUS
10
141.925
20
-79.195
11
141.925
21
-76.715
0
LINE
8
BLACK
6
CONTINUOUS
10
141.925
20
-76.715
11
140.435
21
-76.715
0
LINE
8
BLACK
6
CONTINUOUS
10
140.435
20
-66.945
11
140.435
21
-76.665
0
LINE
8
BLACK
6
CONTINUOUS
10
140.435
20
-76.665
11
141.949
21
-76.665
0
LINE
8
BLACK
6
CONTINUOUS
10
141.949
20
-76.665
11
141.95
21
-76.6649
0
LINE
8
BLACK
6
CONTINUOUS
10
141.95
20
-76.6649
11
141.951
21
-76.665
0
LINE
8
BLACK
6
CONTINUOUS
10
141.951
20
-76.665
11
141.955
21
-76.6654
0
LINE
8
BLACK
6
CONTINUOUS
10
141.955
20
-76.6654
11
141.96
21
-76.6668
0
LINE
8
BLACK
6
CONTINUOUS
10
141.96
20
-76.6668
11
141.964
21
-76.6691
0
LINE
8
BLACK
6
CONTINUOUS
10
141.964
20
-76.6691
11
141.968
21
-76.6722
0
LINE
8
BLACK
6
CONTINUOUS
10
141.968
20
-76.6722
11
141.971
21
-76.676
0
LINE
8
BLACK
6
CONTINUOUS
10
141.971
20
-76.676
11
141.973
21
-76.6804
0
LINE
8
BLACK
6
CONTINUOUS
10
141.973
20
-76.6804
11
141.975
21
-76.6851
0
LINE
8
BLACK
6
CONTINUOUS
10
141.975
20
-76.6851
11
141.975
21
-76.69
0
LINE
8
BLACK
6
CONTINUOUS
10
141.975
20
-76.69
11
141.975
21
-76.6912
0
LINE
8
BLACK
6
CONTINUOUS
10
141.975
20
-76.6912
11
141.975
21
-79.195
0
LINE
8
BLACK
6
CONTINUOUS
10
141.975
20
-79.195
11
151.585
21
-79.195
0
LINE
8
BLACK
6
CONTINUOUS
10
151.585
20
-79.195
11
151.585
21
-66.945
0
LINE
8
BLACK
6
CONTINUOUS
10
151.585
20
-66.945
11
140.435
21
-66.945
  0
ENDSEC
  0
EOF
