G04 #@! TF.GenerationSoftware,KiCad,Pcbnew,(5.1.5)-3*
G04 #@! TF.CreationDate,2020-04-30T22:30:26+02:00*
G04 #@! TF.ProjectId,heating,68656174-696e-4672-9e6b-696361645f70,rev?*
G04 #@! TF.SameCoordinates,Original*
G04 #@! TF.FileFunction,Copper,L1,Top*
G04 #@! TF.FilePolarity,Positive*
%FSLAX46Y46*%
G04 Gerber Fmt 4.6, Leading zero omitted, Abs format (unit mm)*
G04 Created by KiCad (PCBNEW (5.1.5)-3) date 2020-04-30 22:30:26*
%MOMM*%
%LPD*%
G04 APERTURE LIST*
%ADD10O,1.600000X1.600000*%
%ADD11R,1.600000X1.600000*%
%ADD12O,2.000000X1.700000*%
%ADD13C,0.100000*%
%ADD14C,2.340000*%
%ADD15O,2.400000X2.400000*%
%ADD16C,2.400000*%
%ADD17O,1.700000X1.700000*%
%ADD18R,1.700000X1.700000*%
%ADD19O,1.700000X2.000000*%
%ADD20C,3.000000*%
%ADD21R,3.000000X3.000000*%
%ADD22C,0.800000*%
%ADD23C,1.000000*%
G04 APERTURE END LIST*
D10*
X172720000Y-101600000D03*
X175260000Y-101600000D03*
X135640000Y-101600000D03*
X175260000Y-53340000D03*
X138180000Y-101600000D03*
X172720000Y-53340000D03*
X140720000Y-101600000D03*
X170180000Y-53340000D03*
X143260000Y-101600000D03*
X167640000Y-53340000D03*
X145800000Y-101600000D03*
X165100000Y-53340000D03*
X148340000Y-101600000D03*
X162560000Y-53340000D03*
X150880000Y-101600000D03*
X157480000Y-53340000D03*
X153420000Y-101600000D03*
X154940000Y-53340000D03*
X157480000Y-101600000D03*
X152400000Y-53340000D03*
X160020000Y-101600000D03*
X149860000Y-53340000D03*
X162560000Y-101600000D03*
X147320000Y-53340000D03*
X165100000Y-101600000D03*
X144780000Y-53340000D03*
X167640000Y-101600000D03*
X142240000Y-53340000D03*
X170180000Y-101600000D03*
D11*
X139700000Y-53340000D03*
D10*
X133100000Y-101600000D03*
X130560000Y-101600000D03*
D12*
X152400000Y-118070000D03*
G04 #@! TA.AperFunction,ComponentPad*
D13*
G36*
X153174504Y-114721204D02*
G01*
X153198773Y-114724804D01*
X153222571Y-114730765D01*
X153245671Y-114739030D01*
X153267849Y-114749520D01*
X153288893Y-114762133D01*
X153308598Y-114776747D01*
X153326777Y-114793223D01*
X153343253Y-114811402D01*
X153357867Y-114831107D01*
X153370480Y-114852151D01*
X153380970Y-114874329D01*
X153389235Y-114897429D01*
X153395196Y-114921227D01*
X153398796Y-114945496D01*
X153400000Y-114970000D01*
X153400000Y-116170000D01*
X153398796Y-116194504D01*
X153395196Y-116218773D01*
X153389235Y-116242571D01*
X153380970Y-116265671D01*
X153370480Y-116287849D01*
X153357867Y-116308893D01*
X153343253Y-116328598D01*
X153326777Y-116346777D01*
X153308598Y-116363253D01*
X153288893Y-116377867D01*
X153267849Y-116390480D01*
X153245671Y-116400970D01*
X153222571Y-116409235D01*
X153198773Y-116415196D01*
X153174504Y-116418796D01*
X153150000Y-116420000D01*
X151650000Y-116420000D01*
X151625496Y-116418796D01*
X151601227Y-116415196D01*
X151577429Y-116409235D01*
X151554329Y-116400970D01*
X151532151Y-116390480D01*
X151511107Y-116377867D01*
X151491402Y-116363253D01*
X151473223Y-116346777D01*
X151456747Y-116328598D01*
X151442133Y-116308893D01*
X151429520Y-116287849D01*
X151419030Y-116265671D01*
X151410765Y-116242571D01*
X151404804Y-116218773D01*
X151401204Y-116194504D01*
X151400000Y-116170000D01*
X151400000Y-114970000D01*
X151401204Y-114945496D01*
X151404804Y-114921227D01*
X151410765Y-114897429D01*
X151419030Y-114874329D01*
X151429520Y-114852151D01*
X151442133Y-114831107D01*
X151456747Y-114811402D01*
X151473223Y-114793223D01*
X151491402Y-114776747D01*
X151511107Y-114762133D01*
X151532151Y-114749520D01*
X151554329Y-114739030D01*
X151577429Y-114730765D01*
X151601227Y-114724804D01*
X151625496Y-114721204D01*
X151650000Y-114720000D01*
X153150000Y-114720000D01*
X153174504Y-114721204D01*
G37*
G04 #@! TD.AperFunction*
D14*
X139860000Y-71080000D03*
X149860000Y-68580000D03*
X139860000Y-66080000D03*
D15*
X157480000Y-130810000D03*
D16*
X157480000Y-110490000D03*
D15*
X162560000Y-130810000D03*
D16*
X162560000Y-110490000D03*
D15*
X167640000Y-130810000D03*
D16*
X167640000Y-110490000D03*
D15*
X154940000Y-83820000D03*
D16*
X154940000Y-63500000D03*
D17*
X170180000Y-95250000D03*
X170180000Y-92710000D03*
X170180000Y-90170000D03*
D18*
X170180000Y-87630000D03*
D17*
X121920000Y-92710000D03*
X121920000Y-90170000D03*
X121920000Y-87630000D03*
D18*
X121920000Y-85090000D03*
D12*
X146050000Y-107990000D03*
G04 #@! TA.AperFunction,ComponentPad*
D13*
G36*
X146824504Y-109641204D02*
G01*
X146848773Y-109644804D01*
X146872571Y-109650765D01*
X146895671Y-109659030D01*
X146917849Y-109669520D01*
X146938893Y-109682133D01*
X146958598Y-109696747D01*
X146976777Y-109713223D01*
X146993253Y-109731402D01*
X147007867Y-109751107D01*
X147020480Y-109772151D01*
X147030970Y-109794329D01*
X147039235Y-109817429D01*
X147045196Y-109841227D01*
X147048796Y-109865496D01*
X147050000Y-109890000D01*
X147050000Y-111090000D01*
X147048796Y-111114504D01*
X147045196Y-111138773D01*
X147039235Y-111162571D01*
X147030970Y-111185671D01*
X147020480Y-111207849D01*
X147007867Y-111228893D01*
X146993253Y-111248598D01*
X146976777Y-111266777D01*
X146958598Y-111283253D01*
X146938893Y-111297867D01*
X146917849Y-111310480D01*
X146895671Y-111320970D01*
X146872571Y-111329235D01*
X146848773Y-111335196D01*
X146824504Y-111338796D01*
X146800000Y-111340000D01*
X145300000Y-111340000D01*
X145275496Y-111338796D01*
X145251227Y-111335196D01*
X145227429Y-111329235D01*
X145204329Y-111320970D01*
X145182151Y-111310480D01*
X145161107Y-111297867D01*
X145141402Y-111283253D01*
X145123223Y-111266777D01*
X145106747Y-111248598D01*
X145092133Y-111228893D01*
X145079520Y-111207849D01*
X145069030Y-111185671D01*
X145060765Y-111162571D01*
X145054804Y-111138773D01*
X145051204Y-111114504D01*
X145050000Y-111090000D01*
X145050000Y-109890000D01*
X145051204Y-109865496D01*
X145054804Y-109841227D01*
X145060765Y-109817429D01*
X145069030Y-109794329D01*
X145079520Y-109772151D01*
X145092133Y-109751107D01*
X145106747Y-109731402D01*
X145123223Y-109713223D01*
X145141402Y-109696747D01*
X145161107Y-109682133D01*
X145182151Y-109669520D01*
X145204329Y-109659030D01*
X145227429Y-109650765D01*
X145251227Y-109644804D01*
X145275496Y-109641204D01*
X145300000Y-109640000D01*
X146800000Y-109640000D01*
X146824504Y-109641204D01*
G37*
G04 #@! TD.AperFunction*
D19*
X176490000Y-110490000D03*
G04 #@! TA.AperFunction,ComponentPad*
D13*
G36*
X174614504Y-109491204D02*
G01*
X174638773Y-109494804D01*
X174662571Y-109500765D01*
X174685671Y-109509030D01*
X174707849Y-109519520D01*
X174728893Y-109532133D01*
X174748598Y-109546747D01*
X174766777Y-109563223D01*
X174783253Y-109581402D01*
X174797867Y-109601107D01*
X174810480Y-109622151D01*
X174820970Y-109644329D01*
X174829235Y-109667429D01*
X174835196Y-109691227D01*
X174838796Y-109715496D01*
X174840000Y-109740000D01*
X174840000Y-111240000D01*
X174838796Y-111264504D01*
X174835196Y-111288773D01*
X174829235Y-111312571D01*
X174820970Y-111335671D01*
X174810480Y-111357849D01*
X174797867Y-111378893D01*
X174783253Y-111398598D01*
X174766777Y-111416777D01*
X174748598Y-111433253D01*
X174728893Y-111447867D01*
X174707849Y-111460480D01*
X174685671Y-111470970D01*
X174662571Y-111479235D01*
X174638773Y-111485196D01*
X174614504Y-111488796D01*
X174590000Y-111490000D01*
X173390000Y-111490000D01*
X173365496Y-111488796D01*
X173341227Y-111485196D01*
X173317429Y-111479235D01*
X173294329Y-111470970D01*
X173272151Y-111460480D01*
X173251107Y-111447867D01*
X173231402Y-111433253D01*
X173213223Y-111416777D01*
X173196747Y-111398598D01*
X173182133Y-111378893D01*
X173169520Y-111357849D01*
X173159030Y-111335671D01*
X173150765Y-111312571D01*
X173144804Y-111288773D01*
X173141204Y-111264504D01*
X173140000Y-111240000D01*
X173140000Y-109740000D01*
X173141204Y-109715496D01*
X173144804Y-109691227D01*
X173150765Y-109667429D01*
X173159030Y-109644329D01*
X173169520Y-109622151D01*
X173182133Y-109601107D01*
X173196747Y-109581402D01*
X173213223Y-109563223D01*
X173231402Y-109546747D01*
X173251107Y-109532133D01*
X173272151Y-109519520D01*
X173294329Y-109509030D01*
X173317429Y-109500765D01*
X173341227Y-109494804D01*
X173365496Y-109491204D01*
X173390000Y-109490000D01*
X174590000Y-109490000D01*
X174614504Y-109491204D01*
G37*
G04 #@! TD.AperFunction*
D12*
X177800000Y-118150000D03*
G04 #@! TA.AperFunction,ComponentPad*
D13*
G36*
X178574504Y-119801204D02*
G01*
X178598773Y-119804804D01*
X178622571Y-119810765D01*
X178645671Y-119819030D01*
X178667849Y-119829520D01*
X178688893Y-119842133D01*
X178708598Y-119856747D01*
X178726777Y-119873223D01*
X178743253Y-119891402D01*
X178757867Y-119911107D01*
X178770480Y-119932151D01*
X178780970Y-119954329D01*
X178789235Y-119977429D01*
X178795196Y-120001227D01*
X178798796Y-120025496D01*
X178800000Y-120050000D01*
X178800000Y-121250000D01*
X178798796Y-121274504D01*
X178795196Y-121298773D01*
X178789235Y-121322571D01*
X178780970Y-121345671D01*
X178770480Y-121367849D01*
X178757867Y-121388893D01*
X178743253Y-121408598D01*
X178726777Y-121426777D01*
X178708598Y-121443253D01*
X178688893Y-121457867D01*
X178667849Y-121470480D01*
X178645671Y-121480970D01*
X178622571Y-121489235D01*
X178598773Y-121495196D01*
X178574504Y-121498796D01*
X178550000Y-121500000D01*
X177050000Y-121500000D01*
X177025496Y-121498796D01*
X177001227Y-121495196D01*
X176977429Y-121489235D01*
X176954329Y-121480970D01*
X176932151Y-121470480D01*
X176911107Y-121457867D01*
X176891402Y-121443253D01*
X176873223Y-121426777D01*
X176856747Y-121408598D01*
X176842133Y-121388893D01*
X176829520Y-121367849D01*
X176819030Y-121345671D01*
X176810765Y-121322571D01*
X176804804Y-121298773D01*
X176801204Y-121274504D01*
X176800000Y-121250000D01*
X176800000Y-120050000D01*
X176801204Y-120025496D01*
X176804804Y-120001227D01*
X176810765Y-119977429D01*
X176819030Y-119954329D01*
X176829520Y-119932151D01*
X176842133Y-119911107D01*
X176856747Y-119891402D01*
X176873223Y-119873223D01*
X176891402Y-119856747D01*
X176911107Y-119842133D01*
X176932151Y-119829520D01*
X176954329Y-119819030D01*
X176977429Y-119810765D01*
X177001227Y-119804804D01*
X177025496Y-119801204D01*
X177050000Y-119800000D01*
X178550000Y-119800000D01*
X178574504Y-119801204D01*
G37*
G04 #@! TD.AperFunction*
D20*
X151130000Y-125730000D03*
D21*
X146050000Y-125730000D03*
D17*
X170180000Y-82550000D03*
X170180000Y-80010000D03*
X170180000Y-77470000D03*
D18*
X170180000Y-74930000D03*
D17*
X170180000Y-69850000D03*
X170180000Y-67310000D03*
X170180000Y-64770000D03*
D18*
X170180000Y-62230000D03*
D19*
X161330000Y-64770000D03*
G04 #@! TA.AperFunction,ComponentPad*
D13*
G36*
X164454504Y-63771204D02*
G01*
X164478773Y-63774804D01*
X164502571Y-63780765D01*
X164525671Y-63789030D01*
X164547849Y-63799520D01*
X164568893Y-63812133D01*
X164588598Y-63826747D01*
X164606777Y-63843223D01*
X164623253Y-63861402D01*
X164637867Y-63881107D01*
X164650480Y-63902151D01*
X164660970Y-63924329D01*
X164669235Y-63947429D01*
X164675196Y-63971227D01*
X164678796Y-63995496D01*
X164680000Y-64020000D01*
X164680000Y-65520000D01*
X164678796Y-65544504D01*
X164675196Y-65568773D01*
X164669235Y-65592571D01*
X164660970Y-65615671D01*
X164650480Y-65637849D01*
X164637867Y-65658893D01*
X164623253Y-65678598D01*
X164606777Y-65696777D01*
X164588598Y-65713253D01*
X164568893Y-65727867D01*
X164547849Y-65740480D01*
X164525671Y-65750970D01*
X164502571Y-65759235D01*
X164478773Y-65765196D01*
X164454504Y-65768796D01*
X164430000Y-65770000D01*
X163230000Y-65770000D01*
X163205496Y-65768796D01*
X163181227Y-65765196D01*
X163157429Y-65759235D01*
X163134329Y-65750970D01*
X163112151Y-65740480D01*
X163091107Y-65727867D01*
X163071402Y-65713253D01*
X163053223Y-65696777D01*
X163036747Y-65678598D01*
X163022133Y-65658893D01*
X163009520Y-65637849D01*
X162999030Y-65615671D01*
X162990765Y-65592571D01*
X162984804Y-65568773D01*
X162981204Y-65544504D01*
X162980000Y-65520000D01*
X162980000Y-64020000D01*
X162981204Y-63995496D01*
X162984804Y-63971227D01*
X162990765Y-63947429D01*
X162999030Y-63924329D01*
X163009520Y-63902151D01*
X163022133Y-63881107D01*
X163036747Y-63861402D01*
X163053223Y-63843223D01*
X163071402Y-63826747D01*
X163091107Y-63812133D01*
X163112151Y-63799520D01*
X163134329Y-63789030D01*
X163157429Y-63780765D01*
X163181227Y-63774804D01*
X163205496Y-63771204D01*
X163230000Y-63770000D01*
X164430000Y-63770000D01*
X164454504Y-63771204D01*
G37*
G04 #@! TD.AperFunction*
D22*
X143510000Y-97790000D03*
X146050000Y-99060000D03*
X148590000Y-96520000D03*
X151130000Y-96520000D03*
X151130000Y-93980000D03*
X157480000Y-99060000D03*
X161290000Y-77470000D03*
X133350000Y-80010000D03*
X144780000Y-58420000D03*
X133350000Y-58420000D03*
X176530000Y-97790000D03*
X179070000Y-99060000D03*
X166370000Y-82550000D03*
X165100000Y-81280000D03*
X163830000Y-80010000D03*
X161290000Y-72390000D03*
X157480000Y-88900000D03*
X165100000Y-58420000D03*
X158750000Y-58420000D03*
X154940000Y-97790000D03*
X154940000Y-106680000D03*
X139700000Y-80010000D03*
X149860000Y-58420000D03*
X133350000Y-63500000D03*
D23*
X133350000Y-80010000D02*
X133350000Y-80010000D01*
X133350000Y-80010000D02*
X133350000Y-63500000D01*
X167640000Y-130810000D02*
X162560000Y-130810000D01*
X157480000Y-130810000D02*
X162560000Y-130810000D01*
X120070000Y-85090000D02*
X119380000Y-85780000D01*
X138180000Y-105160000D02*
X138180000Y-101600000D01*
X121920000Y-85090000D02*
X120070000Y-85090000D01*
X138180000Y-105160000D02*
X119630000Y-105160000D01*
X119380000Y-94750000D02*
X119380000Y-85780000D01*
X119630000Y-95000000D02*
X119380000Y-94750000D01*
X119630000Y-105160000D02*
X119630000Y-95000000D01*
X138180000Y-105160000D02*
X138180000Y-126750000D01*
X142240000Y-130810000D02*
X157480000Y-130810000D01*
X138180000Y-126750000D02*
X142240000Y-130810000D01*
X139860000Y-66080000D02*
X137200000Y-66080000D01*
X137200000Y-66080000D02*
X135890000Y-67390000D01*
X138180000Y-98810000D02*
X138180000Y-101600000D01*
X135890000Y-96520000D02*
X138180000Y-98810000D01*
X152400000Y-53340000D02*
X154940000Y-53340000D01*
X121920000Y-59690000D02*
X121920000Y-85090000D01*
X132080000Y-49530000D02*
X121920000Y-59690000D01*
X152400000Y-53340000D02*
X152400000Y-49530000D01*
X152400000Y-49530000D02*
X132080000Y-49530000D01*
X154940000Y-83820000D02*
X154940000Y-80010000D01*
X154940000Y-80010000D02*
X149860000Y-74930000D01*
X135890000Y-67390000D02*
X135890000Y-74930000D01*
X149860000Y-74930000D02*
X135890000Y-74930000D01*
X135890000Y-74930000D02*
X135890000Y-96520000D01*
X154940000Y-80010000D02*
X154940000Y-74930000D01*
X154940000Y-74930000D02*
X170180000Y-74930000D01*
X172030000Y-62230000D02*
X170180000Y-62230000D01*
X173990000Y-74930000D02*
X173990000Y-64190000D01*
X173990000Y-64190000D02*
X172030000Y-62230000D01*
X170180000Y-74930000D02*
X173990000Y-74930000D01*
X154940000Y-83820000D02*
X154940000Y-90170000D01*
X160020000Y-95250000D02*
X170180000Y-95250000D01*
X154940000Y-90170000D02*
X160020000Y-95250000D01*
X173990000Y-124460000D02*
X167640000Y-130810000D01*
X173990000Y-110490000D02*
X173990000Y-120650000D01*
X177800000Y-120650000D02*
X173990000Y-120650000D01*
X173990000Y-120650000D02*
X173990000Y-124460000D01*
X170180000Y-90170000D02*
X172720000Y-90170000D01*
X172720000Y-90170000D02*
X176530000Y-93980000D01*
X176530000Y-93980000D02*
X176530000Y-97790000D01*
X176530000Y-97790000D02*
X176530000Y-97790000D01*
X143510000Y-101350000D02*
X143260000Y-101600000D01*
X143510000Y-97790000D02*
X143510000Y-101350000D01*
X179070000Y-99060000D02*
X179070000Y-99060000D01*
X146050000Y-101350000D02*
X145800000Y-101600000D01*
X146050000Y-99060000D02*
X146050000Y-101350000D01*
X172030000Y-87630000D02*
X170180000Y-87630000D01*
X173990000Y-87630000D02*
X172030000Y-87630000D01*
X179070000Y-99060000D02*
X179070000Y-92710000D01*
X179070000Y-92710000D02*
X173990000Y-87630000D01*
X170180000Y-82550000D02*
X166370000Y-82550000D01*
X166370000Y-82550000D02*
X166370000Y-82550000D01*
X148590000Y-101350000D02*
X148340000Y-101600000D01*
X148590000Y-96520000D02*
X148590000Y-101350000D01*
X154940000Y-63500000D02*
X154940000Y-64770000D01*
X154940000Y-64770000D02*
X161330000Y-64770000D01*
X161330000Y-54570000D02*
X162560000Y-53340000D01*
X161330000Y-64770000D02*
X161330000Y-54570000D01*
X170180000Y-80010000D02*
X166370000Y-80010000D01*
X166370000Y-80010000D02*
X165100000Y-81280000D01*
X165100000Y-81280000D02*
X165100000Y-81280000D01*
X150880000Y-96770000D02*
X151130000Y-96520000D01*
X150880000Y-101600000D02*
X150880000Y-96770000D01*
X170180000Y-77470000D02*
X166370000Y-77470000D01*
X166370000Y-77470000D02*
X163830000Y-80010000D01*
X163830000Y-80010000D02*
X163830000Y-80010000D01*
X153420000Y-96270000D02*
X151130000Y-93980000D01*
X153420000Y-101600000D02*
X153420000Y-96270000D01*
X170180000Y-69850000D02*
X167640000Y-69850000D01*
X167640000Y-69850000D02*
X165100000Y-72390000D01*
X165100000Y-72390000D02*
X161290000Y-72390000D01*
X161290000Y-72390000D02*
X161290000Y-72390000D01*
X161290000Y-77470000D02*
X161290000Y-85090000D01*
X161290000Y-85090000D02*
X157480000Y-88900000D01*
X157480000Y-88900000D02*
X157480000Y-88900000D01*
X157480000Y-99060000D02*
X157480000Y-101600000D01*
X160020000Y-101600000D02*
X160020000Y-105410000D01*
X160020000Y-105410000D02*
X157480000Y-107950000D01*
X157480000Y-107950000D02*
X157480000Y-110490000D01*
X157480000Y-110490000D02*
X146050000Y-110490000D01*
X163830000Y-64770000D02*
X170180000Y-64770000D01*
X139860000Y-71080000D02*
X142280000Y-71080000D01*
X142280000Y-71080000D02*
X149860000Y-63500000D01*
X163830000Y-64770000D02*
X163830000Y-59690000D01*
X163830000Y-59690000D02*
X165100000Y-58420000D01*
X165100000Y-58420000D02*
X165100000Y-58420000D01*
X149860000Y-58420000D02*
X149860000Y-58420000D01*
X149860000Y-58420000D02*
X149860000Y-53340000D01*
X149860000Y-63500000D02*
X149860000Y-58420000D01*
X157480000Y-58420000D02*
X158750000Y-58420000D01*
X158750000Y-58420000D02*
X158750000Y-58420000D01*
X152206480Y-118070000D02*
X152166480Y-118110000D01*
X152400000Y-118070000D02*
X152206480Y-118070000D01*
X152400000Y-118070000D02*
X146090000Y-118070000D01*
X146050000Y-118110000D02*
X146050000Y-125730000D01*
X146090000Y-118070000D02*
X146050000Y-118110000D01*
X146050000Y-107990000D02*
X142280000Y-107990000D01*
X142280000Y-107990000D02*
X142240000Y-108030000D01*
X142240000Y-114300000D02*
X146050000Y-118110000D01*
X142240000Y-108030000D02*
X142240000Y-114300000D01*
X170180000Y-92710000D02*
X171450000Y-92710000D01*
X171450000Y-92710000D02*
X173990000Y-95250000D01*
X173990000Y-95250000D02*
X173990000Y-97790000D01*
X173990000Y-97790000D02*
X154940000Y-97790000D01*
X146050000Y-107990000D02*
X153630000Y-107990000D01*
X153630000Y-107990000D02*
X154940000Y-106680000D01*
X154940000Y-97790000D02*
X154940000Y-97790000D01*
X154940000Y-106680000D02*
X154940000Y-106680000D01*
X154940000Y-97790000D02*
X154940000Y-95250000D01*
X154940000Y-95250000D02*
X139700000Y-80010000D01*
X139700000Y-80010000D02*
X139700000Y-80010000D01*
X149860000Y-58420000D02*
X157480000Y-58420000D01*
X133350000Y-63500000D02*
X133350000Y-63500000D01*
X144780000Y-58420000D02*
X133350000Y-58420000D01*
X162560000Y-101600000D02*
X162560000Y-110490000D01*
X162560000Y-110490000D02*
X162560000Y-113030000D01*
X162560000Y-113030000D02*
X160020000Y-115570000D01*
X160020000Y-115570000D02*
X152400000Y-115570000D01*
X125730000Y-64770000D02*
X125730000Y-87630000D01*
X147320000Y-53340000D02*
X147320000Y-60960000D01*
X125730000Y-87630000D02*
X121920000Y-87630000D01*
X129540000Y-60960000D02*
X125730000Y-64770000D01*
X147320000Y-60960000D02*
X129540000Y-60960000D01*
X165100000Y-101600000D02*
X165100000Y-105410000D01*
X167640000Y-107950000D02*
X167640000Y-110490000D01*
X165100000Y-105410000D02*
X167640000Y-107950000D01*
X167640000Y-110490000D02*
X167640000Y-115570000D01*
X167640000Y-115570000D02*
X157480000Y-125730000D01*
X157480000Y-125730000D02*
X151130000Y-125730000D01*
X176490000Y-110296480D02*
X176530000Y-110256480D01*
X176490000Y-110490000D02*
X176490000Y-110296480D01*
X176530000Y-110256480D02*
X176530000Y-107950000D01*
X173990000Y-107950000D02*
X172720000Y-106680000D01*
X176530000Y-107950000D02*
X173990000Y-107950000D01*
X172720000Y-106680000D02*
X170180000Y-106680000D01*
X167640000Y-104140000D02*
X167640000Y-101600000D01*
X170180000Y-106680000D02*
X167640000Y-104140000D01*
X179800000Y-118150000D02*
X182880000Y-115070000D01*
X177800000Y-118150000D02*
X179800000Y-118150000D01*
X182880000Y-107950000D02*
X180340000Y-105410000D01*
X180340000Y-105410000D02*
X173990000Y-105410000D01*
X173990000Y-105410000D02*
X172720000Y-104140000D01*
X172720000Y-104140000D02*
X170180000Y-104140000D01*
X170180000Y-104140000D02*
X170180000Y-101600000D01*
X182880000Y-107950000D02*
X182880000Y-115070000D01*
X133100000Y-100468630D02*
X131691370Y-99060000D01*
X123190000Y-90170000D02*
X121920000Y-90170000D01*
X133100000Y-101600000D02*
X133100000Y-100468630D01*
X124460000Y-97790000D02*
X124460000Y-91440000D01*
X131691370Y-99060000D02*
X125730000Y-99060000D01*
X124460000Y-91440000D02*
X123190000Y-90170000D01*
X125730000Y-99060000D02*
X124460000Y-97790000D01*
X121920000Y-92710000D02*
X121920000Y-100330000D01*
X123190000Y-101600000D02*
X130560000Y-101600000D01*
X121920000Y-100330000D02*
X123190000Y-101600000D01*
X170180000Y-67310000D02*
X167640000Y-67310000D01*
X167640000Y-67310000D02*
X166370000Y-68580000D01*
X166370000Y-68580000D02*
X149860000Y-68580000D01*
M02*
