  0
SECTION
  2
HEADER
  9
$ANGBASE
  50
0.0
  9
$ANGDIR
  70
1
  9
$MEASUREMENT
  70
1
  0
ENDSEC
  0
SECTION
  2
TABLES
  0
TABLE
  2
LTYPE
  70
4
  0
LTYPE
  5
40F
  2
CONTINUOUS
  70
0
  3
Solid line
  72
65
  73
0
  40
0.0
  0
LTYPE
  5
410
  2
DASHDOT
 70
0
  3
Dash Dot ____ _ ____ _
 72
65
 73
4
 40
2.0
 49
1.25
 49
-0.25
 49
0.25
 49
-0.25
  0
LTYPE
  5
411
  2
DASHED
 70
0
  3
Dashed __ __ __ __ __
 72
65
 73
2
 40
0.75
 49
0.5
 49
-0.25
  0
LTYPE
  5
43B
  2
DOTTED
 70
0
  3
Dotted .  .  .  .
 72
65
 73
2
 40
0.2
 49
0.0
 49
-0.2
  0
ENDTAB
  0
TABLE
  2
STYLE
  70
4
  0
STYLE
  2
KICAD
  70
0
  40
0
  41
1
  42
1
  50
0
  71
0
  3
isocp.shx
  0
STYLE
  2
KICADB
  70
0
  40
0
  41
1
  42
1
  50
0
  71
0
  3
isocp.shx
  0
STYLE
  2
KICADI
  70
0
  40
0
  41
1
  42
1
  50
15
  71
0
  3
isocp.shx
  0
STYLE
  2
KICADBI
  70
0
  40
0
  41
1
  42
1
  50
15
  71
0
  3
isocp.shx
  0
ENDTAB
  0
TABLE
  2
LAYER
  70
1
  0
LAYER
  2
BLACK
  70
0
  62
7
  6
CONTINUOUS
  0
ENDTAB
  0
ENDSEC
  0
SECTION
  2
ENTITIES
0
LINE
8
BLACK
6
CONTINUOUS
10
159.981
20
-109.015
11
159.985
21
-109.015
0
LINE
8
BLACK
6
CONTINUOUS
10
159.985
20
-109.015
11
159.99
21
-109.017
0
LINE
8
BLACK
6
CONTINUOUS
10
159.99
20
-109.017
11
159.994
21
-109.019
0
LINE
8
BLACK
6
CONTINUOUS
10
159.994
20
-109.019
11
159.998
21
-109.022
0
LINE
8
BLACK
6
CONTINUOUS
10
159.998
20
-109.022
11
160.001
21
-109.026
0
LINE
8
BLACK
6
CONTINUOUS
10
160.001
20
-109.026
11
160.003
21
-109.03
0
LINE
8
BLACK
6
CONTINUOUS
10
160.003
20
-109.03
11
160.005
21
-109.035
0
LINE
8
BLACK
6
CONTINUOUS
10
160.005
20
-109.035
11
160.005
21
-109.04
0
LINE
8
BLACK
6
CONTINUOUS
10
160.005
20
-109.04
11
160.005
21
-109.041
0
LINE
8
BLACK
6
CONTINUOUS
10
160.005
20
-109.041
11
160.005
21
-132.259
0
LINE
8
BLACK
6
CONTINUOUS
10
160.005
20
-132.259
11
160.005
21
-132.26
0
LINE
8
BLACK
6
CONTINUOUS
10
160.005
20
-132.26
11
160.005
21
-132.265
0
LINE
8
BLACK
6
CONTINUOUS
10
160.005
20
-132.265
11
160.003
21
-132.27
0
LINE
8
BLACK
6
CONTINUOUS
10
160.003
20
-132.27
11
160.001
21
-132.274
0
LINE
8
BLACK
6
CONTINUOUS
10
160.001
20
-132.274
11
159.998
21
-132.278
0
LINE
8
BLACK
6
CONTINUOUS
10
159.998
20
-132.278
11
159.994
21
-132.281
0
LINE
8
BLACK
6
CONTINUOUS
10
159.994
20
-132.281
11
159.99
21
-132.283
0
LINE
8
BLACK
6
CONTINUOUS
10
159.99
20
-132.283
11
159.985
21
-132.285
0
LINE
8
BLACK
6
CONTINUOUS
10
159.985
20
-132.285
11
159.981
21
-132.285
0
LINE
8
BLACK
6
CONTINUOUS
10
159.981
20
-132.285
11
159.981
21
-132.285
0
LINE
8
BLACK
6
CONTINUOUS
10
159.981
20
-132.285
11
159.98
21
-132.285
0
LINE
8
BLACK
6
CONTINUOUS
10
159.98
20
-132.285
11
159.979
21
-132.285
0
LINE
8
BLACK
6
CONTINUOUS
10
159.979
20
-132.285
11
154.981
21
-132.285
0
LINE
8
BLACK
6
CONTINUOUS
10
154.981
20
-132.285
11
154.98
21
-132.285
0
LINE
8
BLACK
6
CONTINUOUS
10
154.98
20
-132.285
11
154.979
21
-132.285
0
LINE
8
BLACK
6
CONTINUOUS
10
154.979
20
-132.285
11
154.979
21
-132.285
0
LINE
8
BLACK
6
CONTINUOUS
10
154.979
20
-132.285
11
154.975
21
-132.285
0
LINE
8
BLACK
6
CONTINUOUS
10
154.975
20
-132.285
11
154.97
21
-132.283
0
LINE
8
BLACK
6
CONTINUOUS
10
154.97
20
-132.283
11
154.966
21
-132.281
0
LINE
8
BLACK
6
CONTINUOUS
10
154.966
20
-132.281
11
154.962
21
-132.278
0
LINE
8
BLACK
6
CONTINUOUS
10
154.962
20
-132.278
11
154.959
21
-132.274
0
LINE
8
BLACK
6
CONTINUOUS
10
154.959
20
-132.274
11
154.957
21
-132.27
0
LINE
8
BLACK
6
CONTINUOUS
10
154.957
20
-132.27
11
154.955
21
-132.265
0
LINE
8
BLACK
6
CONTINUOUS
10
154.955
20
-132.265
11
154.955
21
-132.26
0
LINE
8
BLACK
6
CONTINUOUS
10
154.955
20
-132.26
11
154.955
21
-132.259
0
LINE
8
BLACK
6
CONTINUOUS
10
154.955
20
-132.259
11
154.955
21
-109.041
0
LINE
8
BLACK
6
CONTINUOUS
10
154.955
20
-109.041
11
154.955
21
-109.04
0
LINE
8
BLACK
6
CONTINUOUS
10
154.955
20
-109.04
11
154.955
21
-109.035
0
LINE
8
BLACK
6
CONTINUOUS
10
154.955
20
-109.035
11
154.957
21
-109.03
0
LINE
8
BLACK
6
CONTINUOUS
10
154.957
20
-109.03
11
154.959
21
-109.026
0
LINE
8
BLACK
6
CONTINUOUS
10
154.959
20
-109.026
11
154.962
21
-109.022
0
LINE
8
BLACK
6
CONTINUOUS
10
154.962
20
-109.022
11
154.966
21
-109.019
0
LINE
8
BLACK
6
CONTINUOUS
10
154.966
20
-109.019
11
154.97
21
-109.017
0
LINE
8
BLACK
6
CONTINUOUS
10
154.97
20
-109.017
11
154.975
21
-109.015
0
LINE
8
BLACK
6
CONTINUOUS
10
154.975
20
-109.015
11
154.979
21
-109.015
0
LINE
8
BLACK
6
CONTINUOUS
10
154.979
20
-109.015
11
154.98
21
-109.015
0
LINE
8
BLACK
6
CONTINUOUS
10
154.98
20
-109.015
11
154.981
21
-109.015
0
LINE
8
BLACK
6
CONTINUOUS
10
154.981
20
-109.015
11
159.979
21
-109.015
0
LINE
8
BLACK
6
CONTINUOUS
10
159.979
20
-109.015
11
159.98
21
-109.015
0
LINE
8
BLACK
6
CONTINUOUS
10
159.98
20
-109.015
11
159.981
21
-109.015
0
LINE
8
BLACK
6
CONTINUOUS
10
155.005
20
-109.065
11
155.005
21
-132.235
0
LINE
8
BLACK
6
CONTINUOUS
10
155.005
20
-132.235
11
159.955
21
-132.235
0
LINE
8
BLACK
6
CONTINUOUS
10
159.955
20
-132.235
11
159.955
21
-109.065
0
LINE
8
BLACK
6
CONTINUOUS
10
159.955
20
-109.065
11
155.005
21
-109.065
0
LINE
8
BLACK
6
CONTINUOUS
10
170.141
20
-109.015
11
170.145
21
-109.015
0
LINE
8
BLACK
6
CONTINUOUS
10
170.145
20
-109.015
11
170.15
21
-109.017
0
LINE
8
BLACK
6
CONTINUOUS
10
170.15
20
-109.017
11
170.154
21
-109.019
0
LINE
8
BLACK
6
CONTINUOUS
10
170.154
20
-109.019
11
170.158
21
-109.022
0
LINE
8
BLACK
6
CONTINUOUS
10
170.158
20
-109.022
11
170.161
21
-109.026
0
LINE
8
BLACK
6
CONTINUOUS
10
170.161
20
-109.026
11
170.163
21
-109.03
0
LINE
8
BLACK
6
CONTINUOUS
10
170.163
20
-109.03
11
170.165
21
-109.035
0
LINE
8
BLACK
6
CONTINUOUS
10
170.165
20
-109.035
11
170.165
21
-109.04
0
LINE
8
BLACK
6
CONTINUOUS
10
170.165
20
-109.04
11
170.165
21
-109.041
0
LINE
8
BLACK
6
CONTINUOUS
10
170.165
20
-109.041
11
170.165
21
-132.259
0
LINE
8
BLACK
6
CONTINUOUS
10
170.165
20
-132.259
11
170.165
21
-132.26
0
LINE
8
BLACK
6
CONTINUOUS
10
170.165
20
-132.26
11
170.165
21
-132.265
0
LINE
8
BLACK
6
CONTINUOUS
10
170.165
20
-132.265
11
170.163
21
-132.27
0
LINE
8
BLACK
6
CONTINUOUS
10
170.163
20
-132.27
11
170.161
21
-132.274
0
LINE
8
BLACK
6
CONTINUOUS
10
170.161
20
-132.274
11
170.158
21
-132.278
0
LINE
8
BLACK
6
CONTINUOUS
10
170.158
20
-132.278
11
170.154
21
-132.281
0
LINE
8
BLACK
6
CONTINUOUS
10
170.154
20
-132.281
11
170.15
21
-132.283
0
LINE
8
BLACK
6
CONTINUOUS
10
170.15
20
-132.283
11
170.145
21
-132.285
0
LINE
8
BLACK
6
CONTINUOUS
10
170.145
20
-132.285
11
170.141
21
-132.285
0
LINE
8
BLACK
6
CONTINUOUS
10
170.141
20
-132.285
11
170.141
21
-132.285
0
LINE
8
BLACK
6
CONTINUOUS
10
170.141
20
-132.285
11
170.14
21
-132.285
0
LINE
8
BLACK
6
CONTINUOUS
10
170.14
20
-132.285
11
170.139
21
-132.285
0
LINE
8
BLACK
6
CONTINUOUS
10
170.139
20
-132.285
11
165.141
21
-132.285
0
LINE
8
BLACK
6
CONTINUOUS
10
165.141
20
-132.285
11
165.14
21
-132.285
0
LINE
8
BLACK
6
CONTINUOUS
10
165.14
20
-132.285
11
165.139
21
-132.285
0
LINE
8
BLACK
6
CONTINUOUS
10
165.139
20
-132.285
11
165.139
21
-132.285
0
LINE
8
BLACK
6
CONTINUOUS
10
165.139
20
-132.285
11
165.135
21
-132.285
0
LINE
8
BLACK
6
CONTINUOUS
10
165.135
20
-132.285
11
165.13
21
-132.283
0
LINE
8
BLACK
6
CONTINUOUS
10
165.13
20
-132.283
11
165.126
21
-132.281
0
LINE
8
BLACK
6
CONTINUOUS
10
165.126
20
-132.281
11
165.122
21
-132.278
0
LINE
8
BLACK
6
CONTINUOUS
10
165.122
20
-132.278
11
165.119
21
-132.274
0
LINE
8
BLACK
6
CONTINUOUS
10
165.119
20
-132.274
11
165.117
21
-132.27
0
LINE
8
BLACK
6
CONTINUOUS
10
165.117
20
-132.27
11
165.115
21
-132.265
0
LINE
8
BLACK
6
CONTINUOUS
10
165.115
20
-132.265
11
165.115
21
-132.26
0
LINE
8
BLACK
6
CONTINUOUS
10
165.115
20
-132.26
11
165.115
21
-132.259
0
LINE
8
BLACK
6
CONTINUOUS
10
165.115
20
-132.259
11
165.115
21
-109.041
0
LINE
8
BLACK
6
CONTINUOUS
10
165.115
20
-109.041
11
165.115
21
-109.04
0
LINE
8
BLACK
6
CONTINUOUS
10
165.115
20
-109.04
11
165.115
21
-109.035
0
LINE
8
BLACK
6
CONTINUOUS
10
165.115
20
-109.035
11
165.117
21
-109.03
0
LINE
8
BLACK
6
CONTINUOUS
10
165.117
20
-109.03
11
165.119
21
-109.026
0
LINE
8
BLACK
6
CONTINUOUS
10
165.119
20
-109.026
11
165.122
21
-109.022
0
LINE
8
BLACK
6
CONTINUOUS
10
165.122
20
-109.022
11
165.126
21
-109.019
0
LINE
8
BLACK
6
CONTINUOUS
10
165.126
20
-109.019
11
165.13
21
-109.017
0
LINE
8
BLACK
6
CONTINUOUS
10
165.13
20
-109.017
11
165.135
21
-109.015
0
LINE
8
BLACK
6
CONTINUOUS
10
165.135
20
-109.015
11
165.139
21
-109.015
0
LINE
8
BLACK
6
CONTINUOUS
10
165.139
20
-109.015
11
165.14
21
-109.015
0
LINE
8
BLACK
6
CONTINUOUS
10
165.14
20
-109.015
11
165.141
21
-109.015
0
LINE
8
BLACK
6
CONTINUOUS
10
165.141
20
-109.015
11
170.139
21
-109.015
0
LINE
8
BLACK
6
CONTINUOUS
10
170.139
20
-109.015
11
170.14
21
-109.015
0
LINE
8
BLACK
6
CONTINUOUS
10
170.14
20
-109.015
11
170.141
21
-109.015
0
LINE
8
BLACK
6
CONTINUOUS
10
165.165
20
-109.065
11
165.165
21
-132.235
0
LINE
8
BLACK
6
CONTINUOUS
10
165.165
20
-132.235
11
170.115
21
-132.235
0
LINE
8
BLACK
6
CONTINUOUS
10
170.115
20
-132.235
11
170.115
21
-109.065
0
LINE
8
BLACK
6
CONTINUOUS
10
170.115
20
-109.065
11
165.165
21
-109.065
0
LINE
8
BLACK
6
CONTINUOUS
10
165.061
20
-109.015
11
165.065
21
-109.015
0
LINE
8
BLACK
6
CONTINUOUS
10
165.065
20
-109.015
11
165.07
21
-109.017
0
LINE
8
BLACK
6
CONTINUOUS
10
165.07
20
-109.017
11
165.074
21
-109.019
0
LINE
8
BLACK
6
CONTINUOUS
10
165.074
20
-109.019
11
165.078
21
-109.022
0
LINE
8
BLACK
6
CONTINUOUS
10
165.078
20
-109.022
11
165.081
21
-109.026
0
LINE
8
BLACK
6
CONTINUOUS
10
165.081
20
-109.026
11
165.083
21
-109.03
0
LINE
8
BLACK
6
CONTINUOUS
10
165.083
20
-109.03
11
165.085
21
-109.035
0
LINE
8
BLACK
6
CONTINUOUS
10
165.085
20
-109.035
11
165.085
21
-109.04
0
LINE
8
BLACK
6
CONTINUOUS
10
165.085
20
-109.04
11
165.085
21
-109.041
0
LINE
8
BLACK
6
CONTINUOUS
10
165.085
20
-109.041
11
165.085
21
-132.259
0
LINE
8
BLACK
6
CONTINUOUS
10
165.085
20
-132.259
11
165.085
21
-132.26
0
LINE
8
BLACK
6
CONTINUOUS
10
165.085
20
-132.26
11
165.085
21
-132.265
0
LINE
8
BLACK
6
CONTINUOUS
10
165.085
20
-132.265
11
165.083
21
-132.27
0
LINE
8
BLACK
6
CONTINUOUS
10
165.083
20
-132.27
11
165.081
21
-132.274
0
LINE
8
BLACK
6
CONTINUOUS
10
165.081
20
-132.274
11
165.078
21
-132.278
0
LINE
8
BLACK
6
CONTINUOUS
10
165.078
20
-132.278
11
165.074
21
-132.281
0
LINE
8
BLACK
6
CONTINUOUS
10
165.074
20
-132.281
11
165.07
21
-132.283
0
LINE
8
BLACK
6
CONTINUOUS
10
165.07
20
-132.283
11
165.065
21
-132.285
0
LINE
8
BLACK
6
CONTINUOUS
10
165.065
20
-132.285
11
165.061
21
-132.285
0
LINE
8
BLACK
6
CONTINUOUS
10
165.061
20
-132.285
11
165.061
21
-132.285
0
LINE
8
BLACK
6
CONTINUOUS
10
165.061
20
-132.285
11
165.06
21
-132.285
0
LINE
8
BLACK
6
CONTINUOUS
10
165.06
20
-132.285
11
165.059
21
-132.285
0
LINE
8
BLACK
6
CONTINUOUS
10
165.059
20
-132.285
11
160.061
21
-132.285
0
LINE
8
BLACK
6
CONTINUOUS
10
160.061
20
-132.285
11
160.06
21
-132.285
0
LINE
8
BLACK
6
CONTINUOUS
10
160.06
20
-132.285
11
160.059
21
-132.285
0
LINE
8
BLACK
6
CONTINUOUS
10
160.059
20
-132.285
11
160.059
21
-132.285
0
LINE
8
BLACK
6
CONTINUOUS
10
160.059
20
-132.285
11
160.055
21
-132.285
0
LINE
8
BLACK
6
CONTINUOUS
10
160.055
20
-132.285
11
160.05
21
-132.283
0
LINE
8
BLACK
6
CONTINUOUS
10
160.05
20
-132.283
11
160.046
21
-132.281
0
LINE
8
BLACK
6
CONTINUOUS
10
160.046
20
-132.281
11
160.042
21
-132.278
0
LINE
8
BLACK
6
CONTINUOUS
10
160.042
20
-132.278
11
160.039
21
-132.274
0
LINE
8
BLACK
6
CONTINUOUS
10
160.039
20
-132.274
11
160.037
21
-132.27
0
LINE
8
BLACK
6
CONTINUOUS
10
160.037
20
-132.27
11
160.035
21
-132.265
0
LINE
8
BLACK
6
CONTINUOUS
10
160.035
20
-132.265
11
160.035
21
-132.26
0
LINE
8
BLACK
6
CONTINUOUS
10
160.035
20
-132.26
11
160.035
21
-132.259
0
LINE
8
BLACK
6
CONTINUOUS
10
160.035
20
-132.259
11
160.035
21
-109.041
0
LINE
8
BLACK
6
CONTINUOUS
10
160.035
20
-109.041
11
160.035
21
-109.04
0
LINE
8
BLACK
6
CONTINUOUS
10
160.035
20
-109.04
11
160.035
21
-109.035
0
LINE
8
BLACK
6
CONTINUOUS
10
160.035
20
-109.035
11
160.037
21
-109.03
0
LINE
8
BLACK
6
CONTINUOUS
10
160.037
20
-109.03
11
160.039
21
-109.026
0
LINE
8
BLACK
6
CONTINUOUS
10
160.039
20
-109.026
11
160.042
21
-109.022
0
LINE
8
BLACK
6
CONTINUOUS
10
160.042
20
-109.022
11
160.046
21
-109.019
0
LINE
8
BLACK
6
CONTINUOUS
10
160.046
20
-109.019
11
160.05
21
-109.017
0
LINE
8
BLACK
6
CONTINUOUS
10
160.05
20
-109.017
11
160.055
21
-109.015
0
LINE
8
BLACK
6
CONTINUOUS
10
160.055
20
-109.015
11
160.059
21
-109.015
0
LINE
8
BLACK
6
CONTINUOUS
10
160.059
20
-109.015
11
160.06
21
-109.015
0
LINE
8
BLACK
6
CONTINUOUS
10
160.06
20
-109.015
11
160.061
21
-109.015
0
LINE
8
BLACK
6
CONTINUOUS
10
160.061
20
-109.015
11
165.059
21
-109.015
0
LINE
8
BLACK
6
CONTINUOUS
10
165.059
20
-109.015
11
165.06
21
-109.015
0
LINE
8
BLACK
6
CONTINUOUS
10
165.06
20
-109.015
11
165.061
21
-109.015
0
LINE
8
BLACK
6
CONTINUOUS
10
160.085
20
-109.065
11
160.085
21
-132.235
0
LINE
8
BLACK
6
CONTINUOUS
10
160.085
20
-132.235
11
165.035
21
-132.235
0
LINE
8
BLACK
6
CONTINUOUS
10
165.035
20
-132.235
11
165.035
21
-109.065
0
LINE
8
BLACK
6
CONTINUOUS
10
165.035
20
-109.065
11
160.085
21
-109.065
0
LINE
8
BLACK
6
CONTINUOUS
10
153.841
20
-121.705
11
153.845
21
-121.705
0
LINE
8
BLACK
6
CONTINUOUS
10
153.845
20
-121.705
11
153.85
21
-121.707
0
LINE
8
BLACK
6
CONTINUOUS
10
153.85
20
-121.707
11
153.854
21
-121.709
0
LINE
8
BLACK
6
CONTINUOUS
10
153.854
20
-121.709
11
153.858
21
-121.712
0
LINE
8
BLACK
6
CONTINUOUS
10
153.858
20
-121.712
11
153.861
21
-121.716
0
LINE
8
BLACK
6
CONTINUOUS
10
153.861
20
-121.716
11
153.863
21
-121.72
0
LINE
8
BLACK
6
CONTINUOUS
10
153.863
20
-121.72
11
153.865
21
-121.725
0
LINE
8
BLACK
6
CONTINUOUS
10
153.865
20
-121.725
11
153.865
21
-121.73
0
LINE
8
BLACK
6
CONTINUOUS
10
153.865
20
-121.73
11
153.865
21
-121.731
0
LINE
8
BLACK
6
CONTINUOUS
10
153.865
20
-121.731
11
153.865
21
-129.729
0
LINE
8
BLACK
6
CONTINUOUS
10
153.865
20
-129.729
11
153.865
21
-129.73
0
LINE
8
BLACK
6
CONTINUOUS
10
153.865
20
-129.73
11
153.865
21
-129.735
0
LINE
8
BLACK
6
CONTINUOUS
10
153.865
20
-129.735
11
153.863
21
-129.74
0
LINE
8
BLACK
6
CONTINUOUS
10
153.863
20
-129.74
11
153.861
21
-129.744
0
LINE
8
BLACK
6
CONTINUOUS
10
153.861
20
-129.744
11
153.858
21
-129.748
0
LINE
8
BLACK
6
CONTINUOUS
10
153.858
20
-129.748
11
153.854
21
-129.751
0
LINE
8
BLACK
6
CONTINUOUS
10
153.854
20
-129.751
11
153.85
21
-129.753
0
LINE
8
BLACK
6
CONTINUOUS
10
153.85
20
-129.753
11
153.845
21
-129.755
0
LINE
8
BLACK
6
CONTINUOUS
10
153.845
20
-129.755
11
153.841
21
-129.755
0
LINE
8
BLACK
6
CONTINUOUS
10
153.841
20
-129.755
11
153.841
21
-129.755
0
LINE
8
BLACK
6
CONTINUOUS
10
153.841
20
-129.755
11
153.84
21
-129.755
0
LINE
8
BLACK
6
CONTINUOUS
10
153.84
20
-129.755
11
153.839
21
-129.755
0
LINE
8
BLACK
6
CONTINUOUS
10
153.839
20
-129.755
11
143.341
21
-129.755
0
LINE
8
BLACK
6
CONTINUOUS
10
143.341
20
-129.755
11
143.34
21
-129.755
0
LINE
8
BLACK
6
CONTINUOUS
10
143.34
20
-129.755
11
143.339
21
-129.755
0
LINE
8
BLACK
6
CONTINUOUS
10
143.339
20
-129.755
11
143.339
21
-129.755
0
LINE
8
BLACK
6
CONTINUOUS
10
143.339
20
-129.755
11
143.335
21
-129.755
0
LINE
8
BLACK
6
CONTINUOUS
10
143.335
20
-129.755
11
143.33
21
-129.753
0
LINE
8
BLACK
6
CONTINUOUS
10
143.33
20
-129.753
11
143.326
21
-129.751
0
LINE
8
BLACK
6
CONTINUOUS
10
143.326
20
-129.751
11
143.322
21
-129.748
0
LINE
8
BLACK
6
CONTINUOUS
10
143.322
20
-129.748
11
143.319
21
-129.744
0
LINE
8
BLACK
6
CONTINUOUS
10
143.319
20
-129.744
11
143.317
21
-129.74
0
LINE
8
BLACK
6
CONTINUOUS
10
143.317
20
-129.74
11
143.315
21
-129.735
0
LINE
8
BLACK
6
CONTINUOUS
10
143.315
20
-129.735
11
143.315
21
-129.73
0
LINE
8
BLACK
6
CONTINUOUS
10
143.315
20
-129.73
11
143.315
21
-129.729
0
LINE
8
BLACK
6
CONTINUOUS
10
143.315
20
-129.729
11
143.315
21
-121.731
0
LINE
8
BLACK
6
CONTINUOUS
10
143.315
20
-121.731
11
143.315
21
-121.73
0
LINE
8
BLACK
6
CONTINUOUS
10
143.315
20
-121.73
11
143.315
21
-121.725
0
LINE
8
BLACK
6
CONTINUOUS
10
143.315
20
-121.725
11
143.317
21
-121.72
0
LINE
8
BLACK
6
CONTINUOUS
10
143.317
20
-121.72
11
143.319
21
-121.716
0
LINE
8
BLACK
6
CONTINUOUS
10
143.319
20
-121.716
11
143.322
21
-121.712
0
LINE
8
BLACK
6
CONTINUOUS
10
143.322
20
-121.712
11
143.326
21
-121.709
0
LINE
8
BLACK
6
CONTINUOUS
10
143.326
20
-121.709
11
143.33
21
-121.707
0
LINE
8
BLACK
6
CONTINUOUS
10
143.33
20
-121.707
11
143.335
21
-121.705
0
LINE
8
BLACK
6
CONTINUOUS
10
143.335
20
-121.705
11
143.339
21
-121.705
0
LINE
8
BLACK
6
CONTINUOUS
10
143.339
20
-121.705
11
143.34
21
-121.705
0
LINE
8
BLACK
6
CONTINUOUS
10
143.34
20
-121.705
11
143.341
21
-121.705
0
LINE
8
BLACK
6
CONTINUOUS
10
143.341
20
-121.705
11
153.839
21
-121.705
0
LINE
8
BLACK
6
CONTINUOUS
10
153.839
20
-121.705
11
153.84
21
-121.705
0
LINE
8
BLACK
6
CONTINUOUS
10
153.84
20
-121.705
11
153.841
21
-121.705
0
LINE
8
BLACK
6
CONTINUOUS
10
143.365
20
-121.755
11
143.365
21
-129.705
0
LINE
8
BLACK
6
CONTINUOUS
10
143.365
20
-129.705
11
153.815
21
-129.705
0
LINE
8
BLACK
6
CONTINUOUS
10
153.815
20
-129.705
11
153.815
21
-121.755
0
LINE
8
BLACK
6
CONTINUOUS
10
153.815
20
-121.755
11
143.365
21
-121.755
0
LINE
8
BLACK
6
CONTINUOUS
10
133.311
20
-106.475
11
133.315
21
-106.475
0
LINE
8
BLACK
6
CONTINUOUS
10
133.315
20
-106.475
11
133.32
21
-106.477
0
LINE
8
BLACK
6
CONTINUOUS
10
133.32
20
-106.477
11
133.324
21
-106.479
0
LINE
8
BLACK
6
CONTINUOUS
10
133.324
20
-106.479
11
133.328
21
-106.482
0
LINE
8
BLACK
6
CONTINUOUS
10
133.328
20
-106.482
11
133.331
21
-106.486
0
LINE
8
BLACK
6
CONTINUOUS
10
133.331
20
-106.486
11
133.333
21
-106.49
0
LINE
8
BLACK
6
CONTINUOUS
10
133.333
20
-106.49
11
133.335
21
-106.495
0
LINE
8
BLACK
6
CONTINUOUS
10
133.335
20
-106.495
11
133.335
21
-106.5
0
LINE
8
BLACK
6
CONTINUOUS
10
133.335
20
-106.5
11
133.335
21
-106.501
0
LINE
8
BLACK
6
CONTINUOUS
10
133.335
20
-106.501
11
133.335
21
-129.719
0
LINE
8
BLACK
6
CONTINUOUS
10
133.335
20
-129.719
11
133.335
21
-129.72
0
LINE
8
BLACK
6
CONTINUOUS
10
133.335
20
-129.72
11
133.335
21
-129.725
0
LINE
8
BLACK
6
CONTINUOUS
10
133.335
20
-129.725
11
133.333
21
-129.73
0
LINE
8
BLACK
6
CONTINUOUS
10
133.333
20
-129.73
11
133.331
21
-129.734
0
LINE
8
BLACK
6
CONTINUOUS
10
133.331
20
-129.734
11
133.328
21
-129.738
0
LINE
8
BLACK
6
CONTINUOUS
10
133.328
20
-129.738
11
133.324
21
-129.741
0
LINE
8
BLACK
6
CONTINUOUS
10
133.324
20
-129.741
11
133.32
21
-129.743
0
LINE
8
BLACK
6
CONTINUOUS
10
133.32
20
-129.743
11
133.315
21
-129.745
0
LINE
8
BLACK
6
CONTINUOUS
10
133.315
20
-129.745
11
133.311
21
-129.745
0
LINE
8
BLACK
6
CONTINUOUS
10
133.311
20
-129.745
11
133.311
21
-129.745
0
LINE
8
BLACK
6
CONTINUOUS
10
133.311
20
-129.745
11
133.31
21
-129.745
0
LINE
8
BLACK
6
CONTINUOUS
10
133.31
20
-129.745
11
133.309
21
-129.745
0
LINE
8
BLACK
6
CONTINUOUS
10
133.309
20
-129.745
11
128.311
21
-129.745
0
LINE
8
BLACK
6
CONTINUOUS
10
128.311
20
-129.745
11
128.31
21
-129.745
0
LINE
8
BLACK
6
CONTINUOUS
10
128.31
20
-129.745
11
128.309
21
-129.745
0
LINE
8
BLACK
6
CONTINUOUS
10
128.309
20
-129.745
11
128.309
21
-129.745
0
LINE
8
BLACK
6
CONTINUOUS
10
128.309
20
-129.745
11
128.305
21
-129.745
0
LINE
8
BLACK
6
CONTINUOUS
10
128.305
20
-129.745
11
128.3
21
-129.743
0
LINE
8
BLACK
6
CONTINUOUS
10
128.3
20
-129.743
11
128.296
21
-129.741
0
LINE
8
BLACK
6
CONTINUOUS
10
128.296
20
-129.741
11
128.292
21
-129.738
0
LINE
8
BLACK
6
CONTINUOUS
10
128.292
20
-129.738
11
128.289
21
-129.734
0
LINE
8
BLACK
6
CONTINUOUS
10
128.289
20
-129.734
11
128.287
21
-129.73
0
LINE
8
BLACK
6
CONTINUOUS
10
128.287
20
-129.73
11
128.285
21
-129.725
0
LINE
8
BLACK
6
CONTINUOUS
10
128.285
20
-129.725
11
128.285
21
-129.72
0
LINE
8
BLACK
6
CONTINUOUS
10
128.285
20
-129.72
11
128.285
21
-129.719
0
LINE
8
BLACK
6
CONTINUOUS
10
128.285
20
-129.719
11
128.285
21
-106.501
0
LINE
8
BLACK
6
CONTINUOUS
10
128.285
20
-106.501
11
128.285
21
-106.5
0
LINE
8
BLACK
6
CONTINUOUS
10
128.285
20
-106.5
11
128.285
21
-106.495
0
LINE
8
BLACK
6
CONTINUOUS
10
128.285
20
-106.495
11
128.287
21
-106.49
0
LINE
8
BLACK
6
CONTINUOUS
10
128.287
20
-106.49
11
128.289
21
-106.486
0
LINE
8
BLACK
6
CONTINUOUS
10
128.289
20
-106.486
11
128.292
21
-106.482
0
LINE
8
BLACK
6
CONTINUOUS
10
128.292
20
-106.482
11
128.296
21
-106.479
0
LINE
8
BLACK
6
CONTINUOUS
10
128.296
20
-106.479
11
128.3
21
-106.477
0
LINE
8
BLACK
6
CONTINUOUS
10
128.3
20
-106.477
11
128.305
21
-106.475
0
LINE
8
BLACK
6
CONTINUOUS
10
128.305
20
-106.475
11
128.309
21
-106.475
0
LINE
8
BLACK
6
CONTINUOUS
10
128.309
20
-106.475
11
128.31
21
-106.475
0
LINE
8
BLACK
6
CONTINUOUS
10
128.31
20
-106.475
11
128.311
21
-106.475
0
LINE
8
BLACK
6
CONTINUOUS
10
128.311
20
-106.475
11
133.309
21
-106.475
0
LINE
8
BLACK
6
CONTINUOUS
10
133.309
20
-106.475
11
133.31
21
-106.475
0
LINE
8
BLACK
6
CONTINUOUS
10
133.31
20
-106.475
11
133.311
21
-106.475
0
LINE
8
BLACK
6
CONTINUOUS
10
128.335
20
-106.525
11
128.335
21
-129.695
0
LINE
8
BLACK
6
CONTINUOUS
10
128.335
20
-129.695
11
133.285
21
-129.695
0
LINE
8
BLACK
6
CONTINUOUS
10
133.285
20
-129.695
11
133.285
21
-106.525
0
LINE
8
BLACK
6
CONTINUOUS
10
133.285
20
-106.525
11
128.335
21
-106.525
0
LINE
8
BLACK
6
CONTINUOUS
10
180.501
20
-115.125
11
180.505
21
-115.125
0
LINE
8
BLACK
6
CONTINUOUS
10
180.505
20
-115.125
11
180.51
21
-115.127
0
LINE
8
BLACK
6
CONTINUOUS
10
180.51
20
-115.127
11
180.514
21
-115.129
0
LINE
8
BLACK
6
CONTINUOUS
10
180.514
20
-115.129
11
180.518
21
-115.132
0
LINE
8
BLACK
6
CONTINUOUS
10
180.518
20
-115.132
11
180.521
21
-115.136
0
LINE
8
BLACK
6
CONTINUOUS
10
180.521
20
-115.136
11
180.523
21
-115.14
0
LINE
8
BLACK
6
CONTINUOUS
10
180.523
20
-115.14
11
180.525
21
-115.145
0
LINE
8
BLACK
6
CONTINUOUS
10
180.525
20
-115.145
11
180.525
21
-115.15
0
LINE
8
BLACK
6
CONTINUOUS
10
180.525
20
-115.15
11
180.525
21
-115.151
0
LINE
8
BLACK
6
CONTINUOUS
10
180.525
20
-115.151
11
180.525
21
-123.649
0
LINE
8
BLACK
6
CONTINUOUS
10
180.525
20
-123.649
11
180.525
21
-123.65
0
LINE
8
BLACK
6
CONTINUOUS
10
180.525
20
-123.65
11
180.525
21
-123.655
0
LINE
8
BLACK
6
CONTINUOUS
10
180.525
20
-123.655
11
180.523
21
-123.66
0
LINE
8
BLACK
6
CONTINUOUS
10
180.523
20
-123.66
11
180.521
21
-123.664
0
LINE
8
BLACK
6
CONTINUOUS
10
180.521
20
-123.664
11
180.518
21
-123.668
0
LINE
8
BLACK
6
CONTINUOUS
10
180.518
20
-123.668
11
180.514
21
-123.671
0
LINE
8
BLACK
6
CONTINUOUS
10
180.514
20
-123.671
11
180.51
21
-123.673
0
LINE
8
BLACK
6
CONTINUOUS
10
180.51
20
-123.673
11
180.505
21
-123.675
0
LINE
8
BLACK
6
CONTINUOUS
10
180.505
20
-123.675
11
180.501
21
-123.675
0
LINE
8
BLACK
6
CONTINUOUS
10
180.501
20
-123.675
11
180.501
21
-123.675
0
LINE
8
BLACK
6
CONTINUOUS
10
180.501
20
-123.675
11
180.5
21
-123.675
0
LINE
8
BLACK
6
CONTINUOUS
10
180.5
20
-123.675
11
180.499
21
-123.675
0
LINE
8
BLACK
6
CONTINUOUS
10
180.499
20
-123.675
11
175.701
21
-123.675
0
LINE
8
BLACK
6
CONTINUOUS
10
175.701
20
-123.675
11
175.7
21
-123.675
0
LINE
8
BLACK
6
CONTINUOUS
10
175.7
20
-123.675
11
175.699
21
-123.675
0
LINE
8
BLACK
6
CONTINUOUS
10
175.699
20
-123.675
11
175.699
21
-123.675
0
LINE
8
BLACK
6
CONTINUOUS
10
175.699
20
-123.675
11
175.695
21
-123.675
0
LINE
8
BLACK
6
CONTINUOUS
10
175.695
20
-123.675
11
175.69
21
-123.673
0
LINE
8
BLACK
6
CONTINUOUS
10
175.69
20
-123.673
11
175.686
21
-123.671
0
LINE
8
BLACK
6
CONTINUOUS
10
175.686
20
-123.671
11
175.682
21
-123.668
0
LINE
8
BLACK
6
CONTINUOUS
10
175.682
20
-123.668
11
175.679
21
-123.664
0
LINE
8
BLACK
6
CONTINUOUS
10
175.679
20
-123.664
11
175.677
21
-123.66
0
LINE
8
BLACK
6
CONTINUOUS
10
175.677
20
-123.66
11
175.675
21
-123.655
0
LINE
8
BLACK
6
CONTINUOUS
10
175.675
20
-123.655
11
175.675
21
-123.65
0
LINE
8
BLACK
6
CONTINUOUS
10
175.675
20
-123.65
11
175.675
21
-123.649
0
LINE
8
BLACK
6
CONTINUOUS
10
175.675
20
-123.649
11
175.675
21
-115.151
0
LINE
8
BLACK
6
CONTINUOUS
10
175.675
20
-115.151
11
175.675
21
-115.15
0
LINE
8
BLACK
6
CONTINUOUS
10
175.675
20
-115.15
11
175.675
21
-115.145
0
LINE
8
BLACK
6
CONTINUOUS
10
175.675
20
-115.145
11
175.677
21
-115.14
0
LINE
8
BLACK
6
CONTINUOUS
10
175.677
20
-115.14
11
175.679
21
-115.136
0
LINE
8
BLACK
6
CONTINUOUS
10
175.679
20
-115.136
11
175.682
21
-115.132
0
LINE
8
BLACK
6
CONTINUOUS
10
175.682
20
-115.132
11
175.686
21
-115.129
0
LINE
8
BLACK
6
CONTINUOUS
10
175.686
20
-115.129
11
175.69
21
-115.127
0
LINE
8
BLACK
6
CONTINUOUS
10
175.69
20
-115.127
11
175.695
21
-115.125
0
LINE
8
BLACK
6
CONTINUOUS
10
175.695
20
-115.125
11
175.699
21
-115.125
0
LINE
8
BLACK
6
CONTINUOUS
10
175.699
20
-115.125
11
175.7
21
-115.125
0
LINE
8
BLACK
6
CONTINUOUS
10
175.7
20
-115.125
11
175.701
21
-115.125
0
LINE
8
BLACK
6
CONTINUOUS
10
175.701
20
-115.125
11
180.499
21
-115.125
0
LINE
8
BLACK
6
CONTINUOUS
10
180.499
20
-115.125
11
180.5
21
-115.125
0
LINE
8
BLACK
6
CONTINUOUS
10
180.5
20
-115.125
11
180.501
21
-115.125
0
LINE
8
BLACK
6
CONTINUOUS
10
175.725
20
-115.175
11
175.725
21
-123.625
0
LINE
8
BLACK
6
CONTINUOUS
10
175.725
20
-123.625
11
180.475
21
-123.625
0
LINE
8
BLACK
6
CONTINUOUS
10
180.475
20
-123.625
11
180.475
21
-115.175
0
LINE
8
BLACK
6
CONTINUOUS
10
180.475
20
-115.175
11
175.725
21
-115.175
0
LINE
8
BLACK
6
CONTINUOUS
10
154.501
20
-112.545
11
154.505
21
-112.545
0
LINE
8
BLACK
6
CONTINUOUS
10
154.505
20
-112.545
11
154.51
21
-112.547
0
LINE
8
BLACK
6
CONTINUOUS
10
154.51
20
-112.547
11
154.514
21
-112.549
0
LINE
8
BLACK
6
CONTINUOUS
10
154.514
20
-112.549
11
154.518
21
-112.552
0
LINE
8
BLACK
6
CONTINUOUS
10
154.518
20
-112.552
11
154.521
21
-112.556
0
LINE
8
BLACK
6
CONTINUOUS
10
154.521
20
-112.556
11
154.523
21
-112.56
0
LINE
8
BLACK
6
CONTINUOUS
10
154.523
20
-112.56
11
154.525
21
-112.565
0
LINE
8
BLACK
6
CONTINUOUS
10
154.525
20
-112.565
11
154.525
21
-112.57
0
LINE
8
BLACK
6
CONTINUOUS
10
154.525
20
-112.57
11
154.525
21
-112.571
0
LINE
8
BLACK
6
CONTINUOUS
10
154.525
20
-112.571
11
154.525
21
-121.069
0
LINE
8
BLACK
6
CONTINUOUS
10
154.525
20
-121.069
11
154.525
21
-121.07
0
LINE
8
BLACK
6
CONTINUOUS
10
154.525
20
-121.07
11
154.525
21
-121.075
0
LINE
8
BLACK
6
CONTINUOUS
10
154.525
20
-121.075
11
154.523
21
-121.08
0
LINE
8
BLACK
6
CONTINUOUS
10
154.523
20
-121.08
11
154.521
21
-121.084
0
LINE
8
BLACK
6
CONTINUOUS
10
154.521
20
-121.084
11
154.518
21
-121.088
0
LINE
8
BLACK
6
CONTINUOUS
10
154.518
20
-121.088
11
154.514
21
-121.091
0
LINE
8
BLACK
6
CONTINUOUS
10
154.514
20
-121.091
11
154.51
21
-121.093
0
LINE
8
BLACK
6
CONTINUOUS
10
154.51
20
-121.093
11
154.505
21
-121.095
0
LINE
8
BLACK
6
CONTINUOUS
10
154.505
20
-121.095
11
154.501
21
-121.095
0
LINE
8
BLACK
6
CONTINUOUS
10
154.501
20
-121.095
11
154.501
21
-121.095
0
LINE
8
BLACK
6
CONTINUOUS
10
154.501
20
-121.095
11
154.5
21
-121.095
0
LINE
8
BLACK
6
CONTINUOUS
10
154.5
20
-121.095
11
154.499
21
-121.095
0
LINE
8
BLACK
6
CONTINUOUS
10
154.499
20
-121.095
11
149.701
21
-121.095
0
LINE
8
BLACK
6
CONTINUOUS
10
149.701
20
-121.095
11
149.7
21
-121.095
0
LINE
8
BLACK
6
CONTINUOUS
10
149.7
20
-121.095
11
149.699
21
-121.095
0
LINE
8
BLACK
6
CONTINUOUS
10
149.699
20
-121.095
11
149.699
21
-121.095
0
LINE
8
BLACK
6
CONTINUOUS
10
149.699
20
-121.095
11
149.695
21
-121.095
0
LINE
8
BLACK
6
CONTINUOUS
10
149.695
20
-121.095
11
149.69
21
-121.093
0
LINE
8
BLACK
6
CONTINUOUS
10
149.69
20
-121.093
11
149.686
21
-121.091
0
LINE
8
BLACK
6
CONTINUOUS
10
149.686
20
-121.091
11
149.682
21
-121.088
0
LINE
8
BLACK
6
CONTINUOUS
10
149.682
20
-121.088
11
149.679
21
-121.084
0
LINE
8
BLACK
6
CONTINUOUS
10
149.679
20
-121.084
11
149.677
21
-121.08
0
LINE
8
BLACK
6
CONTINUOUS
10
149.677
20
-121.08
11
149.675
21
-121.075
0
LINE
8
BLACK
6
CONTINUOUS
10
149.675
20
-121.075
11
149.675
21
-121.07
0
LINE
8
BLACK
6
CONTINUOUS
10
149.675
20
-121.07
11
149.675
21
-121.069
0
LINE
8
BLACK
6
CONTINUOUS
10
149.675
20
-121.069
11
149.675
21
-112.571
0
LINE
8
BLACK
6
CONTINUOUS
10
149.675
20
-112.571
11
149.675
21
-112.57
0
LINE
8
BLACK
6
CONTINUOUS
10
149.675
20
-112.57
11
149.675
21
-112.565
0
LINE
8
BLACK
6
CONTINUOUS
10
149.675
20
-112.565
11
149.677
21
-112.56
0
LINE
8
BLACK
6
CONTINUOUS
10
149.677
20
-112.56
11
149.679
21
-112.556
0
LINE
8
BLACK
6
CONTINUOUS
10
149.679
20
-112.556
11
149.682
21
-112.552
0
LINE
8
BLACK
6
CONTINUOUS
10
149.682
20
-112.552
11
149.686
21
-112.549
0
LINE
8
BLACK
6
CONTINUOUS
10
149.686
20
-112.549
11
149.69
21
-112.547
0
LINE
8
BLACK
6
CONTINUOUS
10
149.69
20
-112.547
11
149.695
21
-112.545
0
LINE
8
BLACK
6
CONTINUOUS
10
149.695
20
-112.545
11
149.699
21
-112.545
0
LINE
8
BLACK
6
CONTINUOUS
10
149.699
20
-112.545
11
149.7
21
-112.545
0
LINE
8
BLACK
6
CONTINUOUS
10
149.7
20
-112.545
11
149.701
21
-112.545
0
LINE
8
BLACK
6
CONTINUOUS
10
149.701
20
-112.545
11
154.499
21
-112.545
0
LINE
8
BLACK
6
CONTINUOUS
10
154.499
20
-112.545
11
154.5
21
-112.545
0
LINE
8
BLACK
6
CONTINUOUS
10
154.5
20
-112.545
11
154.501
21
-112.545
0
LINE
8
BLACK
6
CONTINUOUS
10
149.725
20
-112.595
11
149.725
21
-121.045
0
LINE
8
BLACK
6
CONTINUOUS
10
149.725
20
-121.045
11
154.475
21
-121.045
0
LINE
8
BLACK
6
CONTINUOUS
10
154.475
20
-121.045
11
154.475
21
-112.595
0
LINE
8
BLACK
6
CONTINUOUS
10
154.475
20
-112.595
11
149.725
21
-112.595
0
LINE
8
BLACK
6
CONTINUOUS
10
148.751
20
-104.965
11
148.755
21
-104.965
0
LINE
8
BLACK
6
CONTINUOUS
10
148.755
20
-104.965
11
148.76
21
-104.967
0
LINE
8
BLACK
6
CONTINUOUS
10
148.76
20
-104.967
11
148.764
21
-104.969
0
LINE
8
BLACK
6
CONTINUOUS
10
148.764
20
-104.969
11
148.768
21
-104.972
0
LINE
8
BLACK
6
CONTINUOUS
10
148.768
20
-104.972
11
148.771
21
-104.976
0
LINE
8
BLACK
6
CONTINUOUS
10
148.771
20
-104.976
11
148.773
21
-104.98
0
LINE
8
BLACK
6
CONTINUOUS
10
148.773
20
-104.98
11
148.775
21
-104.985
0
LINE
8
BLACK
6
CONTINUOUS
10
148.775
20
-104.985
11
148.775
21
-104.99
0
LINE
8
BLACK
6
CONTINUOUS
10
148.775
20
-104.99
11
148.775
21
-104.991
0
LINE
8
BLACK
6
CONTINUOUS
10
148.775
20
-104.991
11
148.775
21
-113.489
0
LINE
8
BLACK
6
CONTINUOUS
10
148.775
20
-113.489
11
148.775
21
-113.49
0
LINE
8
BLACK
6
CONTINUOUS
10
148.775
20
-113.49
11
148.775
21
-113.495
0
LINE
8
BLACK
6
CONTINUOUS
10
148.775
20
-113.495
11
148.773
21
-113.5
0
LINE
8
BLACK
6
CONTINUOUS
10
148.773
20
-113.5
11
148.771
21
-113.504
0
LINE
8
BLACK
6
CONTINUOUS
10
148.771
20
-113.504
11
148.768
21
-113.508
0
LINE
8
BLACK
6
CONTINUOUS
10
148.768
20
-113.508
11
148.764
21
-113.511
0
LINE
8
BLACK
6
CONTINUOUS
10
148.764
20
-113.511
11
148.76
21
-113.513
0
LINE
8
BLACK
6
CONTINUOUS
10
148.76
20
-113.513
11
148.755
21
-113.515
0
LINE
8
BLACK
6
CONTINUOUS
10
148.755
20
-113.515
11
148.751
21
-113.515
0
LINE
8
BLACK
6
CONTINUOUS
10
148.751
20
-113.515
11
148.751
21
-113.515
0
LINE
8
BLACK
6
CONTINUOUS
10
148.751
20
-113.515
11
148.75
21
-113.515
0
LINE
8
BLACK
6
CONTINUOUS
10
148.75
20
-113.515
11
148.749
21
-113.515
0
LINE
8
BLACK
6
CONTINUOUS
10
148.749
20
-113.515
11
143.951
21
-113.515
0
LINE
8
BLACK
6
CONTINUOUS
10
143.951
20
-113.515
11
143.95
21
-113.515
0
LINE
8
BLACK
6
CONTINUOUS
10
143.95
20
-113.515
11
143.949
21
-113.515
0
LINE
8
BLACK
6
CONTINUOUS
10
143.949
20
-113.515
11
143.949
21
-113.515
0
LINE
8
BLACK
6
CONTINUOUS
10
143.949
20
-113.515
11
143.945
21
-113.515
0
LINE
8
BLACK
6
CONTINUOUS
10
143.945
20
-113.515
11
143.94
21
-113.513
0
LINE
8
BLACK
6
CONTINUOUS
10
143.94
20
-113.513
11
143.936
21
-113.511
0
LINE
8
BLACK
6
CONTINUOUS
10
143.936
20
-113.511
11
143.932
21
-113.508
0
LINE
8
BLACK
6
CONTINUOUS
10
143.932
20
-113.508
11
143.929
21
-113.504
0
LINE
8
BLACK
6
CONTINUOUS
10
143.929
20
-113.504
11
143.927
21
-113.5
0
LINE
8
BLACK
6
CONTINUOUS
10
143.927
20
-113.5
11
143.925
21
-113.495
0
LINE
8
BLACK
6
CONTINUOUS
10
143.925
20
-113.495
11
143.925
21
-113.49
0
LINE
8
BLACK
6
CONTINUOUS
10
143.925
20
-113.49
11
143.925
21
-113.489
0
LINE
8
BLACK
6
CONTINUOUS
10
143.925
20
-113.489
11
143.925
21
-104.991
0
LINE
8
BLACK
6
CONTINUOUS
10
143.925
20
-104.991
11
143.925
21
-104.99
0
LINE
8
BLACK
6
CONTINUOUS
10
143.925
20
-104.99
11
143.925
21
-104.985
0
LINE
8
BLACK
6
CONTINUOUS
10
143.925
20
-104.985
11
143.927
21
-104.98
0
LINE
8
BLACK
6
CONTINUOUS
10
143.927
20
-104.98
11
143.929
21
-104.976
0
LINE
8
BLACK
6
CONTINUOUS
10
143.929
20
-104.976
11
143.932
21
-104.972
0
LINE
8
BLACK
6
CONTINUOUS
10
143.932
20
-104.972
11
143.936
21
-104.969
0
LINE
8
BLACK
6
CONTINUOUS
10
143.936
20
-104.969
11
143.94
21
-104.967
0
LINE
8
BLACK
6
CONTINUOUS
10
143.94
20
-104.967
11
143.945
21
-104.965
0
LINE
8
BLACK
6
CONTINUOUS
10
143.945
20
-104.965
11
143.949
21
-104.965
0
LINE
8
BLACK
6
CONTINUOUS
10
143.949
20
-104.965
11
143.95
21
-104.965
0
LINE
8
BLACK
6
CONTINUOUS
10
143.95
20
-104.965
11
143.951
21
-104.965
0
LINE
8
BLACK
6
CONTINUOUS
10
143.951
20
-104.965
11
148.749
21
-104.965
0
LINE
8
BLACK
6
CONTINUOUS
10
148.749
20
-104.965
11
148.75
21
-104.965
0
LINE
8
BLACK
6
CONTINUOUS
10
148.75
20
-104.965
11
148.751
21
-104.965
0
LINE
8
BLACK
6
CONTINUOUS
10
143.975
20
-105.015
11
143.975
21
-113.465
0
LINE
8
BLACK
6
CONTINUOUS
10
143.975
20
-113.465
11
148.725
21
-113.465
0
LINE
8
BLACK
6
CONTINUOUS
10
148.725
20
-113.465
11
148.725
21
-105.015
0
LINE
8
BLACK
6
CONTINUOUS
10
148.725
20
-105.015
11
143.975
21
-105.015
0
LINE
8
BLACK
6
CONTINUOUS
10
179.491
20
-108.365
11
179.495
21
-108.365
0
LINE
8
BLACK
6
CONTINUOUS
10
179.495
20
-108.365
11
179.5
21
-108.367
0
LINE
8
BLACK
6
CONTINUOUS
10
179.5
20
-108.367
11
179.504
21
-108.369
0
LINE
8
BLACK
6
CONTINUOUS
10
179.504
20
-108.369
11
179.508
21
-108.372
0
LINE
8
BLACK
6
CONTINUOUS
10
179.508
20
-108.372
11
179.511
21
-108.376
0
LINE
8
BLACK
6
CONTINUOUS
10
179.511
20
-108.376
11
179.513
21
-108.38
0
LINE
8
BLACK
6
CONTINUOUS
10
179.513
20
-108.38
11
179.515
21
-108.385
0
LINE
8
BLACK
6
CONTINUOUS
10
179.515
20
-108.385
11
179.515
21
-108.39
0
LINE
8
BLACK
6
CONTINUOUS
10
179.515
20
-108.39
11
179.515
21
-108.391
0
LINE
8
BLACK
6
CONTINUOUS
10
179.515
20
-108.391
11
179.515
21
-113.189
0
LINE
8
BLACK
6
CONTINUOUS
10
179.515
20
-113.189
11
179.515
21
-113.19
0
LINE
8
BLACK
6
CONTINUOUS
10
179.515
20
-113.19
11
179.515
21
-113.195
0
LINE
8
BLACK
6
CONTINUOUS
10
179.515
20
-113.195
11
179.513
21
-113.2
0
LINE
8
BLACK
6
CONTINUOUS
10
179.513
20
-113.2
11
179.511
21
-113.204
0
LINE
8
BLACK
6
CONTINUOUS
10
179.511
20
-113.204
11
179.508
21
-113.208
0
LINE
8
BLACK
6
CONTINUOUS
10
179.508
20
-113.208
11
179.504
21
-113.211
0
LINE
8
BLACK
6
CONTINUOUS
10
179.504
20
-113.211
11
179.5
21
-113.213
0
LINE
8
BLACK
6
CONTINUOUS
10
179.5
20
-113.213
11
179.495
21
-113.215
0
LINE
8
BLACK
6
CONTINUOUS
10
179.495
20
-113.215
11
179.491
21
-113.215
0
LINE
8
BLACK
6
CONTINUOUS
10
179.491
20
-113.215
11
179.491
21
-113.215
0
LINE
8
BLACK
6
CONTINUOUS
10
179.491
20
-113.215
11
179.49
21
-113.215
0
LINE
8
BLACK
6
CONTINUOUS
10
179.49
20
-113.215
11
179.489
21
-113.215
0
LINE
8
BLACK
6
CONTINUOUS
10
179.489
20
-113.215
11
170.991
21
-113.215
0
LINE
8
BLACK
6
CONTINUOUS
10
170.991
20
-113.215
11
170.99
21
-113.215
0
LINE
8
BLACK
6
CONTINUOUS
10
170.99
20
-113.215
11
170.989
21
-113.215
0
LINE
8
BLACK
6
CONTINUOUS
10
170.989
20
-113.215
11
170.989
21
-113.215
0
LINE
8
BLACK
6
CONTINUOUS
10
170.989
20
-113.215
11
170.985
21
-113.215
0
LINE
8
BLACK
6
CONTINUOUS
10
170.985
20
-113.215
11
170.98
21
-113.213
0
LINE
8
BLACK
6
CONTINUOUS
10
170.98
20
-113.213
11
170.976
21
-113.211
0
LINE
8
BLACK
6
CONTINUOUS
10
170.976
20
-113.211
11
170.972
21
-113.208
0
LINE
8
BLACK
6
CONTINUOUS
10
170.972
20
-113.208
11
170.969
21
-113.204
0
LINE
8
BLACK
6
CONTINUOUS
10
170.969
20
-113.204
11
170.967
21
-113.2
0
LINE
8
BLACK
6
CONTINUOUS
10
170.967
20
-113.2
11
170.965
21
-113.195
0
LINE
8
BLACK
6
CONTINUOUS
10
170.965
20
-113.195
11
170.965
21
-113.19
0
LINE
8
BLACK
6
CONTINUOUS
10
170.965
20
-113.19
11
170.965
21
-113.189
0
LINE
8
BLACK
6
CONTINUOUS
10
170.965
20
-113.189
11
170.965
21
-108.391
0
LINE
8
BLACK
6
CONTINUOUS
10
170.965
20
-108.391
11
170.965
21
-108.39
0
LINE
8
BLACK
6
CONTINUOUS
10
170.965
20
-108.39
11
170.965
21
-108.385
0
LINE
8
BLACK
6
CONTINUOUS
10
170.965
20
-108.385
11
170.967
21
-108.38
0
LINE
8
BLACK
6
CONTINUOUS
10
170.967
20
-108.38
11
170.969
21
-108.376
0
LINE
8
BLACK
6
CONTINUOUS
10
170.969
20
-108.376
11
170.972
21
-108.372
0
LINE
8
BLACK
6
CONTINUOUS
10
170.972
20
-108.372
11
170.976
21
-108.369
0
LINE
8
BLACK
6
CONTINUOUS
10
170.976
20
-108.369
11
170.98
21
-108.367
0
LINE
8
BLACK
6
CONTINUOUS
10
170.98
20
-108.367
11
170.985
21
-108.365
0
LINE
8
BLACK
6
CONTINUOUS
10
170.985
20
-108.365
11
170.989
21
-108.365
0
LINE
8
BLACK
6
CONTINUOUS
10
170.989
20
-108.365
11
170.99
21
-108.365
0
LINE
8
BLACK
6
CONTINUOUS
10
170.99
20
-108.365
11
170.991
21
-108.365
0
LINE
8
BLACK
6
CONTINUOUS
10
170.991
20
-108.365
11
179.489
21
-108.365
0
LINE
8
BLACK
6
CONTINUOUS
10
179.489
20
-108.365
11
179.49
21
-108.365
0
LINE
8
BLACK
6
CONTINUOUS
10
179.49
20
-108.365
11
179.491
21
-108.365
0
LINE
8
BLACK
6
CONTINUOUS
10
171.015
20
-108.415
11
171.015
21
-113.165
0
LINE
8
BLACK
6
CONTINUOUS
10
171.015
20
-113.165
11
179.465
21
-113.165
0
LINE
8
BLACK
6
CONTINUOUS
10
179.465
20
-113.165
11
179.465
21
-108.415
0
LINE
8
BLACK
6
CONTINUOUS
10
179.465
20
-108.415
11
171.015
21
-108.415
0
LINE
8
BLACK
6
CONTINUOUS
10
178.051
20
-50.525
11
178.051
21
-50.525
0
LINE
8
BLACK
6
CONTINUOUS
10
178.051
20
-50.525
11
178.055
21
-50.5254
0
LINE
8
BLACK
6
CONTINUOUS
10
178.055
20
-50.5254
11
178.06
21
-50.5268
0
LINE
8
BLACK
6
CONTINUOUS
10
178.06
20
-50.5268
11
178.064
21
-50.5291
0
LINE
8
BLACK
6
CONTINUOUS
10
178.064
20
-50.5291
11
178.068
21
-50.5322
0
LINE
8
BLACK
6
CONTINUOUS
10
178.068
20
-50.5322
11
178.071
21
-50.536
0
LINE
8
BLACK
6
CONTINUOUS
10
178.071
20
-50.536
11
178.073
21
-50.5404
0
LINE
8
BLACK
6
CONTINUOUS
10
178.073
20
-50.5404
11
178.075
21
-50.5451
0
LINE
8
BLACK
6
CONTINUOUS
10
178.075
20
-50.5451
11
178.075
21
-50.55
0
LINE
8
BLACK
6
CONTINUOUS
10
178.075
20
-50.55
11
178.075
21
-50.5512
0
LINE
8
BLACK
6
CONTINUOUS
10
178.075
20
-50.5512
11
178.075
21
-53.3296
0
LINE
8
BLACK
6
CONTINUOUS
10
178.075
20
-53.3296
11
180.607
21
-55.8615
0
LINE
8
BLACK
6
CONTINUOUS
10
180.607
20
-55.8615
11
180.608
21
-55.8622
0
LINE
8
BLACK
6
CONTINUOUS
10
180.608
20
-55.8622
11
180.611
21
-55.866
0
LINE
8
BLACK
6
CONTINUOUS
10
180.611
20
-55.866
11
180.613
21
-55.8704
0
LINE
8
BLACK
6
CONTINUOUS
10
180.613
20
-55.8704
11
180.613
21
-55.8704
0
LINE
8
BLACK
6
CONTINUOUS
10
180.613
20
-55.8704
11
180.615
21
-55.8751
0
LINE
8
BLACK
6
CONTINUOUS
10
180.615
20
-55.8751
11
180.615
21
-55.88
0
LINE
8
BLACK
6
CONTINUOUS
10
180.615
20
-55.88
11
180.615
21
-55.8812
0
LINE
8
BLACK
6
CONTINUOUS
10
180.615
20
-55.8812
11
180.615
21
-60.405
0
LINE
8
BLACK
6
CONTINUOUS
10
180.615
20
-60.405
11
180.729
21
-60.405
0
LINE
8
BLACK
6
CONTINUOUS
10
180.729
20
-60.405
11
180.73
21
-60.4049
0
LINE
8
BLACK
6
CONTINUOUS
10
180.73
20
-60.4049
11
180.731
21
-60.405
0
LINE
8
BLACK
6
CONTINUOUS
10
180.731
20
-60.405
11
180.735
21
-60.4054
0
LINE
8
BLACK
6
CONTINUOUS
10
180.735
20
-60.4054
11
180.74
21
-60.4068
0
LINE
8
BLACK
6
CONTINUOUS
10
180.74
20
-60.4068
11
180.744
21
-60.4091
0
LINE
8
BLACK
6
CONTINUOUS
10
180.744
20
-60.4091
11
180.748
21
-60.4122
0
LINE
8
BLACK
6
CONTINUOUS
10
180.748
20
-60.4122
11
180.751
21
-60.416
0
LINE
8
BLACK
6
CONTINUOUS
10
180.751
20
-60.416
11
180.753
21
-60.4204
0
LINE
8
BLACK
6
CONTINUOUS
10
180.753
20
-60.4204
11
180.755
21
-60.4251
0
LINE
8
BLACK
6
CONTINUOUS
10
180.755
20
-60.4251
11
180.755
21
-60.43
0
LINE
8
BLACK
6
CONTINUOUS
10
180.755
20
-60.43
11
180.755
21
-60.4312
0
LINE
8
BLACK
6
CONTINUOUS
10
180.755
20
-60.4312
11
180.755
21
-71.6288
0
LINE
8
BLACK
6
CONTINUOUS
10
180.755
20
-71.6288
11
180.755
21
-71.63
0
LINE
8
BLACK
6
CONTINUOUS
10
180.755
20
-71.63
11
180.755
21
-71.6349
0
LINE
8
BLACK
6
CONTINUOUS
10
180.755
20
-71.6349
11
180.753
21
-71.6396
0
LINE
8
BLACK
6
CONTINUOUS
10
180.753
20
-71.6396
11
180.751
21
-71.644
0
LINE
8
BLACK
6
CONTINUOUS
10
180.751
20
-71.644
11
180.748
21
-71.6478
0
LINE
8
BLACK
6
CONTINUOUS
10
180.748
20
-71.6478
11
180.744
21
-71.6509
0
LINE
8
BLACK
6
CONTINUOUS
10
180.744
20
-71.6509
11
180.74
21
-71.6532
0
LINE
8
BLACK
6
CONTINUOUS
10
180.74
20
-71.6532
11
180.735
21
-71.6546
0
LINE
8
BLACK
6
CONTINUOUS
10
180.735
20
-71.6546
11
180.731
21
-71.655
0
LINE
8
BLACK
6
CONTINUOUS
10
180.731
20
-71.655
11
180.731
21
-71.655
0
LINE
8
BLACK
6
CONTINUOUS
10
180.731
20
-71.655
11
180.73
21
-71.6551
0
LINE
8
BLACK
6
CONTINUOUS
10
180.73
20
-71.6551
11
180.729
21
-71.655
0
LINE
8
BLACK
6
CONTINUOUS
10
180.729
20
-71.655
11
180.615
21
-71.655
0
LINE
8
BLACK
6
CONTINUOUS
10
180.615
20
-71.655
11
180.615
21
-73.105
0
LINE
8
BLACK
6
CONTINUOUS
10
180.615
20
-73.105
11
180.729
21
-73.105
0
LINE
8
BLACK
6
CONTINUOUS
10
180.729
20
-73.105
11
180.73
21
-73.1049
0
LINE
8
BLACK
6
CONTINUOUS
10
180.73
20
-73.1049
11
180.731
21
-73.105
0
LINE
8
BLACK
6
CONTINUOUS
10
180.731
20
-73.105
11
180.735
21
-73.1054
0
LINE
8
BLACK
6
CONTINUOUS
10
180.735
20
-73.1054
11
180.74
21
-73.1068
0
LINE
8
BLACK
6
CONTINUOUS
10
180.74
20
-73.1068
11
180.744
21
-73.1091
0
LINE
8
BLACK
6
CONTINUOUS
10
180.744
20
-73.1091
11
180.748
21
-73.1122
0
LINE
8
BLACK
6
CONTINUOUS
10
180.748
20
-73.1122
11
180.751
21
-73.116
0
LINE
8
BLACK
6
CONTINUOUS
10
180.751
20
-73.116
11
180.753
21
-73.1204
0
LINE
8
BLACK
6
CONTINUOUS
10
180.753
20
-73.1204
11
180.755
21
-73.1251
0
LINE
8
BLACK
6
CONTINUOUS
10
180.755
20
-73.1251
11
180.755
21
-73.13
0
LINE
8
BLACK
6
CONTINUOUS
10
180.755
20
-73.13
11
180.755
21
-73.1312
0
LINE
8
BLACK
6
CONTINUOUS
10
180.755
20
-73.1312
11
180.755
21
-84.3288
0
LINE
8
BLACK
6
CONTINUOUS
10
180.755
20
-84.3288
11
180.755
21
-84.33
0
LINE
8
BLACK
6
CONTINUOUS
10
180.755
20
-84.33
11
180.755
21
-84.3349
0
LINE
8
BLACK
6
CONTINUOUS
10
180.755
20
-84.3349
11
180.753
21
-84.3396
0
LINE
8
BLACK
6
CONTINUOUS
10
180.753
20
-84.3396
11
180.751
21
-84.344
0
LINE
8
BLACK
6
CONTINUOUS
10
180.751
20
-84.344
11
180.748
21
-84.3478
0
LINE
8
BLACK
6
CONTINUOUS
10
180.748
20
-84.3478
11
180.744
21
-84.3509
0
LINE
8
BLACK
6
CONTINUOUS
10
180.744
20
-84.3509
11
180.74
21
-84.3532
0
LINE
8
BLACK
6
CONTINUOUS
10
180.74
20
-84.3532
11
180.735
21
-84.3546
0
LINE
8
BLACK
6
CONTINUOUS
10
180.735
20
-84.3546
11
180.731
21
-84.355
0
LINE
8
BLACK
6
CONTINUOUS
10
180.731
20
-84.355
11
180.731
21
-84.355
0
LINE
8
BLACK
6
CONTINUOUS
10
180.731
20
-84.355
11
180.73
21
-84.3551
0
LINE
8
BLACK
6
CONTINUOUS
10
180.73
20
-84.3551
11
180.729
21
-84.355
0
LINE
8
BLACK
6
CONTINUOUS
10
180.729
20
-84.355
11
180.615
21
-84.355
0
LINE
8
BLACK
6
CONTINUOUS
10
180.615
20
-84.355
11
180.615
21
-88.6488
0
LINE
8
BLACK
6
CONTINUOUS
10
180.615
20
-88.6488
11
180.615
21
-88.65
0
LINE
8
BLACK
6
CONTINUOUS
10
180.615
20
-88.65
11
180.615
21
-88.6512
0
LINE
8
BLACK
6
CONTINUOUS
10
180.615
20
-88.6512
11
180.615
21
-88.6549
0
LINE
8
BLACK
6
CONTINUOUS
10
180.615
20
-88.6549
11
180.613
21
-88.6596
0
LINE
8
BLACK
6
CONTINUOUS
10
180.613
20
-88.6596
11
180.611
21
-88.664
0
LINE
8
BLACK
6
CONTINUOUS
10
180.611
20
-88.664
11
180.608
21
-88.6678
0
LINE
8
BLACK
6
CONTINUOUS
10
180.608
20
-88.6678
11
180.607
21
-88.6685
0
LINE
8
BLACK
6
CONTINUOUS
10
180.607
20
-88.6685
11
178.075
21
-91.2004
0
LINE
8
BLACK
6
CONTINUOUS
10
178.075
20
-91.2004
11
178.075
21
-102.619
0
LINE
8
BLACK
6
CONTINUOUS
10
178.075
20
-102.619
11
178.075
21
-102.62
0
LINE
8
BLACK
6
CONTINUOUS
10
178.075
20
-102.62
11
178.075
21
-102.621
0
LINE
8
BLACK
6
CONTINUOUS
10
178.075
20
-102.621
11
178.075
21
-102.625
0
LINE
8
BLACK
6
CONTINUOUS
10
178.075
20
-102.625
11
178.073
21
-102.63
0
LINE
8
BLACK
6
CONTINUOUS
10
178.073
20
-102.63
11
178.071
21
-102.634
0
LINE
8
BLACK
6
CONTINUOUS
10
178.071
20
-102.634
11
178.068
21
-102.638
0
LINE
8
BLACK
6
CONTINUOUS
10
178.068
20
-102.638
11
178.067
21
-102.639
0
LINE
8
BLACK
6
CONTINUOUS
10
178.067
20
-102.639
11
176.299
21
-104.407
0
LINE
8
BLACK
6
CONTINUOUS
10
176.299
20
-104.407
11
176.298
21
-104.408
0
LINE
8
BLACK
6
CONTINUOUS
10
176.298
20
-104.408
11
176.294
21
-104.411
0
LINE
8
BLACK
6
CONTINUOUS
10
176.294
20
-104.411
11
176.29
21
-104.413
0
LINE
8
BLACK
6
CONTINUOUS
10
176.29
20
-104.413
11
176.285
21
-104.415
0
LINE
8
BLACK
6
CONTINUOUS
10
176.285
20
-104.415
11
176.281
21
-104.415
0
LINE
8
BLACK
6
CONTINUOUS
10
176.281
20
-104.415
11
176.281
21
-104.415
0
LINE
8
BLACK
6
CONTINUOUS
10
176.281
20
-104.415
11
176.28
21
-104.415
0
LINE
8
BLACK
6
CONTINUOUS
10
176.28
20
-104.415
11
176.279
21
-104.415
0
LINE
8
BLACK
6
CONTINUOUS
10
176.279
20
-104.415
11
111.511
21
-104.415
0
LINE
8
BLACK
6
CONTINUOUS
10
111.511
20
-104.415
11
111.51
21
-104.415
0
LINE
8
BLACK
6
CONTINUOUS
10
111.51
20
-104.415
11
111.505
21
-104.415
0
LINE
8
BLACK
6
CONTINUOUS
10
111.505
20
-104.415
11
111.5
21
-104.413
0
LINE
8
BLACK
6
CONTINUOUS
10
111.5
20
-104.413
11
111.496
21
-104.411
0
LINE
8
BLACK
6
CONTINUOUS
10
111.496
20
-104.411
11
111.492
21
-104.408
0
LINE
8
BLACK
6
CONTINUOUS
10
111.492
20
-104.408
11
111.492
21
-104.408
0
LINE
8
BLACK
6
CONTINUOUS
10
111.492
20
-104.408
11
111.489
21
-104.404
0
LINE
8
BLACK
6
CONTINUOUS
10
111.489
20
-104.404
11
111.487
21
-104.4
0
LINE
8
BLACK
6
CONTINUOUS
10
111.487
20
-104.4
11
111.485
21
-104.395
0
LINE
8
BLACK
6
CONTINUOUS
10
111.485
20
-104.395
11
111.485
21
-104.39
0
LINE
8
BLACK
6
CONTINUOUS
10
111.485
20
-104.39
11
111.485
21
-104.389
0
LINE
8
BLACK
6
CONTINUOUS
10
111.485
20
-104.389
11
111.485
21
-94.895
0
LINE
8
BLACK
6
CONTINUOUS
10
111.485
20
-94.895
11
105.161
21
-94.895
0
LINE
8
BLACK
6
CONTINUOUS
10
105.161
20
-94.895
11
105.16
21
-94.8951
0
LINE
8
BLACK
6
CONTINUOUS
10
105.16
20
-94.8951
11
105.155
21
-94.8946
0
LINE
8
BLACK
6
CONTINUOUS
10
105.155
20
-94.8946
11
105.15
21
-94.8932
0
LINE
8
BLACK
6
CONTINUOUS
10
105.15
20
-94.8932
11
105.146
21
-94.8909
0
LINE
8
BLACK
6
CONTINUOUS
10
105.146
20
-94.8909
11
105.142
21
-94.8878
0
LINE
8
BLACK
6
CONTINUOUS
10
105.142
20
-94.8878
11
105.139
21
-94.884
0
LINE
8
BLACK
6
CONTINUOUS
10
105.139
20
-94.884
11
105.137
21
-94.8796
0
LINE
8
BLACK
6
CONTINUOUS
10
105.137
20
-94.8796
11
105.135
21
-94.8749
0
LINE
8
BLACK
6
CONTINUOUS
10
105.135
20
-94.8749
11
105.135
21
-94.87
0
LINE
8
BLACK
6
CONTINUOUS
10
105.135
20
-94.87
11
105.135
21
-94.8688
0
LINE
8
BLACK
6
CONTINUOUS
10
105.135
20
-94.8688
11
105.135
21
-82.9312
0
LINE
8
BLACK
6
CONTINUOUS
10
105.135
20
-82.9312
11
105.135
21
-82.93
0
LINE
8
BLACK
6
CONTINUOUS
10
105.135
20
-82.93
11
105.135
21
-82.9251
0
LINE
8
BLACK
6
CONTINUOUS
10
105.135
20
-82.9251
11
105.137
21
-82.9204
0
LINE
8
BLACK
6
CONTINUOUS
10
105.137
20
-82.9204
11
105.139
21
-82.916
0
LINE
8
BLACK
6
CONTINUOUS
10
105.139
20
-82.916
11
105.142
21
-82.9122
0
LINE
8
BLACK
6
CONTINUOUS
10
105.142
20
-82.9122
11
105.146
21
-82.9091
0
LINE
8
BLACK
6
CONTINUOUS
10
105.146
20
-82.9091
11
105.15
21
-82.9068
0
LINE
8
BLACK
6
CONTINUOUS
10
105.15
20
-82.9068
11
105.155
21
-82.9054
0
LINE
8
BLACK
6
CONTINUOUS
10
105.155
20
-82.9054
11
105.159
21
-82.905
0
LINE
8
BLACK
6
CONTINUOUS
10
105.159
20
-82.905
11
105.159
21
-82.905
0
LINE
8
BLACK
6
CONTINUOUS
10
105.159
20
-82.905
11
105.16
21
-82.9049
0
LINE
8
BLACK
6
CONTINUOUS
10
105.16
20
-82.9049
11
105.161
21
-82.905
0
LINE
8
BLACK
6
CONTINUOUS
10
105.161
20
-82.905
11
111.485
21
-82.905
0
LINE
8
BLACK
6
CONTINUOUS
10
111.485
20
-82.905
11
111.485
21
-63.145
0
LINE
8
BLACK
6
CONTINUOUS
10
111.485
20
-63.145
11
109.601
21
-63.145
0
LINE
8
BLACK
6
CONTINUOUS
10
109.601
20
-63.145
11
109.6
21
-63.1451
0
LINE
8
BLACK
6
CONTINUOUS
10
109.6
20
-63.1451
11
109.595
21
-63.1446
0
LINE
8
BLACK
6
CONTINUOUS
10
109.595
20
-63.1446
11
109.59
21
-63.1432
0
LINE
8
BLACK
6
CONTINUOUS
10
109.59
20
-63.1432
11
109.586
21
-63.1409
0
LINE
8
BLACK
6
CONTINUOUS
10
109.586
20
-63.1409
11
109.582
21
-63.1378
0
LINE
8
BLACK
6
CONTINUOUS
10
109.582
20
-63.1378
11
109.579
21
-63.134
0
LINE
8
BLACK
6
CONTINUOUS
10
109.579
20
-63.134
11
109.577
21
-63.1296
0
LINE
8
BLACK
6
CONTINUOUS
10
109.577
20
-63.1296
11
109.575
21
-63.1249
0
LINE
8
BLACK
6
CONTINUOUS
10
109.575
20
-63.1249
11
109.575
21
-63.12
0
LINE
8
BLACK
6
CONTINUOUS
10
109.575
20
-63.12
11
109.575
21
-63.1188
0
LINE
8
BLACK
6
CONTINUOUS
10
109.575
20
-63.1188
11
109.575
21
-53.7212
0
LINE
8
BLACK
6
CONTINUOUS
10
109.575
20
-53.7212
11
109.575
21
-53.72
0
LINE
8
BLACK
6
CONTINUOUS
10
109.575
20
-53.72
11
109.575
21
-53.7151
0
LINE
8
BLACK
6
CONTINUOUS
10
109.575
20
-53.7151
11
109.577
21
-53.7104
0
LINE
8
BLACK
6
CONTINUOUS
10
109.577
20
-53.7104
11
109.579
21
-53.706
0
LINE
8
BLACK
6
CONTINUOUS
10
109.579
20
-53.706
11
109.582
21
-53.7022
0
LINE
8
BLACK
6
CONTINUOUS
10
109.582
20
-53.7022
11
109.586
21
-53.6991
0
LINE
8
BLACK
6
CONTINUOUS
10
109.586
20
-53.6991
11
109.59
21
-53.6968
0
LINE
8
BLACK
6
CONTINUOUS
10
109.59
20
-53.6968
11
109.595
21
-53.6954
0
LINE
8
BLACK
6
CONTINUOUS
10
109.595
20
-53.6954
11
109.599
21
-53.695
0
LINE
8
BLACK
6
CONTINUOUS
10
109.599
20
-53.695
11
109.599
21
-53.695
0
LINE
8
BLACK
6
CONTINUOUS
10
109.599
20
-53.695
11
109.6
21
-53.6949
0
LINE
8
BLACK
6
CONTINUOUS
10
109.6
20
-53.6949
11
109.601
21
-53.695
0
LINE
8
BLACK
6
CONTINUOUS
10
109.601
20
-53.695
11
111.485
21
-53.695
0
LINE
8
BLACK
6
CONTINUOUS
10
111.485
20
-53.695
11
111.485
21
-50.5512
0
LINE
8
BLACK
6
CONTINUOUS
10
111.485
20
-50.5512
11
111.485
21
-50.55
0
LINE
8
BLACK
6
CONTINUOUS
10
111.485
20
-50.55
11
111.485
21
-50.5451
0
LINE
8
BLACK
6
CONTINUOUS
10
111.485
20
-50.5451
11
111.487
21
-50.5404
0
LINE
8
BLACK
6
CONTINUOUS
10
111.487
20
-50.5404
11
111.489
21
-50.536
0
LINE
8
BLACK
6
CONTINUOUS
10
111.489
20
-50.536
11
111.492
21
-50.5322
0
LINE
8
BLACK
6
CONTINUOUS
10
111.492
20
-50.5322
11
111.496
21
-50.5291
0
LINE
8
BLACK
6
CONTINUOUS
10
111.496
20
-50.5291
11
111.5
21
-50.5268
0
LINE
8
BLACK
6
CONTINUOUS
10
111.5
20
-50.5268
11
111.505
21
-50.5254
0
LINE
8
BLACK
6
CONTINUOUS
10
111.505
20
-50.5254
11
111.509
21
-50.525
0
LINE
8
BLACK
6
CONTINUOUS
10
111.509
20
-50.525
11
111.509
21
-50.525
0
LINE
8
BLACK
6
CONTINUOUS
10
111.509
20
-50.525
11
111.51
21
-50.5249
0
LINE
8
BLACK
6
CONTINUOUS
10
111.51
20
-50.5249
11
111.511
21
-50.525
0
LINE
8
BLACK
6
CONTINUOUS
10
111.511
20
-50.525
11
178.049
21
-50.525
0
LINE
8
BLACK
6
CONTINUOUS
10
178.049
20
-50.525
11
178.05
21
-50.5249
0
LINE
8
BLACK
6
CONTINUOUS
10
178.05
20
-50.5249
11
178.051
21
-50.525
0
LINE
8
BLACK
6
CONTINUOUS
10
111.535
20
-50.575
11
111.535
21
-53.7188
0
LINE
8
BLACK
6
CONTINUOUS
10
111.535
20
-53.7188
11
111.535
21
-53.72
0
LINE
8
BLACK
6
CONTINUOUS
10
111.535
20
-53.72
11
111.535
21
-53.7249
0
LINE
8
BLACK
6
CONTINUOUS
10
111.535
20
-53.7249
11
111.533
21
-53.7296
0
LINE
8
BLACK
6
CONTINUOUS
10
111.533
20
-53.7296
11
111.531
21
-53.734
0
LINE
8
BLACK
6
CONTINUOUS
10
111.531
20
-53.734
11
111.528
21
-53.7378
0
LINE
8
BLACK
6
CONTINUOUS
10
111.528
20
-53.7378
11
111.524
21
-53.7409
0
LINE
8
BLACK
6
CONTINUOUS
10
111.524
20
-53.7409
11
111.52
21
-53.7432
0
LINE
8
BLACK
6
CONTINUOUS
10
111.52
20
-53.7432
11
111.515
21
-53.7446
0
LINE
8
BLACK
6
CONTINUOUS
10
111.515
20
-53.7446
11
111.511
21
-53.745
0
LINE
8
BLACK
6
CONTINUOUS
10
111.511
20
-53.745
11
111.511
21
-53.745
0
LINE
8
BLACK
6
CONTINUOUS
10
111.511
20
-53.745
11
111.51
21
-53.7451
0
LINE
8
BLACK
6
CONTINUOUS
10
111.51
20
-53.7451
11
111.509
21
-53.745
0
LINE
8
BLACK
6
CONTINUOUS
10
111.509
20
-53.745
11
109.625
21
-53.745
0
LINE
8
BLACK
6
CONTINUOUS
10
109.625
20
-53.745
11
109.625
21
-63.095
0
LINE
8
BLACK
6
CONTINUOUS
10
109.625
20
-63.095
11
111.509
21
-63.095
0
LINE
8
BLACK
6
CONTINUOUS
10
111.509
20
-63.095
11
111.51
21
-63.0949
0
LINE
8
BLACK
6
CONTINUOUS
10
111.51
20
-63.0949
11
111.511
21
-63.095
0
LINE
8
BLACK
6
CONTINUOUS
10
111.511
20
-63.095
11
111.515
21
-63.0954
0
LINE
8
BLACK
6
CONTINUOUS
10
111.515
20
-63.0954
11
111.52
21
-63.0968
0
LINE
8
BLACK
6
CONTINUOUS
10
111.52
20
-63.0968
11
111.524
21
-63.0991
0
LINE
8
BLACK
6
CONTINUOUS
10
111.524
20
-63.0991
11
111.528
21
-63.1022
0
LINE
8
BLACK
6
CONTINUOUS
10
111.528
20
-63.1022
11
111.531
21
-63.106
0
LINE
8
BLACK
6
CONTINUOUS
10
111.531
20
-63.106
11
111.533
21
-63.1104
0
LINE
8
BLACK
6
CONTINUOUS
10
111.533
20
-63.1104
11
111.535
21
-63.1151
0
LINE
8
BLACK
6
CONTINUOUS
10
111.535
20
-63.1151
11
111.535
21
-63.12
0
LINE
8
BLACK
6
CONTINUOUS
10
111.535
20
-63.12
11
111.535
21
-63.1212
0
LINE
8
BLACK
6
CONTINUOUS
10
111.535
20
-63.1212
11
111.535
21
-82.9288
0
LINE
8
BLACK
6
CONTINUOUS
10
111.535
20
-82.9288
11
111.535
21
-82.93
0
LINE
8
BLACK
6
CONTINUOUS
10
111.535
20
-82.93
11
111.535
21
-82.9349
0
LINE
8
BLACK
6
CONTINUOUS
10
111.535
20
-82.9349
11
111.533
21
-82.9396
0
LINE
8
BLACK
6
CONTINUOUS
10
111.533
20
-82.9396
11
111.531
21
-82.944
0
LINE
8
BLACK
6
CONTINUOUS
10
111.531
20
-82.944
11
111.528
21
-82.9478
0
LINE
8
BLACK
6
CONTINUOUS
10
111.528
20
-82.9478
11
111.524
21
-82.9509
0
LINE
8
BLACK
6
CONTINUOUS
10
111.524
20
-82.9509
11
111.52
21
-82.9532
0
LINE
8
BLACK
6
CONTINUOUS
10
111.52
20
-82.9532
11
111.515
21
-82.9546
0
LINE
8
BLACK
6
CONTINUOUS
10
111.515
20
-82.9546
11
111.511
21
-82.955
0
LINE
8
BLACK
6
CONTINUOUS
10
111.511
20
-82.955
11
111.511
21
-82.955
0
LINE
8
BLACK
6
CONTINUOUS
10
111.511
20
-82.955
11
111.51
21
-82.9551
0
LINE
8
BLACK
6
CONTINUOUS
10
111.51
20
-82.9551
11
111.509
21
-82.955
0
LINE
8
BLACK
6
CONTINUOUS
10
111.509
20
-82.955
11
105.185
21
-82.955
0
LINE
8
BLACK
6
CONTINUOUS
10
105.185
20
-82.955
11
105.185
21
-94.845
0
LINE
8
BLACK
6
CONTINUOUS
10
105.185
20
-94.845
11
111.509
21
-94.845
0
LINE
8
BLACK
6
CONTINUOUS
10
111.509
20
-94.845
11
111.51
21
-94.8449
0
LINE
8
BLACK
6
CONTINUOUS
10
111.51
20
-94.8449
11
111.511
21
-94.845
0
LINE
8
BLACK
6
CONTINUOUS
10
111.511
20
-94.845
11
111.515
21
-94.8454
0
LINE
8
BLACK
6
CONTINUOUS
10
111.515
20
-94.8454
11
111.52
21
-94.8468
0
LINE
8
BLACK
6
CONTINUOUS
10
111.52
20
-94.8468
11
111.524
21
-94.8491
0
LINE
8
BLACK
6
CONTINUOUS
10
111.524
20
-94.8491
11
111.528
21
-94.8522
0
LINE
8
BLACK
6
CONTINUOUS
10
111.528
20
-94.8522
11
111.531
21
-94.856
0
LINE
8
BLACK
6
CONTINUOUS
10
111.531
20
-94.856
11
111.533
21
-94.8604
0
LINE
8
BLACK
6
CONTINUOUS
10
111.533
20
-94.8604
11
111.535
21
-94.8651
0
LINE
8
BLACK
6
CONTINUOUS
10
111.535
20
-94.8651
11
111.535
21
-94.87
0
LINE
8
BLACK
6
CONTINUOUS
10
111.535
20
-94.87
11
111.535
21
-94.8712
0
LINE
8
BLACK
6
CONTINUOUS
10
111.535
20
-94.8712
11
111.535
21
-104.365
0
LINE
8
BLACK
6
CONTINUOUS
10
111.535
20
-104.365
11
176.27
21
-104.365
0
LINE
8
BLACK
6
CONTINUOUS
10
176.27
20
-104.365
11
178.025
21
-102.61
0
LINE
8
BLACK
6
CONTINUOUS
10
178.025
20
-102.61
11
178.025
21
-91.1912
0
LINE
8
BLACK
6
CONTINUOUS
10
178.025
20
-91.1912
11
178.025
21
-91.19
0
LINE
8
BLACK
6
CONTINUOUS
10
178.025
20
-91.19
11
178.025
21
-91.1851
0
LINE
8
BLACK
6
CONTINUOUS
10
178.025
20
-91.1851
11
178.025
21
-91.1851
0
LINE
8
BLACK
6
CONTINUOUS
10
178.025
20
-91.1851
11
178.027
21
-91.1804
0
LINE
8
BLACK
6
CONTINUOUS
10
178.027
20
-91.1804
11
178.029
21
-91.176
0
LINE
8
BLACK
6
CONTINUOUS
10
178.029
20
-91.176
11
178.032
21
-91.1722
0
LINE
8
BLACK
6
CONTINUOUS
10
178.032
20
-91.1722
11
178.033
21
-91.1714
0
LINE
8
BLACK
6
CONTINUOUS
10
178.033
20
-91.1714
11
180.565
21
-88.6396
0
LINE
8
BLACK
6
CONTINUOUS
10
180.565
20
-88.6396
11
180.565
21
-84.355
0
LINE
8
BLACK
6
CONTINUOUS
10
180.565
20
-84.355
11
168.381
21
-84.355
0
LINE
8
BLACK
6
CONTINUOUS
10
168.381
20
-84.355
11
168.38
21
-84.3551
0
LINE
8
BLACK
6
CONTINUOUS
10
168.38
20
-84.3551
11
168.379
21
-84.355
0
LINE
8
BLACK
6
CONTINUOUS
10
168.379
20
-84.355
11
168.379
21
-84.355
0
LINE
8
BLACK
6
CONTINUOUS
10
168.379
20
-84.355
11
168.375
21
-84.3546
0
LINE
8
BLACK
6
CONTINUOUS
10
168.375
20
-84.3546
11
168.37
21
-84.3532
0
LINE
8
BLACK
6
CONTINUOUS
10
168.37
20
-84.3532
11
168.366
21
-84.3509
0
LINE
8
BLACK
6
CONTINUOUS
10
168.366
20
-84.3509
11
168.362
21
-84.3478
0
LINE
8
BLACK
6
CONTINUOUS
10
168.362
20
-84.3478
11
168.359
21
-84.344
0
LINE
8
BLACK
6
CONTINUOUS
10
168.359
20
-84.344
11
168.357
21
-84.3396
0
LINE
8
BLACK
6
CONTINUOUS
10
168.357
20
-84.3396
11
168.355
21
-84.3349
0
LINE
8
BLACK
6
CONTINUOUS
10
168.355
20
-84.3349
11
168.355
21
-84.33
0
LINE
8
BLACK
6
CONTINUOUS
10
168.355
20
-84.33
11
168.355
21
-84.3288
0
LINE
8
BLACK
6
CONTINUOUS
10
168.355
20
-84.3288
11
168.355
21
-73.1312
0
LINE
8
BLACK
6
CONTINUOUS
10
168.355
20
-73.1312
11
168.355
21
-73.13
0
LINE
8
BLACK
6
CONTINUOUS
10
168.355
20
-73.13
11
168.355
21
-73.1251
0
LINE
8
BLACK
6
CONTINUOUS
10
168.355
20
-73.1251
11
168.357
21
-73.1204
0
LINE
8
BLACK
6
CONTINUOUS
10
168.357
20
-73.1204
11
168.359
21
-73.116
0
LINE
8
BLACK
6
CONTINUOUS
10
168.359
20
-73.116
11
168.362
21
-73.1122
0
LINE
8
BLACK
6
CONTINUOUS
10
168.362
20
-73.1122
11
168.366
21
-73.1091
0
LINE
8
BLACK
6
CONTINUOUS
10
168.366
20
-73.1091
11
168.37
21
-73.1068
0
LINE
8
BLACK
6
CONTINUOUS
10
168.37
20
-73.1068
11
168.375
21
-73.1054
0
LINE
8
BLACK
6
CONTINUOUS
10
168.375
20
-73.1054
11
168.379
21
-73.105
0
LINE
8
BLACK
6
CONTINUOUS
10
168.379
20
-73.105
11
168.38
21
-73.1049
0
LINE
8
BLACK
6
CONTINUOUS
10
168.38
20
-73.1049
11
168.381
21
-73.105
0
LINE
8
BLACK
6
CONTINUOUS
10
168.381
20
-73.105
11
180.565
21
-73.105
0
LINE
8
BLACK
6
CONTINUOUS
10
180.565
20
-73.105
11
180.565
21
-71.655
0
LINE
8
BLACK
6
CONTINUOUS
10
180.565
20
-71.655
11
168.381
21
-71.655
0
LINE
8
BLACK
6
CONTINUOUS
10
168.381
20
-71.655
11
168.38
21
-71.6551
0
LINE
8
BLACK
6
CONTINUOUS
10
168.38
20
-71.6551
11
168.379
21
-71.655
0
LINE
8
BLACK
6
CONTINUOUS
10
168.379
20
-71.655
11
168.379
21
-71.655
0
LINE
8
BLACK
6
CONTINUOUS
10
168.379
20
-71.655
11
168.375
21
-71.6546
0
LINE
8
BLACK
6
CONTINUOUS
10
168.375
20
-71.6546
11
168.37
21
-71.6532
0
LINE
8
BLACK
6
CONTINUOUS
10
168.37
20
-71.6532
11
168.366
21
-71.6509
0
LINE
8
BLACK
6
CONTINUOUS
10
168.366
20
-71.6509
11
168.362
21
-71.6478
0
LINE
8
BLACK
6
CONTINUOUS
10
168.362
20
-71.6478
11
168.359
21
-71.644
0
LINE
8
BLACK
6
CONTINUOUS
10
168.359
20
-71.644
11
168.357
21
-71.6396
0
LINE
8
BLACK
6
CONTINUOUS
10
168.357
20
-71.6396
11
168.355
21
-71.6349
0
LINE
8
BLACK
6
CONTINUOUS
10
168.355
20
-71.6349
11
168.355
21
-71.63
0
LINE
8
BLACK
6
CONTINUOUS
10
168.355
20
-71.63
11
168.355
21
-71.6288
0
LINE
8
BLACK
6
CONTINUOUS
10
168.355
20
-71.6288
11
168.355
21
-60.4312
0
LINE
8
BLACK
6
CONTINUOUS
10
168.355
20
-60.4312
11
168.355
21
-60.43
0
LINE
8
BLACK
6
CONTINUOUS
10
168.355
20
-60.43
11
168.355
21
-60.4251
0
LINE
8
BLACK
6
CONTINUOUS
10
168.355
20
-60.4251
11
168.357
21
-60.4204
0
LINE
8
BLACK
6
CONTINUOUS
10
168.357
20
-60.4204
11
168.359
21
-60.416
0
LINE
8
BLACK
6
CONTINUOUS
10
168.359
20
-60.416
11
168.362
21
-60.4122
0
LINE
8
BLACK
6
CONTINUOUS
10
168.362
20
-60.4122
11
168.366
21
-60.4091
0
LINE
8
BLACK
6
CONTINUOUS
10
168.366
20
-60.4091
11
168.37
21
-60.4068
0
LINE
8
BLACK
6
CONTINUOUS
10
168.37
20
-60.4068
11
168.375
21
-60.4054
0
LINE
8
BLACK
6
CONTINUOUS
10
168.375
20
-60.4054
11
168.379
21
-60.405
0
LINE
8
BLACK
6
CONTINUOUS
10
168.379
20
-60.405
11
168.38
21
-60.4049
0
LINE
8
BLACK
6
CONTINUOUS
10
168.38
20
-60.4049
11
168.381
21
-60.405
0
LINE
8
BLACK
6
CONTINUOUS
10
168.381
20
-60.405
11
180.565
21
-60.405
0
LINE
8
BLACK
6
CONTINUOUS
10
180.565
20
-60.405
11
180.565
21
-55.8904
0
LINE
8
BLACK
6
CONTINUOUS
10
180.565
20
-55.8904
11
178.033
21
-53.3585
0
LINE
8
BLACK
6
CONTINUOUS
10
178.033
20
-53.3585
11
178.032
21
-53.3578
0
LINE
8
BLACK
6
CONTINUOUS
10
178.032
20
-53.3578
11
178.029
21
-53.354
0
LINE
8
BLACK
6
CONTINUOUS
10
178.029
20
-53.354
11
178.027
21
-53.3496
0
LINE
8
BLACK
6
CONTINUOUS
10
178.027
20
-53.3496
11
178.025
21
-53.3449
0
LINE
8
BLACK
6
CONTINUOUS
10
178.025
20
-53.3449
11
178.025
21
-53.34
0
LINE
8
BLACK
6
CONTINUOUS
10
178.025
20
-53.34
11
178.025
21
-53.3388
0
LINE
8
BLACK
6
CONTINUOUS
10
178.025
20
-53.3388
11
178.025
21
-50.575
0
LINE
8
BLACK
6
CONTINUOUS
10
178.025
20
-50.575
11
111.535
21
-50.575
0
LINE
8
BLACK
6
CONTINUOUS
10
168.405
20
-73.155
11
168.405
21
-84.305
0
LINE
8
BLACK
6
CONTINUOUS
10
168.405
20
-84.305
11
180.565
21
-84.305
0
LINE
8
BLACK
6
CONTINUOUS
10
180.565
20
-84.305
11
180.565
21
-73.155
0
LINE
8
BLACK
6
CONTINUOUS
10
180.565
20
-73.155
11
168.405
21
-73.155
0
LINE
8
BLACK
6
CONTINUOUS
10
180.615
20
-73.155
11
180.615
21
-84.305
0
LINE
8
BLACK
6
CONTINUOUS
10
180.615
20
-84.305
11
180.705
21
-84.305
0
LINE
8
BLACK
6
CONTINUOUS
10
180.705
20
-84.305
11
180.705
21
-73.155
0
LINE
8
BLACK
6
CONTINUOUS
10
180.705
20
-73.155
11
180.615
21
-73.155
0
LINE
8
BLACK
6
CONTINUOUS
10
168.405
20
-60.455
11
168.405
21
-71.605
0
LINE
8
BLACK
6
CONTINUOUS
10
168.405
20
-71.605
11
180.565
21
-71.605
0
LINE
8
BLACK
6
CONTINUOUS
10
180.565
20
-71.605
11
180.565
21
-60.455
0
LINE
8
BLACK
6
CONTINUOUS
10
180.565
20
-60.455
11
168.405
21
-60.455
0
LINE
8
BLACK
6
CONTINUOUS
10
180.615
20
-60.455
11
180.615
21
-71.605
0
LINE
8
BLACK
6
CONTINUOUS
10
180.615
20
-71.605
11
180.705
21
-71.605
0
LINE
8
BLACK
6
CONTINUOUS
10
180.705
20
-71.605
11
180.705
21
-60.455
0
LINE
8
BLACK
6
CONTINUOUS
10
180.705
20
-60.455
11
180.615
21
-60.455
0
LINE
8
BLACK
6
CONTINUOUS
10
171.931
20
-85.855
11
171.935
21
-85.8554
0
LINE
8
BLACK
6
CONTINUOUS
10
171.935
20
-85.8554
11
171.94
21
-85.8568
0
LINE
8
BLACK
6
CONTINUOUS
10
171.94
20
-85.8568
11
171.944
21
-85.8591
0
LINE
8
BLACK
6
CONTINUOUS
10
171.944
20
-85.8591
11
171.948
21
-85.8622
0
LINE
8
BLACK
6
CONTINUOUS
10
171.948
20
-85.8622
11
171.951
21
-85.866
0
LINE
8
BLACK
6
CONTINUOUS
10
171.951
20
-85.866
11
171.953
21
-85.8704
0
LINE
8
BLACK
6
CONTINUOUS
10
171.953
20
-85.8704
11
171.955
21
-85.8751
0
LINE
8
BLACK
6
CONTINUOUS
10
171.955
20
-85.8751
11
171.955
21
-85.88
0
LINE
8
BLACK
6
CONTINUOUS
10
171.955
20
-85.88
11
171.955
21
-85.8812
0
LINE
8
BLACK
6
CONTINUOUS
10
171.955
20
-85.8812
11
171.955
21
-97.0788
0
LINE
8
BLACK
6
CONTINUOUS
10
171.955
20
-97.0788
11
171.955
21
-97.08
0
LINE
8
BLACK
6
CONTINUOUS
10
171.955
20
-97.08
11
171.955
21
-97.0849
0
LINE
8
BLACK
6
CONTINUOUS
10
171.955
20
-97.0849
11
171.953
21
-97.0896
0
LINE
8
BLACK
6
CONTINUOUS
10
171.953
20
-97.0896
11
171.951
21
-97.094
0
LINE
8
BLACK
6
CONTINUOUS
10
171.951
20
-97.094
11
171.948
21
-97.0978
0
LINE
8
BLACK
6
CONTINUOUS
10
171.948
20
-97.0978
11
171.944
21
-97.1009
0
LINE
8
BLACK
6
CONTINUOUS
10
171.944
20
-97.1009
11
171.94
21
-97.1032
0
LINE
8
BLACK
6
CONTINUOUS
10
171.94
20
-97.1032
11
171.935
21
-97.1046
0
LINE
8
BLACK
6
CONTINUOUS
10
171.935
20
-97.1046
11
171.931
21
-97.105
0
LINE
8
BLACK
6
CONTINUOUS
10
171.931
20
-97.105
11
171.931
21
-97.105
0
LINE
8
BLACK
6
CONTINUOUS
10
171.931
20
-97.105
11
171.93
21
-97.1051
0
LINE
8
BLACK
6
CONTINUOUS
10
171.93
20
-97.1051
11
171.929
21
-97.105
0
LINE
8
BLACK
6
CONTINUOUS
10
171.929
20
-97.105
11
159.631
21
-97.105
0
LINE
8
BLACK
6
CONTINUOUS
10
159.631
20
-97.105
11
159.63
21
-97.1051
0
LINE
8
BLACK
6
CONTINUOUS
10
159.63
20
-97.1051
11
159.629
21
-97.105
0
LINE
8
BLACK
6
CONTINUOUS
10
159.629
20
-97.105
11
159.629
21
-97.105
0
LINE
8
BLACK
6
CONTINUOUS
10
159.629
20
-97.105
11
159.625
21
-97.1046
0
LINE
8
BLACK
6
CONTINUOUS
10
159.625
20
-97.1046
11
159.62
21
-97.1032
0
LINE
8
BLACK
6
CONTINUOUS
10
159.62
20
-97.1032
11
159.616
21
-97.1009
0
LINE
8
BLACK
6
CONTINUOUS
10
159.616
20
-97.1009
11
159.612
21
-97.0978
0
LINE
8
BLACK
6
CONTINUOUS
10
159.612
20
-97.0978
11
159.609
21
-97.094
0
LINE
8
BLACK
6
CONTINUOUS
10
159.609
20
-97.094
11
159.607
21
-97.0896
0
LINE
8
BLACK
6
CONTINUOUS
10
159.607
20
-97.0896
11
159.605
21
-97.0849
0
LINE
8
BLACK
6
CONTINUOUS
10
159.605
20
-97.0849
11
159.605
21
-97.08
0
LINE
8
BLACK
6
CONTINUOUS
10
159.605
20
-97.08
11
159.605
21
-97.0788
0
LINE
8
BLACK
6
CONTINUOUS
10
159.605
20
-97.0788
11
159.605
21
-85.8812
0
LINE
8
BLACK
6
CONTINUOUS
10
159.605
20
-85.8812
11
159.605
21
-85.88
0
LINE
8
BLACK
6
CONTINUOUS
10
159.605
20
-85.88
11
159.605
21
-85.8751
0
LINE
8
BLACK
6
CONTINUOUS
10
159.605
20
-85.8751
11
159.607
21
-85.8704
0
LINE
8
BLACK
6
CONTINUOUS
10
159.607
20
-85.8704
11
159.609
21
-85.866
0
LINE
8
BLACK
6
CONTINUOUS
10
159.609
20
-85.866
11
159.612
21
-85.8622
0
LINE
8
BLACK
6
CONTINUOUS
10
159.612
20
-85.8622
11
159.616
21
-85.8591
0
LINE
8
BLACK
6
CONTINUOUS
10
159.616
20
-85.8591
11
159.62
21
-85.8568
0
LINE
8
BLACK
6
CONTINUOUS
10
159.62
20
-85.8568
11
159.625
21
-85.8554
0
LINE
8
BLACK
6
CONTINUOUS
10
159.625
20
-85.8554
11
159.629
21
-85.855
0
LINE
8
BLACK
6
CONTINUOUS
10
159.629
20
-85.855
11
159.63
21
-85.8549
0
LINE
8
BLACK
6
CONTINUOUS
10
159.63
20
-85.8549
11
159.631
21
-85.855
0
LINE
8
BLACK
6
CONTINUOUS
10
159.631
20
-85.855
11
171.929
21
-85.855
0
LINE
8
BLACK
6
CONTINUOUS
10
171.929
20
-85.855
11
171.93
21
-85.8549
0
LINE
8
BLACK
6
CONTINUOUS
10
171.93
20
-85.8549
11
171.931
21
-85.855
0
LINE
8
BLACK
6
CONTINUOUS
10
159.655
20
-85.905
11
159.655
21
-97.055
0
LINE
8
BLACK
6
CONTINUOUS
10
159.655
20
-97.055
11
171.905
21
-97.055
0
LINE
8
BLACK
6
CONTINUOUS
10
171.905
20
-97.055
11
171.905
21
-85.905
0
LINE
8
BLACK
6
CONTINUOUS
10
171.905
20
-85.905
11
159.655
21
-85.905
0
LINE
8
BLACK
6
CONTINUOUS
10
123.671
20
-83.315
11
123.675
21
-83.3154
0
LINE
8
BLACK
6
CONTINUOUS
10
123.675
20
-83.3154
11
123.68
21
-83.3168
0
LINE
8
BLACK
6
CONTINUOUS
10
123.68
20
-83.3168
11
123.684
21
-83.3191
0
LINE
8
BLACK
6
CONTINUOUS
10
123.684
20
-83.3191
11
123.688
21
-83.3222
0
LINE
8
BLACK
6
CONTINUOUS
10
123.688
20
-83.3222
11
123.691
21
-83.326
0
LINE
8
BLACK
6
CONTINUOUS
10
123.691
20
-83.326
11
123.693
21
-83.3304
0
LINE
8
BLACK
6
CONTINUOUS
10
123.693
20
-83.3304
11
123.695
21
-83.3351
0
LINE
8
BLACK
6
CONTINUOUS
10
123.695
20
-83.3351
11
123.695
21
-83.34
0
LINE
8
BLACK
6
CONTINUOUS
10
123.695
20
-83.34
11
123.695
21
-83.3412
0
LINE
8
BLACK
6
CONTINUOUS
10
123.695
20
-83.3412
11
123.695
21
-94.5388
0
LINE
8
BLACK
6
CONTINUOUS
10
123.695
20
-94.5388
11
123.695
21
-94.54
0
LINE
8
BLACK
6
CONTINUOUS
10
123.695
20
-94.54
11
123.695
21
-94.5449
0
LINE
8
BLACK
6
CONTINUOUS
10
123.695
20
-94.5449
11
123.693
21
-94.5496
0
LINE
8
BLACK
6
CONTINUOUS
10
123.693
20
-94.5496
11
123.691
21
-94.554
0
LINE
8
BLACK
6
CONTINUOUS
10
123.691
20
-94.554
11
123.688
21
-94.5578
0
LINE
8
BLACK
6
CONTINUOUS
10
123.688
20
-94.5578
11
123.684
21
-94.5609
0
LINE
8
BLACK
6
CONTINUOUS
10
123.684
20
-94.5609
11
123.68
21
-94.5632
0
LINE
8
BLACK
6
CONTINUOUS
10
123.68
20
-94.5632
11
123.675
21
-94.5646
0
LINE
8
BLACK
6
CONTINUOUS
10
123.675
20
-94.5646
11
123.671
21
-94.565
0
LINE
8
BLACK
6
CONTINUOUS
10
123.671
20
-94.565
11
123.671
21
-94.565
0
LINE
8
BLACK
6
CONTINUOUS
10
123.671
20
-94.565
11
123.67
21
-94.5651
0
LINE
8
BLACK
6
CONTINUOUS
10
123.67
20
-94.5651
11
123.669
21
-94.565
0
LINE
8
BLACK
6
CONTINUOUS
10
123.669
20
-94.565
11
111.371
21
-94.565
0
LINE
8
BLACK
6
CONTINUOUS
10
111.371
20
-94.565
11
111.37
21
-94.5651
0
LINE
8
BLACK
6
CONTINUOUS
10
111.37
20
-94.5651
11
111.369
21
-94.565
0
LINE
8
BLACK
6
CONTINUOUS
10
111.369
20
-94.565
11
111.369
21
-94.565
0
LINE
8
BLACK
6
CONTINUOUS
10
111.369
20
-94.565
11
111.365
21
-94.5646
0
LINE
8
BLACK
6
CONTINUOUS
10
111.365
20
-94.5646
11
111.36
21
-94.5632
0
LINE
8
BLACK
6
CONTINUOUS
10
111.36
20
-94.5632
11
111.356
21
-94.5609
0
LINE
8
BLACK
6
CONTINUOUS
10
111.356
20
-94.5609
11
111.352
21
-94.5578
0
LINE
8
BLACK
6
CONTINUOUS
10
111.352
20
-94.5578
11
111.349
21
-94.554
0
LINE
8
BLACK
6
CONTINUOUS
10
111.349
20
-94.554
11
111.347
21
-94.5496
0
LINE
8
BLACK
6
CONTINUOUS
10
111.347
20
-94.5496
11
111.345
21
-94.5449
0
LINE
8
BLACK
6
CONTINUOUS
10
111.345
20
-94.5449
11
111.345
21
-94.54
0
LINE
8
BLACK
6
CONTINUOUS
10
111.345
20
-94.54
11
111.345
21
-94.5388
0
LINE
8
BLACK
6
CONTINUOUS
10
111.345
20
-94.5388
11
111.345
21
-83.3412
0
LINE
8
BLACK
6
CONTINUOUS
10
111.345
20
-83.3412
11
111.345
21
-83.34
0
LINE
8
BLACK
6
CONTINUOUS
10
111.345
20
-83.34
11
111.345
21
-83.3351
0
LINE
8
BLACK
6
CONTINUOUS
10
111.345
20
-83.3351
11
111.347
21
-83.3304
0
LINE
8
BLACK
6
CONTINUOUS
10
111.347
20
-83.3304
11
111.349
21
-83.326
0
LINE
8
BLACK
6
CONTINUOUS
10
111.349
20
-83.326
11
111.352
21
-83.3222
0
LINE
8
BLACK
6
CONTINUOUS
10
111.352
20
-83.3222
11
111.356
21
-83.3191
0
LINE
8
BLACK
6
CONTINUOUS
10
111.356
20
-83.3191
11
111.36
21
-83.3168
0
LINE
8
BLACK
6
CONTINUOUS
10
111.36
20
-83.3168
11
111.365
21
-83.3154
0
LINE
8
BLACK
6
CONTINUOUS
10
111.365
20
-83.3154
11
111.369
21
-83.315
0
LINE
8
BLACK
6
CONTINUOUS
10
111.369
20
-83.315
11
111.37
21
-83.3149
0
LINE
8
BLACK
6
CONTINUOUS
10
111.37
20
-83.3149
11
111.371
21
-83.315
0
LINE
8
BLACK
6
CONTINUOUS
10
111.371
20
-83.315
11
123.669
21
-83.315
0
LINE
8
BLACK
6
CONTINUOUS
10
123.669
20
-83.315
11
123.67
21
-83.3149
0
LINE
8
BLACK
6
CONTINUOUS
10
123.67
20
-83.3149
11
123.671
21
-83.315
0
LINE
8
BLACK
6
CONTINUOUS
10
111.395
20
-83.365
11
111.395
21
-94.515
0
LINE
8
BLACK
6
CONTINUOUS
10
111.395
20
-94.515
11
123.645
21
-94.515
0
LINE
8
BLACK
6
CONTINUOUS
10
123.645
20
-94.515
11
123.645
21
-83.365
0
LINE
8
BLACK
6
CONTINUOUS
10
123.645
20
-83.365
11
111.395
21
-83.365
0
LINE
8
BLACK
6
CONTINUOUS
10
142.401
20
-85.915
11
142.405
21
-85.9154
0
LINE
8
BLACK
6
CONTINUOUS
10
142.405
20
-85.9154
11
142.41
21
-85.9168
0
LINE
8
BLACK
6
CONTINUOUS
10
142.41
20
-85.9168
11
142.414
21
-85.9191
0
LINE
8
BLACK
6
CONTINUOUS
10
142.414
20
-85.9191
11
142.418
21
-85.9222
0
LINE
8
BLACK
6
CONTINUOUS
10
142.418
20
-85.9222
11
142.421
21
-85.926
0
LINE
8
BLACK
6
CONTINUOUS
10
142.421
20
-85.926
11
142.423
21
-85.9304
0
LINE
8
BLACK
6
CONTINUOUS
10
142.423
20
-85.9304
11
142.425
21
-85.9351
0
LINE
8
BLACK
6
CONTINUOUS
10
142.425
20
-85.9351
11
142.425
21
-85.94
0
LINE
8
BLACK
6
CONTINUOUS
10
142.425
20
-85.94
11
142.425
21
-85.9412
0
LINE
8
BLACK
6
CONTINUOUS
10
142.425
20
-85.9412
11
142.425
21
-94.4388
0
LINE
8
BLACK
6
CONTINUOUS
10
142.425
20
-94.4388
11
142.425
21
-94.44
0
LINE
8
BLACK
6
CONTINUOUS
10
142.425
20
-94.44
11
142.425
21
-94.4449
0
LINE
8
BLACK
6
CONTINUOUS
10
142.425
20
-94.4449
11
142.423
21
-94.4496
0
LINE
8
BLACK
6
CONTINUOUS
10
142.423
20
-94.4496
11
142.421
21
-94.454
0
LINE
8
BLACK
6
CONTINUOUS
10
142.421
20
-94.454
11
142.418
21
-94.4578
0
LINE
8
BLACK
6
CONTINUOUS
10
142.418
20
-94.4578
11
142.414
21
-94.4609
0
LINE
8
BLACK
6
CONTINUOUS
10
142.414
20
-94.4609
11
142.41
21
-94.4632
0
LINE
8
BLACK
6
CONTINUOUS
10
142.41
20
-94.4632
11
142.405
21
-94.4646
0
LINE
8
BLACK
6
CONTINUOUS
10
142.405
20
-94.4646
11
142.401
21
-94.465
0
LINE
8
BLACK
6
CONTINUOUS
10
142.401
20
-94.465
11
142.401
21
-94.465
0
LINE
8
BLACK
6
CONTINUOUS
10
142.401
20
-94.465
11
142.4
21
-94.4651
0
LINE
8
BLACK
6
CONTINUOUS
10
142.4
20
-94.4651
11
142.399
21
-94.465
0
LINE
8
BLACK
6
CONTINUOUS
10
142.399
20
-94.465
11
137.601
21
-94.465
0
LINE
8
BLACK
6
CONTINUOUS
10
137.601
20
-94.465
11
137.6
21
-94.4651
0
LINE
8
BLACK
6
CONTINUOUS
10
137.6
20
-94.4651
11
137.599
21
-94.465
0
LINE
8
BLACK
6
CONTINUOUS
10
137.599
20
-94.465
11
137.599
21
-94.465
0
LINE
8
BLACK
6
CONTINUOUS
10
137.599
20
-94.465
11
137.595
21
-94.4646
0
LINE
8
BLACK
6
CONTINUOUS
10
137.595
20
-94.4646
11
137.59
21
-94.4632
0
LINE
8
BLACK
6
CONTINUOUS
10
137.59
20
-94.4632
11
137.586
21
-94.4609
0
LINE
8
BLACK
6
CONTINUOUS
10
137.586
20
-94.4609
11
137.582
21
-94.4578
0
LINE
8
BLACK
6
CONTINUOUS
10
137.582
20
-94.4578
11
137.579
21
-94.454
0
LINE
8
BLACK
6
CONTINUOUS
10
137.579
20
-94.454
11
137.577
21
-94.4496
0
LINE
8
BLACK
6
CONTINUOUS
10
137.577
20
-94.4496
11
137.575
21
-94.4449
0
LINE
8
BLACK
6
CONTINUOUS
10
137.575
20
-94.4449
11
137.575
21
-94.44
0
LINE
8
BLACK
6
CONTINUOUS
10
137.575
20
-94.44
11
137.575
21
-94.4388
0
LINE
8
BLACK
6
CONTINUOUS
10
137.575
20
-94.4388
11
137.575
21
-85.9412
0
LINE
8
BLACK
6
CONTINUOUS
10
137.575
20
-85.9412
11
137.575
21
-85.94
0
LINE
8
BLACK
6
CONTINUOUS
10
137.575
20
-85.94
11
137.575
21
-85.9351
0
LINE
8
BLACK
6
CONTINUOUS
10
137.575
20
-85.9351
11
137.577
21
-85.9304
0
LINE
8
BLACK
6
CONTINUOUS
10
137.577
20
-85.9304
11
137.579
21
-85.926
0
LINE
8
BLACK
6
CONTINUOUS
10
137.579
20
-85.926
11
137.582
21
-85.9222
0
LINE
8
BLACK
6
CONTINUOUS
10
137.582
20
-85.9222
11
137.586
21
-85.9191
0
LINE
8
BLACK
6
CONTINUOUS
10
137.586
20
-85.9191
11
137.59
21
-85.9168
0
LINE
8
BLACK
6
CONTINUOUS
10
137.59
20
-85.9168
11
137.595
21
-85.9154
0
LINE
8
BLACK
6
CONTINUOUS
10
137.595
20
-85.9154
11
137.599
21
-85.915
0
LINE
8
BLACK
6
CONTINUOUS
10
137.599
20
-85.915
11
137.6
21
-85.9149
0
LINE
8
BLACK
6
CONTINUOUS
10
137.6
20
-85.9149
11
137.601
21
-85.915
0
LINE
8
BLACK
6
CONTINUOUS
10
137.601
20
-85.915
11
142.399
21
-85.915
0
LINE
8
BLACK
6
CONTINUOUS
10
142.399
20
-85.915
11
142.4
21
-85.9149
0
LINE
8
BLACK
6
CONTINUOUS
10
142.4
20
-85.9149
11
142.401
21
-85.915
0
LINE
8
BLACK
6
CONTINUOUS
10
137.625
20
-85.965
11
137.625
21
-94.415
0
LINE
8
BLACK
6
CONTINUOUS
10
137.625
20
-94.415
11
142.375
21
-94.415
0
LINE
8
BLACK
6
CONTINUOUS
10
142.375
20
-94.415
11
142.375
21
-85.965
0
LINE
8
BLACK
6
CONTINUOUS
10
142.375
20
-85.965
11
137.625
21
-85.965
0
LINE
8
BLACK
6
CONTINUOUS
10
157.441
20
-62.025
11
157.445
21
-62.0254
0
LINE
8
BLACK
6
CONTINUOUS
10
157.445
20
-62.0254
11
157.45
21
-62.0268
0
LINE
8
BLACK
6
CONTINUOUS
10
157.45
20
-62.0268
11
157.454
21
-62.0291
0
LINE
8
BLACK
6
CONTINUOUS
10
157.454
20
-62.0291
11
157.458
21
-62.0322
0
LINE
8
BLACK
6
CONTINUOUS
10
157.458
20
-62.0322
11
157.461
21
-62.036
0
LINE
8
BLACK
6
CONTINUOUS
10
157.461
20
-62.036
11
157.463
21
-62.0404
0
LINE
8
BLACK
6
CONTINUOUS
10
157.463
20
-62.0404
11
157.465
21
-62.0451
0
LINE
8
BLACK
6
CONTINUOUS
10
157.465
20
-62.0451
11
157.465
21
-62.05
0
LINE
8
BLACK
6
CONTINUOUS
10
157.465
20
-62.05
11
157.465
21
-62.0512
0
LINE
8
BLACK
6
CONTINUOUS
10
157.465
20
-62.0512
11
157.465
21
-85.2688
0
LINE
8
BLACK
6
CONTINUOUS
10
157.465
20
-85.2688
11
157.465
21
-85.27
0
LINE
8
BLACK
6
CONTINUOUS
10
157.465
20
-85.27
11
157.465
21
-85.2749
0
LINE
8
BLACK
6
CONTINUOUS
10
157.465
20
-85.2749
11
157.463
21
-85.2796
0
LINE
8
BLACK
6
CONTINUOUS
10
157.463
20
-85.2796
11
157.461
21
-85.284
0
LINE
8
BLACK
6
CONTINUOUS
10
157.461
20
-85.284
11
157.458
21
-85.2878
0
LINE
8
BLACK
6
CONTINUOUS
10
157.458
20
-85.2878
11
157.454
21
-85.2909
0
LINE
8
BLACK
6
CONTINUOUS
10
157.454
20
-85.2909
11
157.45
21
-85.2932
0
LINE
8
BLACK
6
CONTINUOUS
10
157.45
20
-85.2932
11
157.445
21
-85.2946
0
LINE
8
BLACK
6
CONTINUOUS
10
157.445
20
-85.2946
11
157.441
21
-85.295
0
LINE
8
BLACK
6
CONTINUOUS
10
157.441
20
-85.295
11
157.441
21
-85.295
0
LINE
8
BLACK
6
CONTINUOUS
10
157.441
20
-85.295
11
157.44
21
-85.2951
0
LINE
8
BLACK
6
CONTINUOUS
10
157.44
20
-85.2951
11
157.439
21
-85.295
0
LINE
8
BLACK
6
CONTINUOUS
10
157.439
20
-85.295
11
152.441
21
-85.295
0
LINE
8
BLACK
6
CONTINUOUS
10
152.441
20
-85.295
11
152.44
21
-85.2951
0
LINE
8
BLACK
6
CONTINUOUS
10
152.44
20
-85.2951
11
152.439
21
-85.295
0
LINE
8
BLACK
6
CONTINUOUS
10
152.439
20
-85.295
11
152.439
21
-85.295
0
LINE
8
BLACK
6
CONTINUOUS
10
152.439
20
-85.295
11
152.435
21
-85.2946
0
LINE
8
BLACK
6
CONTINUOUS
10
152.435
20
-85.2946
11
152.43
21
-85.2932
0
LINE
8
BLACK
6
CONTINUOUS
10
152.43
20
-85.2932
11
152.426
21
-85.2909
0
LINE
8
BLACK
6
CONTINUOUS
10
152.426
20
-85.2909
11
152.422
21
-85.2878
0
LINE
8
BLACK
6
CONTINUOUS
10
152.422
20
-85.2878
11
152.419
21
-85.284
0
LINE
8
BLACK
6
CONTINUOUS
10
152.419
20
-85.284
11
152.417
21
-85.2796
0
LINE
8
BLACK
6
CONTINUOUS
10
152.417
20
-85.2796
11
152.415
21
-85.2749
0
LINE
8
BLACK
6
CONTINUOUS
10
152.415
20
-85.2749
11
152.415
21
-85.27
0
LINE
8
BLACK
6
CONTINUOUS
10
152.415
20
-85.27
11
152.415
21
-85.2688
0
LINE
8
BLACK
6
CONTINUOUS
10
152.415
20
-85.2688
11
152.415
21
-62.0512
0
LINE
8
BLACK
6
CONTINUOUS
10
152.415
20
-62.0512
11
152.415
21
-62.05
0
LINE
8
BLACK
6
CONTINUOUS
10
152.415
20
-62.05
11
152.415
21
-62.0451
0
LINE
8
BLACK
6
CONTINUOUS
10
152.415
20
-62.0451
11
152.417
21
-62.0404
0
LINE
8
BLACK
6
CONTINUOUS
10
152.417
20
-62.0404
11
152.419
21
-62.036
0
LINE
8
BLACK
6
CONTINUOUS
10
152.419
20
-62.036
11
152.422
21
-62.0322
0
LINE
8
BLACK
6
CONTINUOUS
10
152.422
20
-62.0322
11
152.426
21
-62.0291
0
LINE
8
BLACK
6
CONTINUOUS
10
152.426
20
-62.0291
11
152.43
21
-62.0268
0
LINE
8
BLACK
6
CONTINUOUS
10
152.43
20
-62.0268
11
152.435
21
-62.0254
0
LINE
8
BLACK
6
CONTINUOUS
10
152.435
20
-62.0254
11
152.439
21
-62.025
0
LINE
8
BLACK
6
CONTINUOUS
10
152.439
20
-62.025
11
152.44
21
-62.0249
0
LINE
8
BLACK
6
CONTINUOUS
10
152.44
20
-62.0249
11
152.441
21
-62.025
0
LINE
8
BLACK
6
CONTINUOUS
10
152.441
20
-62.025
11
157.439
21
-62.025
0
LINE
8
BLACK
6
CONTINUOUS
10
157.439
20
-62.025
11
157.44
21
-62.0249
0
LINE
8
BLACK
6
CONTINUOUS
10
157.44
20
-62.0249
11
157.441
21
-62.025
0
LINE
8
BLACK
6
CONTINUOUS
10
152.465
20
-62.075
11
152.465
21
-85.245
0
LINE
8
BLACK
6
CONTINUOUS
10
152.465
20
-85.245
11
157.415
21
-85.245
0
LINE
8
BLACK
6
CONTINUOUS
10
157.415
20
-85.245
11
157.415
21
-62.075
0
LINE
8
BLACK
6
CONTINUOUS
10
157.415
20
-62.075
11
152.465
21
-62.075
0
LINE
8
BLACK
6
CONTINUOUS
10
144.451
20
-63.385
11
144.455
21
-63.3854
0
LINE
8
BLACK
6
CONTINUOUS
10
144.455
20
-63.3854
11
144.46
21
-63.3868
0
LINE
8
BLACK
6
CONTINUOUS
10
144.46
20
-63.3868
11
144.464
21
-63.3891
0
LINE
8
BLACK
6
CONTINUOUS
10
144.464
20
-63.3891
11
144.468
21
-63.3922
0
LINE
8
BLACK
6
CONTINUOUS
10
144.468
20
-63.3922
11
144.471
21
-63.396
0
LINE
8
BLACK
6
CONTINUOUS
10
144.471
20
-63.396
11
144.473
21
-63.4004
0
LINE
8
BLACK
6
CONTINUOUS
10
144.473
20
-63.4004
11
144.475
21
-63.4051
0
LINE
8
BLACK
6
CONTINUOUS
10
144.475
20
-63.4051
11
144.475
21
-63.41
0
LINE
8
BLACK
6
CONTINUOUS
10
144.475
20
-63.41
11
144.475
21
-63.4112
0
LINE
8
BLACK
6
CONTINUOUS
10
144.475
20
-63.4112
11
144.475
21
-78.4088
0
LINE
8
BLACK
6
CONTINUOUS
10
144.475
20
-78.4088
11
144.475
21
-78.41
0
LINE
8
BLACK
6
CONTINUOUS
10
144.475
20
-78.41
11
144.475
21
-78.4149
0
LINE
8
BLACK
6
CONTINUOUS
10
144.475
20
-78.4149
11
144.473
21
-78.4196
0
LINE
8
BLACK
6
CONTINUOUS
10
144.473
20
-78.4196
11
144.471
21
-78.424
0
LINE
8
BLACK
6
CONTINUOUS
10
144.471
20
-78.424
11
144.468
21
-78.4278
0
LINE
8
BLACK
6
CONTINUOUS
10
144.468
20
-78.4278
11
144.464
21
-78.4309
0
LINE
8
BLACK
6
CONTINUOUS
10
144.464
20
-78.4309
11
144.46
21
-78.4332
0
LINE
8
BLACK
6
CONTINUOUS
10
144.46
20
-78.4332
11
144.455
21
-78.4346
0
LINE
8
BLACK
6
CONTINUOUS
10
144.455
20
-78.4346
11
144.451
21
-78.435
0
LINE
8
BLACK
6
CONTINUOUS
10
144.451
20
-78.435
11
144.451
21
-78.435
0
LINE
8
BLACK
6
CONTINUOUS
10
144.451
20
-78.435
11
144.45
21
-78.4351
0
LINE
8
BLACK
6
CONTINUOUS
10
144.45
20
-78.4351
11
144.449
21
-78.435
0
LINE
8
BLACK
6
CONTINUOUS
10
144.449
20
-78.435
11
128.251
21
-78.435
0
LINE
8
BLACK
6
CONTINUOUS
10
128.251
20
-78.435
11
128.25
21
-78.4351
0
LINE
8
BLACK
6
CONTINUOUS
10
128.25
20
-78.4351
11
128.249
21
-78.435
0
LINE
8
BLACK
6
CONTINUOUS
10
128.249
20
-78.435
11
128.249
21
-78.435
0
LINE
8
BLACK
6
CONTINUOUS
10
128.249
20
-78.435
11
128.245
21
-78.4346
0
LINE
8
BLACK
6
CONTINUOUS
10
128.245
20
-78.4346
11
128.24
21
-78.4332
0
LINE
8
BLACK
6
CONTINUOUS
10
128.24
20
-78.4332
11
128.236
21
-78.4309
0
LINE
8
BLACK
6
CONTINUOUS
10
128.236
20
-78.4309
11
128.232
21
-78.4278
0
LINE
8
BLACK
6
CONTINUOUS
10
128.232
20
-78.4278
11
128.229
21
-78.424
0
LINE
8
BLACK
6
CONTINUOUS
10
128.229
20
-78.424
11
128.227
21
-78.4196
0
LINE
8
BLACK
6
CONTINUOUS
10
128.227
20
-78.4196
11
128.225
21
-78.4149
0
LINE
8
BLACK
6
CONTINUOUS
10
128.225
20
-78.4149
11
128.225
21
-78.41
0
LINE
8
BLACK
6
CONTINUOUS
10
128.225
20
-78.41
11
128.225
21
-78.4088
0
LINE
8
BLACK
6
CONTINUOUS
10
128.225
20
-78.4088
11
128.225
21
-63.4112
0
LINE
8
BLACK
6
CONTINUOUS
10
128.225
20
-63.4112
11
128.225
21
-63.41
0
LINE
8
BLACK
6
CONTINUOUS
10
128.225
20
-63.41
11
128.225
21
-63.4051
0
LINE
8
BLACK
6
CONTINUOUS
10
128.225
20
-63.4051
11
128.227
21
-63.4004
0
LINE
8
BLACK
6
CONTINUOUS
10
128.227
20
-63.4004
11
128.229
21
-63.396
0
LINE
8
BLACK
6
CONTINUOUS
10
128.229
20
-63.396
11
128.232
21
-63.3922
0
LINE
8
BLACK
6
CONTINUOUS
10
128.232
20
-63.3922
11
128.236
21
-63.3891
0
LINE
8
BLACK
6
CONTINUOUS
10
128.236
20
-63.3891
11
128.24
21
-63.3868
0
LINE
8
BLACK
6
CONTINUOUS
10
128.24
20
-63.3868
11
128.245
21
-63.3854
0
LINE
8
BLACK
6
CONTINUOUS
10
128.245
20
-63.3854
11
128.249
21
-63.385
0
LINE
8
BLACK
6
CONTINUOUS
10
128.249
20
-63.385
11
128.25
21
-63.3849
0
LINE
8
BLACK
6
CONTINUOUS
10
128.25
20
-63.3849
11
128.251
21
-63.385
0
LINE
8
BLACK
6
CONTINUOUS
10
128.251
20
-63.385
11
144.449
21
-63.385
0
LINE
8
BLACK
6
CONTINUOUS
10
144.449
20
-63.385
11
144.45
21
-63.3849
0
LINE
8
BLACK
6
CONTINUOUS
10
144.45
20
-63.3849
11
144.451
21
-63.385
0
LINE
8
BLACK
6
CONTINUOUS
10
128.275
20
-63.435
11
128.275
21
-78.385
0
LINE
8
BLACK
6
CONTINUOUS
10
128.275
20
-78.385
11
144.425
21
-78.385
0
LINE
8
BLACK
6
CONTINUOUS
10
144.425
20
-78.385
11
144.425
21
-63.435
0
LINE
8
BLACK
6
CONTINUOUS
10
144.425
20
-63.435
11
128.275
21
-63.435
0
LINE
8
BLACK
6
CONTINUOUS
10
166.831
20
-62.045
11
166.835
21
-62.0454
0
LINE
8
BLACK
6
CONTINUOUS
10
166.835
20
-62.0454
11
166.84
21
-62.0468
0
LINE
8
BLACK
6
CONTINUOUS
10
166.84
20
-62.0468
11
166.844
21
-62.0491
0
LINE
8
BLACK
6
CONTINUOUS
10
166.844
20
-62.0491
11
166.848
21
-62.0522
0
LINE
8
BLACK
6
CONTINUOUS
10
166.848
20
-62.0522
11
166.851
21
-62.056
0
LINE
8
BLACK
6
CONTINUOUS
10
166.851
20
-62.056
11
166.853
21
-62.0604
0
LINE
8
BLACK
6
CONTINUOUS
10
166.853
20
-62.0604
11
166.855
21
-62.0651
0
LINE
8
BLACK
6
CONTINUOUS
10
166.855
20
-62.0651
11
166.855
21
-62.07
0
LINE
8
BLACK
6
CONTINUOUS
10
166.855
20
-62.07
11
166.855
21
-62.0712
0
LINE
8
BLACK
6
CONTINUOUS
10
166.855
20
-62.0712
11
166.855
21
-66.8688
0
LINE
8
BLACK
6
CONTINUOUS
10
166.855
20
-66.8688
11
166.855
21
-66.87
0
LINE
8
BLACK
6
CONTINUOUS
10
166.855
20
-66.87
11
166.855
21
-66.8749
0
LINE
8
BLACK
6
CONTINUOUS
10
166.855
20
-66.8749
11
166.853
21
-66.8796
0
LINE
8
BLACK
6
CONTINUOUS
10
166.853
20
-66.8796
11
166.851
21
-66.884
0
LINE
8
BLACK
6
CONTINUOUS
10
166.851
20
-66.884
11
166.848
21
-66.8878
0
LINE
8
BLACK
6
CONTINUOUS
10
166.848
20
-66.8878
11
166.844
21
-66.8909
0
LINE
8
BLACK
6
CONTINUOUS
10
166.844
20
-66.8909
11
166.84
21
-66.8932
0
LINE
8
BLACK
6
CONTINUOUS
10
166.84
20
-66.8932
11
166.835
21
-66.8946
0
LINE
8
BLACK
6
CONTINUOUS
10
166.835
20
-66.8946
11
166.831
21
-66.895
0
LINE
8
BLACK
6
CONTINUOUS
10
166.831
20
-66.895
11
166.831
21
-66.895
0
LINE
8
BLACK
6
CONTINUOUS
10
166.831
20
-66.895
11
166.83
21
-66.8951
0
LINE
8
BLACK
6
CONTINUOUS
10
166.83
20
-66.8951
11
166.829
21
-66.895
0
LINE
8
BLACK
6
CONTINUOUS
10
166.829
20
-66.895
11
158.331
21
-66.895
0
LINE
8
BLACK
6
CONTINUOUS
10
158.331
20
-66.895
11
158.33
21
-66.8951
0
LINE
8
BLACK
6
CONTINUOUS
10
158.33
20
-66.8951
11
158.329
21
-66.895
0
LINE
8
BLACK
6
CONTINUOUS
10
158.329
20
-66.895
11
158.329
21
-66.895
0
LINE
8
BLACK
6
CONTINUOUS
10
158.329
20
-66.895
11
158.325
21
-66.8946
0
LINE
8
BLACK
6
CONTINUOUS
10
158.325
20
-66.8946
11
158.32
21
-66.8932
0
LINE
8
BLACK
6
CONTINUOUS
10
158.32
20
-66.8932
11
158.316
21
-66.8909
0
LINE
8
BLACK
6
CONTINUOUS
10
158.316
20
-66.8909
11
158.312
21
-66.8878
0
LINE
8
BLACK
6
CONTINUOUS
10
158.312
20
-66.8878
11
158.309
21
-66.884
0
LINE
8
BLACK
6
CONTINUOUS
10
158.309
20
-66.884
11
158.307
21
-66.8796
0
LINE
8
BLACK
6
CONTINUOUS
10
158.307
20
-66.8796
11
158.305
21
-66.8749
0
LINE
8
BLACK
6
CONTINUOUS
10
158.305
20
-66.8749
11
158.305
21
-66.87
0
LINE
8
BLACK
6
CONTINUOUS
10
158.305
20
-66.87
11
158.305
21
-66.8688
0
LINE
8
BLACK
6
CONTINUOUS
10
158.305
20
-66.8688
11
158.305
21
-62.0712
0
LINE
8
BLACK
6
CONTINUOUS
10
158.305
20
-62.0712
11
158.305
21
-62.07
0
LINE
8
BLACK
6
CONTINUOUS
10
158.305
20
-62.07
11
158.305
21
-62.0651
0
LINE
8
BLACK
6
CONTINUOUS
10
158.305
20
-62.0651
11
158.307
21
-62.0604
0
LINE
8
BLACK
6
CONTINUOUS
10
158.307
20
-62.0604
11
158.309
21
-62.056
0
LINE
8
BLACK
6
CONTINUOUS
10
158.309
20
-62.056
11
158.312
21
-62.0522
0
LINE
8
BLACK
6
CONTINUOUS
10
158.312
20
-62.0522
11
158.316
21
-62.0491
0
LINE
8
BLACK
6
CONTINUOUS
10
158.316
20
-62.0491
11
158.32
21
-62.0468
0
LINE
8
BLACK
6
CONTINUOUS
10
158.32
20
-62.0468
11
158.325
21
-62.0454
0
LINE
8
BLACK
6
CONTINUOUS
10
158.325
20
-62.0454
11
158.329
21
-62.045
0
LINE
8
BLACK
6
CONTINUOUS
10
158.329
20
-62.045
11
158.33
21
-62.0449
0
LINE
8
BLACK
6
CONTINUOUS
10
158.33
20
-62.0449
11
158.331
21
-62.045
0
LINE
8
BLACK
6
CONTINUOUS
10
158.331
20
-62.045
11
166.829
21
-62.045
0
LINE
8
BLACK
6
CONTINUOUS
10
166.829
20
-62.045
11
166.83
21
-62.0449
0
LINE
8
BLACK
6
CONTINUOUS
10
166.83
20
-62.0449
11
166.831
21
-62.045
0
LINE
8
BLACK
6
CONTINUOUS
10
158.355
20
-62.095
11
158.355
21
-66.845
0
LINE
8
BLACK
6
CONTINUOUS
10
158.355
20
-66.845
11
166.805
21
-66.845
0
LINE
8
BLACK
6
CONTINUOUS
10
166.805
20
-66.845
11
166.805
21
-62.095
0
LINE
8
BLACK
6
CONTINUOUS
10
166.805
20
-62.095
11
158.355
21
-62.095
0
LINE
8
BLACK
6
CONTINUOUS
10
171.611
20
-38.965
11
171.615
21
-38.9654
0
LINE
8
BLACK
6
CONTINUOUS
10
171.615
20
-38.9654
11
171.62
21
-38.9668
0
LINE
8
BLACK
6
CONTINUOUS
10
171.62
20
-38.9668
11
171.624
21
-38.9691
0
LINE
8
BLACK
6
CONTINUOUS
10
171.624
20
-38.9691
11
171.628
21
-38.9722
0
LINE
8
BLACK
6
CONTINUOUS
10
171.628
20
-38.9722
11
171.631
21
-38.976
0
LINE
8
BLACK
6
CONTINUOUS
10
171.631
20
-38.976
11
171.633
21
-38.9804
0
LINE
8
BLACK
6
CONTINUOUS
10
171.633
20
-38.9804
11
171.635
21
-38.9851
0
LINE
8
BLACK
6
CONTINUOUS
10
171.635
20
-38.9851
11
171.635
21
-38.99
0
LINE
8
BLACK
6
CONTINUOUS
10
171.635
20
-38.99
11
171.635
21
-38.9912
0
LINE
8
BLACK
6
CONTINUOUS
10
171.635
20
-38.9912
11
171.635
21
-49.9888
0
LINE
8
BLACK
6
CONTINUOUS
10
171.635
20
-49.9888
11
171.635
21
-49.99
0
LINE
8
BLACK
6
CONTINUOUS
10
171.635
20
-49.99
11
171.635
21
-49.9949
0
LINE
8
BLACK
6
CONTINUOUS
10
171.635
20
-49.9949
11
171.633
21
-49.9996
0
LINE
8
BLACK
6
CONTINUOUS
10
171.633
20
-49.9996
11
171.631
21
-50.004
0
LINE
8
BLACK
6
CONTINUOUS
10
171.631
20
-50.004
11
171.628
21
-50.0078
0
LINE
8
BLACK
6
CONTINUOUS
10
171.628
20
-50.0078
11
171.624
21
-50.0109
0
LINE
8
BLACK
6
CONTINUOUS
10
171.624
20
-50.0109
11
171.62
21
-50.0132
0
LINE
8
BLACK
6
CONTINUOUS
10
171.62
20
-50.0132
11
171.615
21
-50.0146
0
LINE
8
BLACK
6
CONTINUOUS
10
171.615
20
-50.0146
11
171.611
21
-50.015
0
LINE
8
BLACK
6
CONTINUOUS
10
171.611
20
-50.015
11
171.611
21
-50.015
0
LINE
8
BLACK
6
CONTINUOUS
10
171.611
20
-50.015
11
171.61
21
-50.0151
0
LINE
8
BLACK
6
CONTINUOUS
10
171.61
20
-50.0151
11
171.609
21
-50.015
0
LINE
8
BLACK
6
CONTINUOUS
10
171.609
20
-50.015
11
166.811
21
-50.015
0
LINE
8
BLACK
6
CONTINUOUS
10
166.811
20
-50.015
11
166.81
21
-50.0151
0
LINE
8
BLACK
6
CONTINUOUS
10
166.81
20
-50.0151
11
166.809
21
-50.015
0
LINE
8
BLACK
6
CONTINUOUS
10
166.809
20
-50.015
11
166.809
21
-50.015
0
LINE
8
BLACK
6
CONTINUOUS
10
166.809
20
-50.015
11
166.805
21
-50.0146
0
LINE
8
BLACK
6
CONTINUOUS
10
166.805
20
-50.0146
11
166.8
21
-50.0132
0
LINE
8
BLACK
6
CONTINUOUS
10
166.8
20
-50.0132
11
166.796
21
-50.0109
0
LINE
8
BLACK
6
CONTINUOUS
10
166.796
20
-50.0109
11
166.792
21
-50.0078
0
LINE
8
BLACK
6
CONTINUOUS
10
166.792
20
-50.0078
11
166.789
21
-50.004
0
LINE
8
BLACK
6
CONTINUOUS
10
166.789
20
-50.004
11
166.787
21
-49.9996
0
LINE
8
BLACK
6
CONTINUOUS
10
166.787
20
-49.9996
11
166.785
21
-49.9949
0
LINE
8
BLACK
6
CONTINUOUS
10
166.785
20
-49.9949
11
166.785
21
-49.99
0
LINE
8
BLACK
6
CONTINUOUS
10
166.785
20
-49.99
11
166.785
21
-49.9888
0
LINE
8
BLACK
6
CONTINUOUS
10
166.785
20
-49.9888
11
166.785
21
-38.9912
0
LINE
8
BLACK
6
CONTINUOUS
10
166.785
20
-38.9912
11
166.785
21
-38.99
0
LINE
8
BLACK
6
CONTINUOUS
10
166.785
20
-38.99
11
166.785
21
-38.9851
0
LINE
8
BLACK
6
CONTINUOUS
10
166.785
20
-38.9851
11
166.787
21
-38.9804
0
LINE
8
BLACK
6
CONTINUOUS
10
166.787
20
-38.9804
11
166.789
21
-38.976
0
LINE
8
BLACK
6
CONTINUOUS
10
166.789
20
-38.976
11
166.792
21
-38.9722
0
LINE
8
BLACK
6
CONTINUOUS
10
166.792
20
-38.9722
11
166.796
21
-38.9691
0
LINE
8
BLACK
6
CONTINUOUS
10
166.796
20
-38.9691
11
166.8
21
-38.9668
0
LINE
8
BLACK
6
CONTINUOUS
10
166.8
20
-38.9668
11
166.805
21
-38.9654
0
LINE
8
BLACK
6
CONTINUOUS
10
166.805
20
-38.9654
11
166.809
21
-38.965
0
LINE
8
BLACK
6
CONTINUOUS
10
166.809
20
-38.965
11
166.81
21
-38.9649
0
LINE
8
BLACK
6
CONTINUOUS
10
166.81
20
-38.9649
11
166.811
21
-38.965
0
LINE
8
BLACK
6
CONTINUOUS
10
166.811
20
-38.965
11
171.609
21
-38.965
0
LINE
8
BLACK
6
CONTINUOUS
10
171.609
20
-38.965
11
171.61
21
-38.9649
0
LINE
8
BLACK
6
CONTINUOUS
10
171.61
20
-38.9649
11
171.611
21
-38.965
0
LINE
8
BLACK
6
CONTINUOUS
10
166.835
20
-39.015
11
166.835
21
-49.965
0
LINE
8
BLACK
6
CONTINUOUS
10
166.835
20
-49.965
11
171.585
21
-49.965
0
LINE
8
BLACK
6
CONTINUOUS
10
171.585
20
-49.965
11
171.585
21
-39.015
0
LINE
8
BLACK
6
CONTINUOUS
10
171.585
20
-39.015
11
166.835
21
-39.015
0
LINE
8
BLACK
6
CONTINUOUS
10
186.851
20
-38.965
11
186.855
21
-38.9654
0
LINE
8
BLACK
6
CONTINUOUS
10
186.855
20
-38.9654
11
186.86
21
-38.9668
0
LINE
8
BLACK
6
CONTINUOUS
10
186.86
20
-38.9668
11
186.864
21
-38.9691
0
LINE
8
BLACK
6
CONTINUOUS
10
186.864
20
-38.9691
11
186.868
21
-38.9722
0
LINE
8
BLACK
6
CONTINUOUS
10
186.868
20
-38.9722
11
186.871
21
-38.976
0
LINE
8
BLACK
6
CONTINUOUS
10
186.871
20
-38.976
11
186.873
21
-38.9804
0
LINE
8
BLACK
6
CONTINUOUS
10
186.873
20
-38.9804
11
186.875
21
-38.9851
0
LINE
8
BLACK
6
CONTINUOUS
10
186.875
20
-38.9851
11
186.875
21
-38.99
0
LINE
8
BLACK
6
CONTINUOUS
10
186.875
20
-38.99
11
186.875
21
-38.9912
0
LINE
8
BLACK
6
CONTINUOUS
10
186.875
20
-38.9912
11
186.875
21
-49.9888
0
LINE
8
BLACK
6
CONTINUOUS
10
186.875
20
-49.9888
11
186.875
21
-49.99
0
LINE
8
BLACK
6
CONTINUOUS
10
186.875
20
-49.99
11
186.875
21
-49.9949
0
LINE
8
BLACK
6
CONTINUOUS
10
186.875
20
-49.9949
11
186.873
21
-49.9996
0
LINE
8
BLACK
6
CONTINUOUS
10
186.873
20
-49.9996
11
186.871
21
-50.004
0
LINE
8
BLACK
6
CONTINUOUS
10
186.871
20
-50.004
11
186.868
21
-50.0078
0
LINE
8
BLACK
6
CONTINUOUS
10
186.868
20
-50.0078
11
186.864
21
-50.0109
0
LINE
8
BLACK
6
CONTINUOUS
10
186.864
20
-50.0109
11
186.86
21
-50.0132
0
LINE
8
BLACK
6
CONTINUOUS
10
186.86
20
-50.0132
11
186.855
21
-50.0146
0
LINE
8
BLACK
6
CONTINUOUS
10
186.855
20
-50.0146
11
186.851
21
-50.015
0
LINE
8
BLACK
6
CONTINUOUS
10
186.851
20
-50.015
11
186.851
21
-50.015
0
LINE
8
BLACK
6
CONTINUOUS
10
186.851
20
-50.015
11
186.85
21
-50.0151
0
LINE
8
BLACK
6
CONTINUOUS
10
186.85
20
-50.0151
11
186.849
21
-50.015
0
LINE
8
BLACK
6
CONTINUOUS
10
186.849
20
-50.015
11
182.051
21
-50.015
0
LINE
8
BLACK
6
CONTINUOUS
10
182.051
20
-50.015
11
182.05
21
-50.0151
0
LINE
8
BLACK
6
CONTINUOUS
10
182.05
20
-50.0151
11
182.049
21
-50.015
0
LINE
8
BLACK
6
CONTINUOUS
10
182.049
20
-50.015
11
182.049
21
-50.015
0
LINE
8
BLACK
6
CONTINUOUS
10
182.049
20
-50.015
11
182.045
21
-50.0146
0
LINE
8
BLACK
6
CONTINUOUS
10
182.045
20
-50.0146
11
182.04
21
-50.0132
0
LINE
8
BLACK
6
CONTINUOUS
10
182.04
20
-50.0132
11
182.036
21
-50.0109
0
LINE
8
BLACK
6
CONTINUOUS
10
182.036
20
-50.0109
11
182.032
21
-50.0078
0
LINE
8
BLACK
6
CONTINUOUS
10
182.032
20
-50.0078
11
182.029
21
-50.004
0
LINE
8
BLACK
6
CONTINUOUS
10
182.029
20
-50.004
11
182.027
21
-49.9996
0
LINE
8
BLACK
6
CONTINUOUS
10
182.027
20
-49.9996
11
182.025
21
-49.9949
0
LINE
8
BLACK
6
CONTINUOUS
10
182.025
20
-49.9949
11
182.025
21
-49.99
0
LINE
8
BLACK
6
CONTINUOUS
10
182.025
20
-49.99
11
182.025
21
-49.9888
0
LINE
8
BLACK
6
CONTINUOUS
10
182.025
20
-49.9888
11
182.025
21
-38.9912
0
LINE
8
BLACK
6
CONTINUOUS
10
182.025
20
-38.9912
11
182.025
21
-38.99
0
LINE
8
BLACK
6
CONTINUOUS
10
182.025
20
-38.99
11
182.025
21
-38.9851
0
LINE
8
BLACK
6
CONTINUOUS
10
182.025
20
-38.9851
11
182.027
21
-38.9804
0
LINE
8
BLACK
6
CONTINUOUS
10
182.027
20
-38.9804
11
182.029
21
-38.976
0
LINE
8
BLACK
6
CONTINUOUS
10
182.029
20
-38.976
11
182.032
21
-38.9722
0
LINE
8
BLACK
6
CONTINUOUS
10
182.032
20
-38.9722
11
182.036
21
-38.9691
0
LINE
8
BLACK
6
CONTINUOUS
10
182.036
20
-38.9691
11
182.04
21
-38.9668
0
LINE
8
BLACK
6
CONTINUOUS
10
182.04
20
-38.9668
11
182.045
21
-38.9654
0
LINE
8
BLACK
6
CONTINUOUS
10
182.045
20
-38.9654
11
182.049
21
-38.965
0
LINE
8
BLACK
6
CONTINUOUS
10
182.049
20
-38.965
11
182.05
21
-38.9649
0
LINE
8
BLACK
6
CONTINUOUS
10
182.05
20
-38.9649
11
182.051
21
-38.965
0
LINE
8
BLACK
6
CONTINUOUS
10
182.051
20
-38.965
11
186.849
21
-38.965
0
LINE
8
BLACK
6
CONTINUOUS
10
186.849
20
-38.965
11
186.85
21
-38.9649
0
LINE
8
BLACK
6
CONTINUOUS
10
186.85
20
-38.9649
11
186.851
21
-38.965
0
LINE
8
BLACK
6
CONTINUOUS
10
182.075
20
-39.015
11
182.075
21
-49.965
0
LINE
8
BLACK
6
CONTINUOUS
10
182.075
20
-49.965
11
186.825
21
-49.965
0
LINE
8
BLACK
6
CONTINUOUS
10
186.825
20
-49.965
11
186.825
21
-39.015
0
LINE
8
BLACK
6
CONTINUOUS
10
186.825
20
-39.015
11
182.075
21
-39.015
0
LINE
8
BLACK
6
CONTINUOUS
10
179.231
20
-38.965
11
179.235
21
-38.9654
0
LINE
8
BLACK
6
CONTINUOUS
10
179.235
20
-38.9654
11
179.24
21
-38.9668
0
LINE
8
BLACK
6
CONTINUOUS
10
179.24
20
-38.9668
11
179.244
21
-38.9691
0
LINE
8
BLACK
6
CONTINUOUS
10
179.244
20
-38.9691
11
179.248
21
-38.9722
0
LINE
8
BLACK
6
CONTINUOUS
10
179.248
20
-38.9722
11
179.251
21
-38.976
0
LINE
8
BLACK
6
CONTINUOUS
10
179.251
20
-38.976
11
179.253
21
-38.9804
0
LINE
8
BLACK
6
CONTINUOUS
10
179.253
20
-38.9804
11
179.255
21
-38.9851
0
LINE
8
BLACK
6
CONTINUOUS
10
179.255
20
-38.9851
11
179.255
21
-38.99
0
LINE
8
BLACK
6
CONTINUOUS
10
179.255
20
-38.99
11
179.255
21
-38.9912
0
LINE
8
BLACK
6
CONTINUOUS
10
179.255
20
-38.9912
11
179.255
21
-49.9888
0
LINE
8
BLACK
6
CONTINUOUS
10
179.255
20
-49.9888
11
179.255
21
-49.99
0
LINE
8
BLACK
6
CONTINUOUS
10
179.255
20
-49.99
11
179.255
21
-49.9949
0
LINE
8
BLACK
6
CONTINUOUS
10
179.255
20
-49.9949
11
179.253
21
-49.9996
0
LINE
8
BLACK
6
CONTINUOUS
10
179.253
20
-49.9996
11
179.251
21
-50.004
0
LINE
8
BLACK
6
CONTINUOUS
10
179.251
20
-50.004
11
179.248
21
-50.0078
0
LINE
8
BLACK
6
CONTINUOUS
10
179.248
20
-50.0078
11
179.244
21
-50.0109
0
LINE
8
BLACK
6
CONTINUOUS
10
179.244
20
-50.0109
11
179.24
21
-50.0132
0
LINE
8
BLACK
6
CONTINUOUS
10
179.24
20
-50.0132
11
179.235
21
-50.0146
0
LINE
8
BLACK
6
CONTINUOUS
10
179.235
20
-50.0146
11
179.231
21
-50.015
0
LINE
8
BLACK
6
CONTINUOUS
10
179.231
20
-50.015
11
179.231
21
-50.015
0
LINE
8
BLACK
6
CONTINUOUS
10
179.231
20
-50.015
11
179.23
21
-50.0151
0
LINE
8
BLACK
6
CONTINUOUS
10
179.23
20
-50.0151
11
179.229
21
-50.015
0
LINE
8
BLACK
6
CONTINUOUS
10
179.229
20
-50.015
11
174.431
21
-50.015
0
LINE
8
BLACK
6
CONTINUOUS
10
174.431
20
-50.015
11
174.43
21
-50.0151
0
LINE
8
BLACK
6
CONTINUOUS
10
174.43
20
-50.0151
11
174.429
21
-50.015
0
LINE
8
BLACK
6
CONTINUOUS
10
174.429
20
-50.015
11
174.429
21
-50.015
0
LINE
8
BLACK
6
CONTINUOUS
10
174.429
20
-50.015
11
174.425
21
-50.0146
0
LINE
8
BLACK
6
CONTINUOUS
10
174.425
20
-50.0146
11
174.42
21
-50.0132
0
LINE
8
BLACK
6
CONTINUOUS
10
174.42
20
-50.0132
11
174.416
21
-50.0109
0
LINE
8
BLACK
6
CONTINUOUS
10
174.416
20
-50.0109
11
174.412
21
-50.0078
0
LINE
8
BLACK
6
CONTINUOUS
10
174.412
20
-50.0078
11
174.409
21
-50.004
0
LINE
8
BLACK
6
CONTINUOUS
10
174.409
20
-50.004
11
174.407
21
-49.9996
0
LINE
8
BLACK
6
CONTINUOUS
10
174.407
20
-49.9996
11
174.405
21
-49.9949
0
LINE
8
BLACK
6
CONTINUOUS
10
174.405
20
-49.9949
11
174.405
21
-49.99
0
LINE
8
BLACK
6
CONTINUOUS
10
174.405
20
-49.99
11
174.405
21
-49.9888
0
LINE
8
BLACK
6
CONTINUOUS
10
174.405
20
-49.9888
11
174.405
21
-38.9912
0
LINE
8
BLACK
6
CONTINUOUS
10
174.405
20
-38.9912
11
174.405
21
-38.99
0
LINE
8
BLACK
6
CONTINUOUS
10
174.405
20
-38.99
11
174.405
21
-38.9851
0
LINE
8
BLACK
6
CONTINUOUS
10
174.405
20
-38.9851
11
174.407
21
-38.9804
0
LINE
8
BLACK
6
CONTINUOUS
10
174.407
20
-38.9804
11
174.409
21
-38.976
0
LINE
8
BLACK
6
CONTINUOUS
10
174.409
20
-38.976
11
174.412
21
-38.9722
0
LINE
8
BLACK
6
CONTINUOUS
10
174.412
20
-38.9722
11
174.416
21
-38.9691
0
LINE
8
BLACK
6
CONTINUOUS
10
174.416
20
-38.9691
11
174.42
21
-38.9668
0
LINE
8
BLACK
6
CONTINUOUS
10
174.42
20
-38.9668
11
174.425
21
-38.9654
0
LINE
8
BLACK
6
CONTINUOUS
10
174.425
20
-38.9654
11
174.429
21
-38.965
0
LINE
8
BLACK
6
CONTINUOUS
10
174.429
20
-38.965
11
174.43
21
-38.9649
0
LINE
8
BLACK
6
CONTINUOUS
10
174.43
20
-38.9649
11
174.431
21
-38.965
0
LINE
8
BLACK
6
CONTINUOUS
10
174.431
20
-38.965
11
179.229
21
-38.965
0
LINE
8
BLACK
6
CONTINUOUS
10
179.229
20
-38.965
11
179.23
21
-38.9649
0
LINE
8
BLACK
6
CONTINUOUS
10
179.23
20
-38.9649
11
179.231
21
-38.965
0
LINE
8
BLACK
6
CONTINUOUS
10
174.455
20
-39.015
11
174.455
21
-49.965
0
LINE
8
BLACK
6
CONTINUOUS
10
174.455
20
-49.965
11
179.205
21
-49.965
0
LINE
8
BLACK
6
CONTINUOUS
10
179.205
20
-49.965
11
179.205
21
-39.015
0
LINE
8
BLACK
6
CONTINUOUS
10
179.205
20
-39.015
11
174.455
21
-39.015
0
LINE
8
BLACK
6
CONTINUOUS
10
165.271
20
-40.425
11
165.275
21
-40.4254
0
LINE
8
BLACK
6
CONTINUOUS
10
165.275
20
-40.4254
11
165.28
21
-40.4268
0
LINE
8
BLACK
6
CONTINUOUS
10
165.28
20
-40.4268
11
165.284
21
-40.4291
0
LINE
8
BLACK
6
CONTINUOUS
10
165.284
20
-40.4291
11
165.288
21
-40.4322
0
LINE
8
BLACK
6
CONTINUOUS
10
165.288
20
-40.4322
11
165.291
21
-40.436
0
LINE
8
BLACK
6
CONTINUOUS
10
165.291
20
-40.436
11
165.293
21
-40.4404
0
LINE
8
BLACK
6
CONTINUOUS
10
165.293
20
-40.4404
11
165.295
21
-40.4451
0
LINE
8
BLACK
6
CONTINUOUS
10
165.295
20
-40.4451
11
165.295
21
-40.45
0
LINE
8
BLACK
6
CONTINUOUS
10
165.295
20
-40.45
11
165.295
21
-40.4512
0
LINE
8
BLACK
6
CONTINUOUS
10
165.295
20
-40.4512
11
165.295
21
-48.4488
0
LINE
8
BLACK
6
CONTINUOUS
10
165.295
20
-48.4488
11
165.295
21
-48.45
0
LINE
8
BLACK
6
CONTINUOUS
10
165.295
20
-48.45
11
165.295
21
-48.4549
0
LINE
8
BLACK
6
CONTINUOUS
10
165.295
20
-48.4549
11
165.293
21
-48.4596
0
LINE
8
BLACK
6
CONTINUOUS
10
165.293
20
-48.4596
11
165.291
21
-48.464
0
LINE
8
BLACK
6
CONTINUOUS
10
165.291
20
-48.464
11
165.288
21
-48.4678
0
LINE
8
BLACK
6
CONTINUOUS
10
165.288
20
-48.4678
11
165.284
21
-48.4709
0
LINE
8
BLACK
6
CONTINUOUS
10
165.284
20
-48.4709
11
165.28
21
-48.4732
0
LINE
8
BLACK
6
CONTINUOUS
10
165.28
20
-48.4732
11
165.275
21
-48.4746
0
LINE
8
BLACK
6
CONTINUOUS
10
165.275
20
-48.4746
11
165.271
21
-48.475
0
LINE
8
BLACK
6
CONTINUOUS
10
165.271
20
-48.475
11
165.271
21
-48.475
0
LINE
8
BLACK
6
CONTINUOUS
10
165.271
20
-48.475
11
165.27
21
-48.4751
0
LINE
8
BLACK
6
CONTINUOUS
10
165.27
20
-48.4751
11
165.269
21
-48.475
0
LINE
8
BLACK
6
CONTINUOUS
10
165.269
20
-48.475
11
154.771
21
-48.475
0
LINE
8
BLACK
6
CONTINUOUS
10
154.771
20
-48.475
11
154.77
21
-48.4751
0
LINE
8
BLACK
6
CONTINUOUS
10
154.77
20
-48.4751
11
154.769
21
-48.475
0
LINE
8
BLACK
6
CONTINUOUS
10
154.769
20
-48.475
11
154.769
21
-48.475
0
LINE
8
BLACK
6
CONTINUOUS
10
154.769
20
-48.475
11
154.765
21
-48.4746
0
LINE
8
BLACK
6
CONTINUOUS
10
154.765
20
-48.4746
11
154.76
21
-48.4732
0
LINE
8
BLACK
6
CONTINUOUS
10
154.76
20
-48.4732
11
154.756
21
-48.4709
0
LINE
8
BLACK
6
CONTINUOUS
10
154.756
20
-48.4709
11
154.752
21
-48.4678
0
LINE
8
BLACK
6
CONTINUOUS
10
154.752
20
-48.4678
11
154.749
21
-48.464
0
LINE
8
BLACK
6
CONTINUOUS
10
154.749
20
-48.464
11
154.747
21
-48.4596
0
LINE
8
BLACK
6
CONTINUOUS
10
154.747
20
-48.4596
11
154.745
21
-48.4549
0
LINE
8
BLACK
6
CONTINUOUS
10
154.745
20
-48.4549
11
154.745
21
-48.45
0
LINE
8
BLACK
6
CONTINUOUS
10
154.745
20
-48.45
11
154.745
21
-48.4488
0
LINE
8
BLACK
6
CONTINUOUS
10
154.745
20
-48.4488
11
154.745
21
-40.4512
0
LINE
8
BLACK
6
CONTINUOUS
10
154.745
20
-40.4512
11
154.745
21
-40.45
0
LINE
8
BLACK
6
CONTINUOUS
10
154.745
20
-40.45
11
154.745
21
-40.4451
0
LINE
8
BLACK
6
CONTINUOUS
10
154.745
20
-40.4451
11
154.747
21
-40.4404
0
LINE
8
BLACK
6
CONTINUOUS
10
154.747
20
-40.4404
11
154.749
21
-40.436
0
LINE
8
BLACK
6
CONTINUOUS
10
154.749
20
-40.436
11
154.752
21
-40.4322
0
LINE
8
BLACK
6
CONTINUOUS
10
154.752
20
-40.4322
11
154.756
21
-40.4291
0
LINE
8
BLACK
6
CONTINUOUS
10
154.756
20
-40.4291
11
154.76
21
-40.4268
0
LINE
8
BLACK
6
CONTINUOUS
10
154.76
20
-40.4268
11
154.765
21
-40.4254
0
LINE
8
BLACK
6
CONTINUOUS
10
154.765
20
-40.4254
11
154.769
21
-40.425
0
LINE
8
BLACK
6
CONTINUOUS
10
154.769
20
-40.425
11
154.77
21
-40.4249
0
LINE
8
BLACK
6
CONTINUOUS
10
154.77
20
-40.4249
11
154.771
21
-40.425
0
LINE
8
BLACK
6
CONTINUOUS
10
154.771
20
-40.425
11
165.269
21
-40.425
0
LINE
8
BLACK
6
CONTINUOUS
10
165.269
20
-40.425
11
165.27
21
-40.4249
0
LINE
8
BLACK
6
CONTINUOUS
10
165.27
20
-40.4249
11
165.271
21
-40.425
0
LINE
8
BLACK
6
CONTINUOUS
10
154.795
20
-40.475
11
154.795
21
-48.425
0
LINE
8
BLACK
6
CONTINUOUS
10
154.795
20
-48.425
11
165.245
21
-48.425
0
LINE
8
BLACK
6
CONTINUOUS
10
165.245
20
-48.425
11
165.245
21
-40.475
0
LINE
8
BLACK
6
CONTINUOUS
10
165.245
20
-40.475
11
154.795
21
-40.475
0
LINE
8
BLACK
6
CONTINUOUS
10
127.005
20
-41.8096
11
127.321
21
-40.9422
0
LINE
8
BLACK
6
CONTINUOUS
10
127.321
20
-40.9422
11
127.783
21
-40.1429
0
LINE
8
BLACK
6
CONTINUOUS
10
127.783
20
-40.1429
11
128.376
21
-39.4359
0
LINE
8
BLACK
6
CONTINUOUS
10
128.376
20
-39.4359
11
129.083
21
-38.8426
0
LINE
8
BLACK
6
CONTINUOUS
10
129.083
20
-38.8426
11
129.882
21
-38.3811
0
LINE
8
BLACK
6
CONTINUOUS
10
129.882
20
-38.3811
11
130.75
21
-38.0654
0
LINE
8
BLACK
6
CONTINUOUS
10
130.75
20
-38.0654
11
131.659
21
-37.9051
0
LINE
8
BLACK
6
CONTINUOUS
10
131.659
20
-37.9051
11
132.581
21
-37.9051
0
LINE
8
BLACK
6
CONTINUOUS
10
132.581
20
-37.9051
11
133.49
21
-38.0654
0
LINE
8
BLACK
6
CONTINUOUS
10
133.49
20
-38.0654
11
134.358
21
-38.3811
0
LINE
8
BLACK
6
CONTINUOUS
10
134.358
20
-38.3811
11
135.157
21
-38.8426
0
LINE
8
BLACK
6
CONTINUOUS
10
135.157
20
-38.8426
11
135.864
21
-39.4359
0
LINE
8
BLACK
6
CONTINUOUS
10
135.864
20
-39.4359
11
136.457
21
-40.1429
0
LINE
8
BLACK
6
CONTINUOUS
10
136.457
20
-40.1429
11
136.919
21
-40.9422
0
LINE
8
BLACK
6
CONTINUOUS
10
136.919
20
-40.9422
11
137.235
21
-41.8096
0
LINE
8
BLACK
6
CONTINUOUS
10
137.235
20
-41.8096
11
137.395
21
-42.7185
0
LINE
8
BLACK
6
CONTINUOUS
10
137.395
20
-42.7185
11
137.395
21
-43.6415
0
LINE
8
BLACK
6
CONTINUOUS
10
137.395
20
-43.6415
11
137.235
21
-44.5504
0
LINE
8
BLACK
6
CONTINUOUS
10
137.235
20
-44.5504
11
136.919
21
-45.4178
0
LINE
8
BLACK
6
CONTINUOUS
10
136.919
20
-45.4178
11
136.457
21
-46.2171
0
LINE
8
BLACK
6
CONTINUOUS
10
136.457
20
-46.2171
11
135.864
21
-46.9241
0
LINE
8
BLACK
6
CONTINUOUS
10
135.864
20
-46.9241
11
135.157
21
-47.5174
0
LINE
8
BLACK
6
CONTINUOUS
10
135.157
20
-47.5174
11
134.358
21
-47.9789
0
LINE
8
BLACK
6
CONTINUOUS
10
134.358
20
-47.9789
11
133.49
21
-48.2946
0
LINE
8
BLACK
6
CONTINUOUS
10
133.49
20
-48.2946
11
132.581
21
-48.4549
0
LINE
8
BLACK
6
CONTINUOUS
10
132.581
20
-48.4549
11
131.659
21
-48.4549
0
LINE
8
BLACK
6
CONTINUOUS
10
131.659
20
-48.4549
11
130.75
21
-48.2946
0
LINE
8
BLACK
6
CONTINUOUS
10
130.75
20
-48.2946
11
129.882
21
-47.9789
0
LINE
8
BLACK
6
CONTINUOUS
10
129.882
20
-47.9789
11
129.083
21
-47.5174
0
LINE
8
BLACK
6
CONTINUOUS
10
129.083
20
-47.5174
11
128.376
21
-46.9241
0
LINE
8
BLACK
6
CONTINUOUS
10
128.376
20
-46.9241
11
127.783
21
-46.2171
0
LINE
8
BLACK
6
CONTINUOUS
10
127.783
20
-46.2171
11
127.321
21
-45.4178
0
LINE
8
BLACK
6
CONTINUOUS
10
127.321
20
-45.4178
11
127.005
21
-44.5504
0
LINE
8
BLACK
6
CONTINUOUS
10
127.005
20
-44.5504
11
126.845
21
-43.6415
0
LINE
8
BLACK
6
CONTINUOUS
10
126.845
20
-43.6415
11
126.845
21
-42.7185
0
LINE
8
BLACK
6
CONTINUOUS
10
126.845
20
-42.7185
11
127.005
21
-41.8096
0
LINE
8
BLACK
6
CONTINUOUS
10
127.073
20
-44.5323
11
127.385
21
-45.3882
0
LINE
8
BLACK
6
CONTINUOUS
10
127.385
20
-45.3882
11
127.84
21
-46.1769
0
LINE
8
BLACK
6
CONTINUOUS
10
127.84
20
-46.1769
11
128.425
21
-46.8746
0
LINE
8
BLACK
6
CONTINUOUS
10
128.425
20
-46.8746
11
129.123
21
-47.4601
0
LINE
8
BLACK
6
CONTINUOUS
10
129.123
20
-47.4601
11
129.912
21
-47.9155
0
LINE
8
BLACK
6
CONTINUOUS
10
129.912
20
-47.9155
11
130.768
21
-48.227
0
LINE
8
BLACK
6
CONTINUOUS
10
130.768
20
-48.227
11
131.665
21
-48.3851
0
LINE
8
BLACK
6
CONTINUOUS
10
131.665
20
-48.3851
11
132.575
21
-48.3851
0
LINE
8
BLACK
6
CONTINUOUS
10
132.575
20
-48.3851
11
133.472
21
-48.227
0
LINE
8
BLACK
6
CONTINUOUS
10
133.472
20
-48.227
11
134.328
21
-47.9155
0
LINE
8
BLACK
6
CONTINUOUS
10
134.328
20
-47.9155
11
135.117
21
-47.4601
0
LINE
8
BLACK
6
CONTINUOUS
10
135.117
20
-47.4601
11
135.815
21
-46.8746
0
LINE
8
BLACK
6
CONTINUOUS
10
135.815
20
-46.8746
11
136.4
21
-46.1769
0
LINE
8
BLACK
6
CONTINUOUS
10
136.4
20
-46.1769
11
136.855
21
-45.3882
0
LINE
8
BLACK
6
CONTINUOUS
10
136.855
20
-45.3882
11
137.167
21
-44.5323
0
LINE
8
BLACK
6
CONTINUOUS
10
137.167
20
-44.5323
11
137.325
21
-43.6354
0
LINE
8
BLACK
6
CONTINUOUS
10
137.325
20
-43.6354
11
137.325
21
-42.7246
0
LINE
8
BLACK
6
CONTINUOUS
10
137.325
20
-42.7246
11
137.167
21
-41.8277
0
LINE
8
BLACK
6
CONTINUOUS
10
137.167
20
-41.8277
11
136.855
21
-40.9718
0
LINE
8
BLACK
6
CONTINUOUS
10
136.855
20
-40.9718
11
136.4
21
-40.1831
0
LINE
8
BLACK
6
CONTINUOUS
10
136.4
20
-40.1831
11
135.815
21
-39.4854
0
LINE
8
BLACK
6
CONTINUOUS
10
135.815
20
-39.4854
11
135.117
21
-38.8999
0
LINE
8
BLACK
6
CONTINUOUS
10
135.117
20
-38.8999
11
134.328
21
-38.4445
0
LINE
8
BLACK
6
CONTINUOUS
10
134.328
20
-38.4445
11
133.472
21
-38.133
0
LINE
8
BLACK
6
CONTINUOUS
10
133.472
20
-38.133
11
132.575
21
-37.9749
0
LINE
8
BLACK
6
CONTINUOUS
10
132.575
20
-37.9749
11
131.665
21
-37.9749
0
LINE
8
BLACK
6
CONTINUOUS
10
131.665
20
-37.9749
11
130.768
21
-38.133
0
LINE
8
BLACK
6
CONTINUOUS
10
130.768
20
-38.133
11
129.912
21
-38.4445
0
LINE
8
BLACK
6
CONTINUOUS
10
129.912
20
-38.4445
11
129.123
21
-38.8999
0
LINE
8
BLACK
6
CONTINUOUS
10
129.123
20
-38.8999
11
128.425
21
-39.4854
0
LINE
8
BLACK
6
CONTINUOUS
10
128.425
20
-39.4854
11
127.84
21
-40.1831
0
LINE
8
BLACK
6
CONTINUOUS
10
127.84
20
-40.1831
11
127.385
21
-40.9718
0
LINE
8
BLACK
6
CONTINUOUS
10
127.385
20
-40.9718
11
127.073
21
-41.8277
0
LINE
8
BLACK
6
CONTINUOUS
10
127.073
20
-41.8277
11
126.915
21
-42.7246
0
LINE
8
BLACK
6
CONTINUOUS
10
126.915
20
-42.7246
11
126.915
21
-43.6354
0
LINE
8
BLACK
6
CONTINUOUS
10
126.915
20
-43.6354
11
127.073
21
-44.5323
  0
ENDSEC
  0
EOF
