  0
SECTION
  2
HEADER
  9
$ANGBASE
  50
0.0
  9
$ANGDIR
  70
1
  9
$MEASUREMENT
  70
1
  0
ENDSEC
  0
SECTION
  2
TABLES
  0
TABLE
  2
LTYPE
  70
4
  0
LTYPE
  5
40F
  2
CONTINUOUS
  70
0
  3
Solid line
  72
65
  73
0
  40
0.0
  0
LTYPE
  5
410
  2
DASHDOT
 70
0
  3
Dash Dot ____ _ ____ _
 72
65
 73
4
 40
2.0
 49
1.25
 49
-0.25
 49
0.25
 49
-0.25
  0
LTYPE
  5
411
  2
DASHED
 70
0
  3
Dashed __ __ __ __ __
 72
65
 73
2
 40
0.75
 49
0.5
 49
-0.25
  0
LTYPE
  5
43B
  2
DOTTED
 70
0
  3
Dotted .  .  .  .
 72
65
 73
2
 40
0.2
 49
0.0
 49
-0.2
  0
ENDTAB
  0
TABLE
  2
STYLE
  70
4
  0
STYLE
  2
KICAD
  70
0
  40
0
  41
1
  42
1
  50
0
  71
0
  3
isocp.shx
  0
STYLE
  2
KICADB
  70
0
  40
0
  41
1
  42
1
  50
0
  71
0
  3
isocp.shx
  0
STYLE
  2
KICADI
  70
0
  40
0
  41
1
  42
1
  50
15
  71
0
  3
isocp.shx
  0
STYLE
  2
KICADBI
  70
0
  40
0
  41
1
  42
1
  50
15
  71
0
  3
isocp.shx
  0
ENDTAB
  0
TABLE
  2
LAYER
  70
1
  0
LAYER
  2
BLACK
  70
0
  62
7
  6
CONTINUOUS
  0
ENDTAB
  0
ENDSEC
  0
SECTION
  2
ENTITIES
0
LINE
8
BLACK
6
CONTINUOUS
10
191.77
20
-35.5349
11
191.771
21
-35.535
0
LINE
8
BLACK
6
CONTINUOUS
10
191.771
20
-35.535
11
191.771
21
-35.535
0
LINE
8
BLACK
6
CONTINUOUS
10
191.771
20
-35.535
11
191.775
21
-35.5354
0
LINE
8
BLACK
6
CONTINUOUS
10
191.775
20
-35.5354
11
191.78
21
-35.5368
0
LINE
8
BLACK
6
CONTINUOUS
10
191.78
20
-35.5368
11
191.784
21
-35.5391
0
LINE
8
BLACK
6
CONTINUOUS
10
191.784
20
-35.5391
11
191.788
21
-35.5422
0
LINE
8
BLACK
6
CONTINUOUS
10
191.788
20
-35.5422
11
191.791
21
-35.546
0
LINE
8
BLACK
6
CONTINUOUS
10
191.791
20
-35.546
11
191.793
21
-35.5504
0
LINE
8
BLACK
6
CONTINUOUS
10
191.793
20
-35.5504
11
191.795
21
-35.5551
0
LINE
8
BLACK
6
CONTINUOUS
10
191.795
20
-35.5551
11
191.795
21
-35.56
0
LINE
8
BLACK
6
CONTINUOUS
10
191.795
20
-35.56
11
191.795
21
-35.5612
0
LINE
8
BLACK
6
CONTINUOUS
10
191.795
20
-35.5612
11
191.795
21
-135.889
0
LINE
8
BLACK
6
CONTINUOUS
10
191.795
20
-135.889
11
191.795
21
-135.89
0
LINE
8
BLACK
6
CONTINUOUS
10
191.795
20
-135.89
11
191.795
21
-135.891
0
LINE
8
BLACK
6
CONTINUOUS
10
191.795
20
-135.891
11
191.795
21
-135.891
0
LINE
8
BLACK
6
CONTINUOUS
10
191.795
20
-135.891
11
191.795
21
-135.895
0
LINE
8
BLACK
6
CONTINUOUS
10
191.795
20
-135.895
11
191.793
21
-135.9
0
LINE
8
BLACK
6
CONTINUOUS
10
191.793
20
-135.9
11
191.791
21
-135.904
0
LINE
8
BLACK
6
CONTINUOUS
10
191.791
20
-135.904
11
191.788
21
-135.908
0
LINE
8
BLACK
6
CONTINUOUS
10
191.788
20
-135.908
11
191.784
21
-135.911
0
LINE
8
BLACK
6
CONTINUOUS
10
191.784
20
-135.911
11
191.78
21
-135.913
0
LINE
8
BLACK
6
CONTINUOUS
10
191.78
20
-135.913
11
191.775
21
-135.915
0
LINE
8
BLACK
6
CONTINUOUS
10
191.775
20
-135.915
11
191.77
21
-135.915
0
LINE
8
BLACK
6
CONTINUOUS
10
191.77
20
-135.915
11
191.769
21
-135.915
0
LINE
8
BLACK
6
CONTINUOUS
10
191.769
20
-135.915
11
188.003
21
-135.915
0
LINE
8
BLACK
6
CONTINUOUS
10
188.003
20
-135.915
11
188.002
21
-135.918
0
LINE
8
BLACK
6
CONTINUOUS
10
188.002
20
-135.918
11
187.996
21
-135.926
0
LINE
8
BLACK
6
CONTINUOUS
10
187.996
20
-135.926
11
187.988
21
-135.932
0
LINE
8
BLACK
6
CONTINUOUS
10
187.988
20
-135.932
11
187.979
21
-135.936
0
LINE
8
BLACK
6
CONTINUOUS
10
187.979
20
-135.936
11
187.97
21
-135.939
0
LINE
8
BLACK
6
CONTINUOUS
10
187.97
20
-135.939
11
187.962
21
-135.94
0
LINE
8
BLACK
6
CONTINUOUS
10
187.962
20
-135.94
11
115.568
21
-135.94
0
LINE
8
BLACK
6
CONTINUOUS
10
115.568
20
-135.94
11
115.56
21
-135.939
0
LINE
8
BLACK
6
CONTINUOUS
10
115.56
20
-135.939
11
115.551
21
-135.936
0
LINE
8
BLACK
6
CONTINUOUS
10
115.551
20
-135.936
11
115.542
21
-135.932
0
LINE
8
BLACK
6
CONTINUOUS
10
115.542
20
-135.932
11
115.534
21
-135.926
0
LINE
8
BLACK
6
CONTINUOUS
10
115.534
20
-135.926
11
115.528
21
-135.918
0
LINE
8
BLACK
6
CONTINUOUS
10
115.528
20
-135.918
11
115.524
21
-135.909
0
LINE
8
BLACK
6
CONTINUOUS
10
115.524
20
-135.909
11
115.521
21
-135.9
0
LINE
8
BLACK
6
CONTINUOUS
10
115.521
20
-135.9
11
115.52
21
-135.89
0
LINE
8
BLACK
6
CONTINUOUS
10
115.52
20
-135.89
11
115.521
21
-135.88
0
LINE
8
BLACK
6
CONTINUOUS
10
115.521
20
-135.88
11
115.524
21
-135.871
0
LINE
8
BLACK
6
CONTINUOUS
10
115.524
20
-135.871
11
115.528
21
-135.862
0
LINE
8
BLACK
6
CONTINUOUS
10
115.528
20
-135.862
11
115.534
21
-135.854
0
LINE
8
BLACK
6
CONTINUOUS
10
115.534
20
-135.854
11
115.542
21
-135.848
0
LINE
8
BLACK
6
CONTINUOUS
10
115.542
20
-135.848
11
115.545
21
-135.847
0
LINE
8
BLACK
6
CONTINUOUS
10
115.545
20
-135.847
11
115.545
21
-35.5612
0
LINE
8
BLACK
6
CONTINUOUS
10
115.545
20
-35.5612
11
115.545
21
-35.56
0
LINE
8
BLACK
6
CONTINUOUS
10
115.545
20
-35.56
11
115.545
21
-35.5551
0
LINE
8
BLACK
6
CONTINUOUS
10
115.545
20
-35.5551
11
115.547
21
-35.5504
0
LINE
8
BLACK
6
CONTINUOUS
10
115.547
20
-35.5504
11
115.549
21
-35.546
0
LINE
8
BLACK
6
CONTINUOUS
10
115.549
20
-35.546
11
115.552
21
-35.5422
0
LINE
8
BLACK
6
CONTINUOUS
10
115.552
20
-35.5422
11
115.556
21
-35.5391
0
LINE
8
BLACK
6
CONTINUOUS
10
115.556
20
-35.5391
11
115.56
21
-35.5368
0
LINE
8
BLACK
6
CONTINUOUS
10
115.56
20
-35.5368
11
115.565
21
-35.5354
0
LINE
8
BLACK
6
CONTINUOUS
10
115.565
20
-35.5354
11
115.569
21
-35.535
0
LINE
8
BLACK
6
CONTINUOUS
10
115.569
20
-35.535
11
115.569
21
-35.535
0
LINE
8
BLACK
6
CONTINUOUS
10
115.569
20
-35.535
11
115.57
21
-35.5349
0
LINE
8
BLACK
6
CONTINUOUS
10
115.57
20
-35.5349
11
115.571
21
-35.535
0
LINE
8
BLACK
6
CONTINUOUS
10
115.571
20
-35.535
11
191.769
21
-35.535
0
LINE
8
BLACK
6
CONTINUOUS
10
191.769
20
-35.535
11
191.77
21
-35.5349
0
LINE
8
BLACK
6
CONTINUOUS
10
115.595
20
-135.84
11
187.962
21
-135.84
0
LINE
8
BLACK
6
CONTINUOUS
10
187.962
20
-135.84
11
187.97
21
-135.841
0
LINE
8
BLACK
6
CONTINUOUS
10
187.97
20
-135.841
11
187.979
21
-135.844
0
LINE
8
BLACK
6
CONTINUOUS
10
187.979
20
-135.844
11
187.988
21
-135.848
0
LINE
8
BLACK
6
CONTINUOUS
10
187.988
20
-135.848
11
187.996
21
-135.854
0
LINE
8
BLACK
6
CONTINUOUS
10
187.996
20
-135.854
11
188.002
21
-135.862
0
LINE
8
BLACK
6
CONTINUOUS
10
188.002
20
-135.862
11
188.003
21
-135.865
0
LINE
8
BLACK
6
CONTINUOUS
10
188.003
20
-135.865
11
191.745
21
-135.865
0
LINE
8
BLACK
6
CONTINUOUS
10
191.745
20
-135.865
11
191.745
21
-35.585
0
LINE
8
BLACK
6
CONTINUOUS
10
191.745
20
-35.585
11
115.595
21
-35.585
0
LINE
8
BLACK
6
CONTINUOUS
10
115.595
20
-35.585
11
115.595
21
-135.84
  0
ENDSEC
  0
EOF
